if (_typeface_js && _typeface_js.loadFace) _typeface_js.loadFace({"glyphs":{"0":{"ha":769,"x_min":0,"x_max":0,"o":"m 385 -11 b 706 353 572 -11 706 144 b 385 717 706 561 571 717 b 65 353 197 717 65 563 b 385 -11 65 146 199 -11 z m 385 74 b 165 353 254 74 165 190 b 385 632 165 515 254 632 b 604 353 517 632 604 515 b 385 74 604 190 517 74 z "},"1":{"ha":568,"x_min":0,"x_max":0,"o":"m 88 0 l 515 0 l 515 83 l 351 83 l 351 708 l 308 708 l 83 649 l 106 565 l 254 603 l 254 83 l 88 83 z "},"2":{"ha":688,"x_min":0,"x_max":0,"o":"m 326 632 b 490 513 428 632 490 582 b 329 331 490 436 419 389 b 51 49 215 258 106 179 l 64 0 l 611 0 l 611 201 l 525 201 l 525 82 l 174 82 b 378 263 217 157 292 210 b 588 514 490 332 588 397 b 332 717 588 618 500 717 b 100 610 228 717 142 668 b 74 533 83 585 74 558 b 146 449 74 482 106 449 b 213 517 183 449 213 479 b 178 569 213 539 197 560 l 182 576 b 326 632 207 607 263 632 z "},"3":{"ha":683,"x_min":0,"x_max":0,"o":"m 49 11 b 75 -67 49 -17 58 -43 b 325 -175 118 -131 214 -175 b 621 72 492 -175 621 -78 b 492 265 621 160 567 228 b 406 293 465 278 435 288 b 496 324 438 297 468 308 b 611 497 563 361 611 426 b 342 717 611 618 501 717 b 106 613 226 717 144 669 b 79 536 88 586 79 561 b 153 453 79 486 114 453 b 219 517 186 453 219 479 b 182 572 219 538 203 563 l 186 578 b 336 631 211 608 260 631 b 514 496 440 631 514 583 b 429 369 514 443 481 400 b 269 331 385 344 328 331 l 235 331 l 235 249 l 265 249 b 422 218 326 249 381 238 b 524 72 488 189 524 138 b 326 -89 524 -19 443 -89 b 158 -35 256 -89 192 -69 l 153 -26 b 188 31 176 -15 188 8 b 124 94 188 64 161 94 b 49 11 82 94 49 57 z "},"4":{"ha":714,"x_min":0,"x_max":0,"o":"m 440 -167 l 533 -167 l 533 81 l 689 81 l 689 163 l 533 163 l 533 397 l 440 360 l 440 163 l 168 163 l 543 667 l 471 721 l 24 122 l 42 81 l 440 81 z "},"5":{"ha":674,"x_min":0,"x_max":0,"o":"m 58 -19 b 99 -106 58 -50 72 -81 b 318 -172 143 -146 219 -172 b 615 106 485 -172 615 -57 b 325 375 615 269 492 375 b 183 354 272 375 222 367 l 213 614 l 568 614 l 568 706 l 138 706 l 86 276 l 129 251 b 315 292 181 275 244 292 b 515 106 440 292 515 214 b 313 -87 515 -6 433 -87 b 175 -54 250 -87 204 -76 b 174 -53 174 -54 174 -53 b 197 -3 188 -42 197 -21 b 131 61 197 35 168 61 b 58 -19 89 61 58 24 z "},"6":{"ha":739,"x_min":0,"x_max":0,"o":"m 414 804 b 514 774 458 804 492 793 b 496 731 503 764 496 750 b 564 663 496 693 522 663 b 638 744 600 663 638 693 b 601 824 638 775 624 801 b 422 889 561 865 492 889 b 72 372 251 889 72 739 b 167 71 72 242 101 138 b 379 -12 221 17 293 -12 b 676 275 553 -12 676 115 b 390 540 676 421 557 540 b 167 421 290 540 204 488 b 414 804 174 669 290 804 z m 379 72 b 233 128 318 72 268 94 b 178 261 197 164 178 211 b 386 457 178 364 263 457 b 578 275 503 457 578 378 b 379 72 578 158 500 72 z "},"7":{"ha":653,"x_min":0,"x_max":0,"o":"m 217 -169 l 608 664 l 589 706 l 43 706 l 43 486 l 132 486 l 132 625 l 486 625 l 132 -129 z "},"8":{"ha":700,"x_min":0,"x_max":0,"o":"m 349 -11 b 639 235 519 -11 639 96 b 472 451 639 335 565 417 b 619 649 561 490 619 569 b 349 888 619 789 501 888 b 79 649 199 888 79 789 b 225 451 79 576 135 490 b 61 235 132 417 61 335 b 349 -11 61 96 179 -11 z m 349 489 b 179 644 256 489 179 558 b 349 803 179 735 251 803 b 521 644 447 803 521 735 b 349 489 521 558 443 489 z m 349 74 b 163 240 243 74 163 146 b 349 410 163 338 243 410 b 536 240 456 410 536 338 b 349 74 536 146 457 74 z "},"9":{"ha":739,"x_min":0,"x_max":0,"o":"m 307 -172 b 665 332 479 -172 665 -35 b 569 636 665 464 635 569 b 358 717 517 689 443 717 b 61 429 185 717 61 590 b 347 167 61 283 181 167 b 571 281 446 167 533 215 b 317 -86 563 43 449 -86 b 217 -56 272 -86 239 -75 b 235 -12 228 -46 235 -32 b 165 56 235 24 208 56 b 93 -26 129 56 93 25 b 125 -103 93 -56 104 -81 b 307 -172 165 -147 238 -172 z m 504 578 b 560 444 540 542 560 494 b 351 251 560 340 475 251 b 161 429 235 251 161 328 b 358 632 161 546 239 632 b 504 578 419 632 469 611 z "},"A":{"ha":981,"x_min":0,"x_max":0,"o":"m 25 0 l 331 0 l 331 90 l 219 90 l 301 315 l 675 315 l 757 90 l 650 90 l 650 0 l 956 0 l 956 92 l 868 92 l 594 824 l 699 824 l 699 914 l 282 914 l 282 824 l 386 824 l 113 92 l 25 92 z m 332 403 l 489 829 l 644 403 z "},"B":{"ha":840,"x_min":0,"x_max":0,"o":"m 65 0 l 449 0 b 765 250 650 0 765 106 b 572 468 765 368 694 436 b 739 682 671 499 739 572 b 432 914 739 804 649 914 l 65 914 l 65 822 l 182 822 l 182 92 l 65 92 z m 285 90 l 285 424 l 422 424 b 663 256 572 424 663 365 b 451 90 663 158 586 90 z m 285 508 l 285 824 l 429 824 b 636 672 564 824 636 767 b 419 508 636 575 564 508 z "},"C":{"ha":975,"x_min":0,"x_max":0,"o":"m 546 -17 b 890 122 672 -17 799 31 l 829 196 b 546 78 747 119 656 78 b 183 454 331 78 183 258 b 540 836 183 660 332 836 b 761 744 657 836 736 785 b 726 689 743 738 726 715 b 803 615 726 647 760 615 b 883 706 849 615 883 654 b 542 931 883 815 733 931 b 78 453 294 931 78 735 b 546 -17 78 201 264 -17 z "},"D":{"ha":1011,"x_min":0,"x_max":0,"o":"m 65 0 l 404 0 b 933 467 740 0 933 190 b 408 914 933 738 726 914 l 65 914 l 65 822 l 182 822 l 182 92 l 65 92 z m 286 92 l 286 822 l 406 822 b 828 468 664 822 828 688 b 417 92 828 244 690 92 z "},"E":{"ha":817,"x_min":0,"x_max":0,"o":"m 65 0 l 731 0 l 731 224 l 631 224 l 631 90 l 286 90 l 286 421 l 585 421 l 585 510 l 286 510 l 286 824 l 631 824 l 631 690 l 729 690 l 729 914 l 65 914 l 65 822 l 182 822 l 182 92 l 65 92 z "},"F":{"ha":788,"x_min":0,"x_max":0,"o":"m 65 0 l 413 0 l 413 92 l 286 92 l 286 404 l 579 404 l 579 493 l 286 493 l 286 824 l 619 824 l 619 690 l 719 690 l 719 914 l 65 914 l 65 822 l 182 822 l 182 92 l 65 92 z "},"G":{"ha":1024,"x_min":0,"x_max":0,"o":"m 522 -17 b 807 79 638 -17 728 19 l 807 0 l 906 0 l 906 444 l 551 444 l 551 357 l 804 357 l 804 163 b 533 75 725 107 638 75 b 183 450 344 75 183 225 b 549 836 183 667 332 836 b 765 760 651 836 731 797 b 742 707 751 749 742 731 b 817 633 742 665 774 633 b 894 719 861 633 894 668 b 551 931 894 817 757 931 b 78 450 299 931 78 739 b 522 -17 78 158 292 -17 z "},"H":{"ha":1078,"x_min":0,"x_max":0,"o":"m 65 0 l 406 0 l 406 92 l 286 92 l 286 422 l 792 422 l 792 92 l 672 92 l 672 0 l 1013 0 l 1013 92 l 896 92 l 896 822 l 1013 822 l 1013 914 l 672 914 l 672 822 l 792 822 l 792 514 l 286 514 l 286 822 l 406 822 l 406 914 l 65 914 l 65 822 l 182 822 l 182 92 l 65 92 z "},"I":{"ha":483,"x_min":0,"x_max":0,"o":"m 67 0 l 417 0 l 417 92 l 293 92 l 293 822 l 417 822 l 417 914 l 67 914 l 67 822 l 190 822 l 190 92 l 67 92 z "},"J":{"ha":735,"x_min":0,"x_max":0,"o":"m 300 -17 b 496 58 382 -17 447 10 b 576 310 550 113 576 203 l 576 822 l 686 822 l 686 914 l 333 914 l 333 822 l 474 822 l 474 311 b 421 126 474 225 458 163 b 300 79 390 94 347 79 b 149 179 206 79 153 138 b 199 243 179 186 199 213 b 128 314 199 285 164 314 b 42 207 78 314 42 271 b 300 -17 42 82 158 -17 z "},"K":{"ha":938,"x_min":0,"x_max":0,"o":"m 65 0 l 406 0 l 406 92 l 286 92 l 286 308 l 436 458 l 738 0 l 919 0 l 919 92 l 804 92 l 513 526 l 810 822 l 913 822 l 913 914 l 560 914 l 560 824 l 682 824 l 286 425 l 286 824 l 406 824 l 406 914 l 65 914 l 65 822 l 182 822 l 182 92 l 65 92 z "},"L":{"ha":769,"x_min":0,"x_max":0,"o":"m 65 0 l 701 0 l 701 231 l 603 231 l 603 90 l 286 90 l 286 822 l 413 822 l 413 914 l 65 914 l 65 822 l 182 822 l 182 92 l 65 92 z "},"M":{"ha":1225,"x_min":0,"x_max":0,"o":"m 58 0 l 393 0 l 393 92 l 278 92 l 300 731 l 594 129 l 622 129 l 917 731 l 940 92 l 824 92 l 824 0 l 1160 0 l 1160 92 l 1042 92 l 1008 822 l 1131 822 l 1131 914 l 910 914 l 610 293 l 311 914 l 89 914 l 89 822 l 211 822 l 178 92 l 58 92 z "},"N":{"ha":1061,"x_min":0,"x_max":0,"o":"m 842 -4 l 899 -3 l 899 822 l 1011 822 l 1011 914 l 679 914 l 679 822 l 800 822 l 800 218 l 272 914 l 65 914 l 65 822 l 182 822 l 182 92 l 65 92 l 65 0 l 401 0 l 401 92 l 282 92 l 282 733 z "},"O":{"ha":1079,"x_min":0,"x_max":0,"o":"m 538 -17 b 1003 458 806 -17 1003 190 b 543 931 1003 722 808 931 b 78 456 274 931 78 724 b 538 -17 78 192 271 -17 z m 540 78 b 183 458 331 78 183 243 b 540 836 183 672 331 836 b 896 456 749 836 896 671 b 540 78 896 242 749 78 z "},"P":{"ha":807,"x_min":0,"x_max":0,"o":"m 65 0 l 410 0 l 410 92 l 286 92 l 286 332 b 415 329 313 331 365 329 b 754 626 618 329 754 439 b 417 914 754 803 608 914 l 65 914 l 65 822 l 182 822 l 182 92 l 65 92 z m 421 419 b 286 422 363 419 314 421 l 286 822 l 418 822 b 650 625 549 822 650 750 b 421 419 650 499 563 419 z "},"Q":{"ha":1079,"x_min":0,"x_max":0,"o":"m 910 -193 b 1065 -142 963 -193 1014 -182 l 1018 -58 b 906 -94 975 -87 947 -94 b 743 -29 847 -94 807 -71 b 665 11 718 -14 692 1 b 1003 458 865 56 1003 232 b 543 931 1003 722 808 931 b 78 456 274 931 78 724 b 225 106 78 315 135 186 b 476 -10 292 44 378 6 b 614 -60 526 -18 572 -33 b 910 -193 692 -107 783 -193 z m 540 78 b 299 172 443 78 361 113 b 183 458 226 240 183 343 b 540 836 183 672 331 836 b 896 456 749 836 896 671 b 540 78 896 242 749 78 z "},"R":{"ha":858,"x_min":0,"x_max":0,"o":"m 65 0 l 406 0 l 406 92 l 286 92 l 286 374 b 392 371 313 372 356 371 b 444 374 410 371 428 372 l 669 0 l 850 0 l 850 92 l 740 92 l 549 399 b 744 649 664 436 744 524 b 413 914 744 813 614 914 l 65 914 l 65 822 l 182 822 l 182 92 l 65 92 z m 397 461 b 286 464 353 461 314 463 l 286 822 l 407 822 b 640 646 549 822 640 761 b 397 461 640 525 536 461 z "},"S":{"ha":763,"x_min":0,"x_max":0,"o":"m 381 -15 b 681 244 553 -15 681 83 b 415 514 681 399 565 456 b 214 696 300 558 214 599 b 390 839 214 779 281 839 b 539 793 447 839 514 821 b 519 740 529 781 519 763 b 593 669 519 703 549 669 b 665 750 632 669 665 699 b 393 931 665 844 543 931 b 111 688 222 931 111 828 b 388 413 111 531 231 472 b 578 236 492 372 578 331 b 382 75 578 138 504 75 b 200 132 299 75 231 101 b 222 193 213 149 222 168 b 150 261 222 229 193 261 b 76 174 108 261 76 226 b 381 -15 76 85 201 -15 z "},"T":{"ha":876,"x_min":0,"x_max":0,"o":"m 263 0 l 614 0 l 614 92 l 490 92 l 490 826 l 719 826 l 719 679 l 818 679 l 818 914 l 58 914 l 58 679 l 157 679 l 157 826 l 386 826 l 386 92 l 263 92 z "},"U":{"ha":986,"x_min":0,"x_max":0,"o":"m 492 -17 b 825 319 697 -17 825 103 l 825 822 l 940 822 l 940 914 l 604 914 l 604 822 l 725 822 l 725 319 b 493 78 725 156 639 78 b 263 322 347 78 263 160 l 263 822 l 383 822 l 383 914 l 46 914 l 46 822 l 161 822 l 161 315 b 492 -17 161 101 283 -17 z "},"V":{"ha":967,"x_min":0,"x_max":0,"o":"m 454 -14 l 514 -14 l 853 822 l 942 822 l 942 914 l 633 914 l 633 822 l 743 822 l 486 163 l 229 822 l 333 822 l 333 914 l 25 914 l 25 822 l 115 822 z "},"W":{"ha":1375,"x_min":0,"x_max":0,"o":"m 394 -14 l 454 -14 l 692 615 l 928 -14 l 988 -14 l 1243 822 l 1349 822 l 1349 914 l 1019 914 l 1019 822 l 1139 822 l 953 183 l 722 804 l 665 804 l 436 182 l 244 822 l 360 822 l 360 914 l 29 914 l 29 822 l 135 822 z "},"X":{"ha":1001,"x_min":0,"x_max":0,"o":"m 56 0 l 371 0 l 371 89 l 264 89 l 500 410 l 732 89 l 631 89 l 631 0 l 946 0 l 946 92 l 850 92 l 563 469 l 832 822 l 931 822 l 931 914 l 613 914 l 613 825 l 719 825 l 503 528 l 290 825 l 390 825 l 390 914 l 72 914 l 72 822 l 172 822 l 440 468 l 151 92 l 56 92 z "},"Y":{"ha":892,"x_min":0,"x_max":0,"o":"m 265 0 l 626 0 l 626 92 l 497 92 l 497 367 l 768 822 l 867 822 l 867 914 l 558 914 l 558 822 l 657 822 l 447 454 l 239 822 l 333 822 l 333 914 l 26 914 l 26 822 l 124 822 l 393 365 l 393 92 l 265 92 z "},"Z":{"ha":842,"x_min":0,"x_max":0,"o":"m 63 0 l 779 0 l 779 231 l 686 231 l 686 86 l 210 86 l 769 864 l 769 914 l 92 914 l 92 683 l 186 683 l 186 828 l 622 828 l 63 50 z "},"a":{"ha":683,"x_min":0,"x_max":0,"o":"m 258 -11 b 464 75 339 -11 415 28 l 464 0 l 649 0 l 649 83 l 553 83 l 553 406 b 508 533 553 456 539 500 b 318 603 469 576 406 603 b 99 465 176 603 99 533 b 160 401 99 429 124 401 b 222 463 197 401 222 428 b 214 497 222 475 218 488 b 306 522 233 510 258 522 b 435 475 365 522 408 504 b 461 392 451 454 461 425 l 461 310 b 290 338 431 321 354 338 b 63 158 158 338 63 267 b 258 -11 63 57 144 -11 z m 283 67 b 160 165 203 67 160 108 b 301 271 160 226 207 271 b 461 247 358 271 417 260 l 461 149 b 283 67 415 103 354 67 z "},"b":{"ha":757,"x_min":0,"x_max":0,"o":"m 396 -11 b 693 296 571 -11 693 126 b 411 603 693 479 565 603 b 208 514 317 603 258 563 l 208 1017 l 18 1017 l 18 933 l 113 933 l 113 -1 l 172 -1 l 201 61 b 396 -11 253 18 321 -11 z m 390 72 b 208 139 314 72 254 103 l 208 431 b 394 519 257 481 318 519 b 594 294 510 519 594 429 b 390 72 594 161 504 72 z "},"c":{"ha":657,"x_min":0,"x_max":0,"o":"m 372 -11 b 572 46 436 -11 513 6 l 581 139 b 383 74 511 94 450 74 b 157 293 249 74 157 164 b 353 521 157 444 265 521 b 486 458 413 521 471 494 b 457 410 468 447 457 429 b 521 344 457 368 489 344 b 596 425 564 344 596 381 b 354 603 596 514 489 603 b 58 294 189 603 58 458 b 372 -11 58 119 193 -11 z "},"d":{"ha":764,"x_min":0,"x_max":0,"o":"m 342 -11 b 540 83 429 -11 490 28 l 540 0 l 729 0 l 729 83 l 633 83 l 633 1017 l 426 1017 l 426 933 l 538 933 l 538 532 b 354 603 492 575 428 603 b 61 292 176 603 61 460 b 342 -11 61 111 185 -11 z m 356 72 b 161 293 243 72 160 161 b 360 519 161 424 243 519 b 538 451 438 519 493 489 l 538 161 b 356 72 490 111 432 72 z "},"e":{"ha":674,"x_min":0,"x_max":0,"o":"m 613 268 b 618 324 617 283 618 301 b 347 603 618 471 524 603 b 57 294 167 603 57 458 b 372 -11 57 114 183 -11 b 585 46 447 -11 524 8 l 593 139 b 385 74 524 99 464 74 b 157 268 257 74 171 138 z m 342 521 b 521 344 454 521 514 449 l 158 344 b 342 521 172 457 251 521 z "},"f":{"ha":442,"x_min":0,"x_max":0,"o":"m 404 883 b 464 949 438 883 464 910 b 356 1028 464 997 419 1028 b 221 974 297 1028 256 1007 b 158 768 175 928 158 864 l 158 592 l 53 592 l 53 507 l 158 507 l 158 83 l 63 83 l 63 0 l 369 0 l 369 83 l 254 83 l 254 507 l 407 507 l 407 592 l 254 592 l 254 790 b 286 914 254 849 265 889 b 332 942 297 929 314 938 b 404 883 343 908 365 883 z "},"g":{"ha":772,"x_min":0,"x_max":0,"o":"m 635 507 l 731 507 l 731 592 l 543 592 l 543 526 b 354 603 496 571 433 603 b 61 299 178 603 61 458 b 342 4 61 126 188 4 b 539 92 432 4 490 42 l 539 -24 b 504 -137 539 -74 526 -110 b 356 -196 469 -181 414 -196 b 239 -172 296 -196 257 -183 b 251 -133 247 -161 251 -147 b 193 -74 251 -100 228 -74 b 124 -146 153 -74 124 -106 b 154 -214 124 -169 133 -193 b 356 -278 190 -249 263 -278 b 581 -192 447 -278 531 -253 b 635 -19 615 -150 635 -93 z m 363 518 b 539 451 439 518 496 489 l 539 174 b 357 88 492 124 432 88 b 161 300 243 88 161 175 b 363 518 161 424 242 518 z "},"h":{"ha":772,"x_min":0,"x_max":0,"o":"m 138 933 l 138 83 l 43 83 l 43 0 l 326 0 l 326 83 l 233 83 l 233 410 b 428 514 286 468 354 514 b 519 476 468 514 500 501 b 546 383 538 456 546 426 l 546 83 l 453 83 l 453 0 l 738 0 l 738 83 l 642 83 l 642 403 b 603 539 642 457 629 504 b 453 603 572 579 522 603 b 233 485 368 603 290 550 l 233 1017 l 43 1017 l 43 933 z "},"i":{"ha":403,"x_min":0,"x_max":0,"o":"m 194 743 b 271 819 235 743 271 778 b 196 897 271 861 236 897 b 118 819 154 897 118 861 b 194 743 118 778 153 743 z m 60 0 l 356 0 l 356 83 l 256 83 l 256 592 l 60 592 l 60 507 l 160 507 l 160 83 l 60 83 z "},"j":{"ha":360,"x_min":0,"x_max":0,"o":"m -72 -187 b 54 -278 -72 -235 -26 -278 b 229 -154 132 -278 196 -240 b 256 14 246 -111 256 -56 l 256 592 l 46 592 l 46 507 l 160 507 l 160 3 b 144 -118 160 -44 154 -86 b 57 -200 129 -171 99 -200 l 49 -200 b 50 -185 49 -194 50 -187 b -10 -122 50 -149 26 -122 b -72 -187 -47 -122 -72 -154 z m 190 743 b 267 819 232 743 267 778 b 192 897 267 861 232 897 b 114 819 150 897 114 861 b 190 743 114 778 149 743 z "},"k":{"ha":728,"x_min":0,"x_max":0,"o":"m 43 0 l 329 0 l 329 82 l 233 82 l 233 206 l 339 294 l 536 0 l 700 0 l 700 83 l 592 83 l 408 347 l 594 507 l 700 507 l 700 592 l 365 592 l 365 511 l 481 511 l 233 297 l 233 1017 l 43 1017 l 43 933 l 138 933 l 138 83 l 43 83 z "},"l":{"ha":386,"x_min":0,"x_max":0,"o":"m 46 0 l 342 0 l 342 83 l 242 83 l 242 1017 l 46 1017 l 46 933 l 146 933 l 146 83 l 46 83 z "},"m":{"ha":1154,"x_min":0,"x_max":0,"o":"m 57 0 l 339 0 l 339 83 l 247 83 l 247 410 b 435 514 301 467 363 514 b 529 460 483 514 514 497 b 540 385 536 440 540 417 l 540 83 l 446 83 l 446 0 l 728 0 l 728 83 l 636 83 l 636 413 b 824 514 693 471 753 514 b 917 460 871 514 901 497 b 928 385 924 440 928 417 l 928 83 l 836 83 l 836 0 l 1118 0 l 1118 83 l 1024 83 l 1024 403 b 1003 517 1024 446 1017 485 b 842 603 976 571 926 603 b 624 486 764 603 688 551 b 606 532 619 503 614 518 b 458 603 579 576 532 603 b 243 482 372 603 294 546 l 243 592 l 57 592 l 57 507 l 151 507 l 151 83 l 57 83 z "},"n":{"ha":782,"x_min":0,"x_max":0,"o":"m 243 592 l 57 592 l 57 507 l 151 507 l 151 83 l 57 83 l 57 0 l 340 0 l 340 83 l 247 83 l 247 410 b 442 514 300 468 368 514 b 540 463 490 514 524 497 b 556 383 551 442 556 415 l 556 83 l 463 83 l 463 0 l 746 0 l 746 83 l 651 83 l 651 403 b 622 526 651 451 642 493 b 465 603 593 574 542 603 b 243 482 381 603 299 547 z "},"o":{"ha":731,"x_min":0,"x_max":0,"o":"m 365 -11 b 669 296 549 -11 669 128 b 365 603 669 464 549 603 b 61 296 182 603 61 463 b 365 -11 61 126 181 -11 z m 365 72 b 161 296 244 72 161 164 b 365 519 161 426 244 519 b 569 296 486 519 569 426 b 365 72 569 164 486 72 z "},"p":{"ha":771,"x_min":0,"x_max":0,"o":"m 43 -272 l 347 -272 l 347 -189 l 233 -189 l 233 57 b 417 -11 282 15 347 -11 b 708 299 593 -11 708 132 b 429 603 708 481 585 603 b 231 507 340 603 281 563 l 231 592 l 43 592 l 43 507 l 138 507 l 138 -189 l 43 -189 z m 411 74 b 233 139 335 74 278 101 l 233 431 b 415 518 282 481 339 518 b 608 297 526 518 610 431 b 411 74 607 168 526 74 z "},"q":{"ha":738,"x_min":0,"x_max":0,"o":"m 428 -272 l 738 -272 l 738 -189 l 642 -189 l 642 592 l 582 592 l 553 529 b 358 603 501 574 433 603 b 61 296 183 603 61 465 b 343 -11 61 113 189 -11 b 546 78 438 -11 496 28 l 546 -189 l 428 -189 z m 360 74 b 161 296 246 74 161 163 b 364 518 161 431 250 518 b 546 453 442 518 500 489 l 546 160 b 360 74 497 110 436 74 z "},"r":{"ha":528,"x_min":0,"x_max":0,"o":"m 424 603 b 243 457 360 603 289 539 l 243 592 l 57 592 l 57 507 l 151 507 l 151 83 l 57 83 l 57 0 l 358 0 l 358 83 l 247 83 l 247 379 b 375 504 276 439 331 492 b 446 454 385 478 410 454 b 513 525 483 454 513 488 b 424 603 513 565 482 603 z "},"s":{"ha":607,"x_min":0,"x_max":0,"o":"m 522 474 b 492 542 522 499 513 521 b 306 603 456 578 385 603 b 81 432 164 603 81 521 b 313 253 81 322 169 289 b 453 157 397 232 453 211 b 308 65 453 100 389 65 b 176 99 244 65 196 83 b 186 135 182 111 186 122 b 122 196 186 171 160 196 b 63 131 88 196 63 165 b 94 57 63 101 74 78 b 308 -11 135 17 222 -11 b 544 167 435 -11 544 54 b 325 344 544 282 444 315 b 174 439 228 369 174 388 b 303 525 174 482 221 525 b 407 504 347 525 386 518 b 400 471 401 493 400 481 b 464 410 400 435 428 410 b 522 474 497 410 522 436 z "},"t":{"ha":463,"x_min":0,"x_max":0,"o":"m 278 -11 b 404 22 332 -11 374 6 l 417 114 b 306 78 383 94 340 78 b 236 108 269 78 247 88 b 226 154 229 121 226 135 l 226 507 l 408 507 l 408 592 l 226 592 l 226 772 l 132 735 l 132 592 l 22 592 l 22 507 l 132 507 l 132 140 b 147 58 132 108 136 81 b 278 -11 171 13 215 -11 z "},"u":{"ha":768,"x_min":0,"x_max":0,"o":"m 317 -11 b 538 110 401 -11 482 44 l 538 0 l 725 0 l 725 83 l 631 83 l 631 592 l 438 592 l 438 507 l 535 507 l 535 182 b 340 78 479 125 414 78 b 243 128 292 78 261 93 b 226 207 232 147 226 174 l 226 592 l 36 592 l 36 507 l 131 507 l 131 189 b 158 68 131 142 140 100 b 317 -11 188 18 239 -11 z "},"v":{"ha":725,"x_min":0,"x_max":0,"o":"m 336 -19 l 389 -19 l 638 507 l 715 507 l 715 592 l 442 592 l 442 510 l 539 510 l 365 119 l 190 510 l 285 510 l 285 592 l 10 592 l 10 507 l 88 507 z "},"w":{"ha":967,"x_min":0,"x_max":0,"o":"m 260 -25 l 311 -25 l 483 378 l 654 -25 l 707 -25 l 868 507 l 957 507 l 957 592 l 683 592 l 683 510 l 783 510 l 676 136 l 513 525 l 461 525 l 296 136 l 189 510 l 283 510 l 283 592 l 10 592 l 10 507 l 97 507 z "},"x":{"ha":699,"x_min":0,"x_max":0,"o":"m 28 0 l 290 0 l 290 78 l 204 78 l 347 257 l 489 78 l 407 78 l 407 0 l 671 0 l 671 83 l 592 83 l 401 303 l 578 507 l 660 507 l 660 592 l 403 592 l 403 513 l 481 513 l 350 347 l 221 513 l 296 513 l 296 592 l 38 592 l 38 507 l 119 507 l 297 300 l 108 83 l 28 83 z "},"y":{"ha":713,"x_min":0,"x_max":0,"o":"m 294 -178 b 343 -93 313 -153 328 -125 l 622 507 l 703 507 l 703 592 l 431 592 l 431 510 l 528 510 l 358 129 b 192 510 360 129 192 510 l 285 510 l 285 592 l 8 592 l 8 507 l 90 507 l 313 33 l 276 -40 b 232 -124 260 -74 246 -103 b 161 -190 206 -164 183 -182 b 99 -139 153 -164 132 -139 b 39 -200 65 -139 39 -161 b 142 -278 39 -246 86 -278 b 294 -178 201 -278 250 -242 z "},"z":{"ha":625,"x_min":0,"x_max":0,"o":"m 51 0 l 575 0 l 575 194 l 490 194 l 490 79 l 190 79 l 569 549 l 569 592 l 75 592 l 75 397 l 160 397 l 160 513 l 431 513 l 51 43 z "},"Á":{"ha":981,"x_min":0,"x_max":0,"o":"m 25 0 l 331 0 l 331 90 l 219 90 l 301 315 l 675 315 l 757 90 l 650 90 l 650 0 l 956 0 l 956 92 l 868 92 l 594 824 l 699 824 l 699 914 l 282 914 l 282 824 l 386 824 l 113 92 l 25 92 z m 332 403 l 489 829 l 644 403 z m 449 996 l 658 1115 b 706 1176 688 1133 706 1157 b 650 1236 706 1214 679 1236 b 590 1204 629 1236 608 1224 l 422 1029 z "},"á":{"ha":683,"x_min":0,"x_max":0,"o":"m 258 -11 b 464 75 339 -11 415 28 l 464 0 l 649 0 l 649 83 l 553 83 l 553 406 b 508 533 553 456 539 500 b 318 603 469 576 406 603 b 99 465 176 603 99 533 b 160 401 99 429 124 401 b 222 463 197 401 222 428 b 214 497 222 475 218 488 b 306 522 233 510 258 522 b 435 475 365 522 408 504 b 461 392 451 454 461 425 l 461 310 b 290 338 431 321 354 338 b 63 158 158 338 63 267 b 258 -11 63 57 144 -11 z m 283 67 b 160 165 203 67 160 108 b 301 271 160 226 207 271 b 461 247 358 271 417 260 l 461 149 b 283 67 415 103 354 67 z m 293 699 l 503 818 b 550 879 532 836 550 860 b 494 939 550 917 524 939 b 435 907 474 939 453 926 l 267 732 z "},"Ă":{"ha":981,"x_min":0,"x_max":0,"o":"m 25 0 l 331 0 l 331 90 l 219 90 l 301 315 l 675 315 l 757 90 l 650 90 l 650 0 l 956 0 l 956 92 l 868 92 l 594 824 l 699 824 l 699 914 l 282 914 l 282 824 l 386 824 l 113 92 l 25 92 z m 332 403 l 489 829 l 644 403 z m 488 1003 b 708 1192 589 1003 674 1075 l 640 1221 b 488 1099 611 1147 554 1099 b 335 1221 426 1099 365 1142 l 267 1192 b 488 1003 303 1075 386 1003 z "},"ă":{"ha":683,"x_min":0,"x_max":0,"o":"m 258 -11 b 464 75 339 -11 415 28 l 464 0 l 649 0 l 649 83 l 553 83 l 553 406 b 508 533 553 456 539 500 b 318 603 469 576 406 603 b 99 465 176 603 99 533 b 160 401 99 429 124 401 b 222 463 197 401 222 428 b 214 497 222 475 218 488 b 306 522 233 510 258 522 b 435 475 365 522 408 504 b 461 392 451 454 461 425 l 461 310 b 290 338 431 321 354 338 b 63 158 158 338 63 267 b 258 -11 63 57 144 -11 z m 283 67 b 160 165 203 67 160 108 b 301 271 160 226 207 271 b 461 247 358 271 417 260 l 461 149 b 283 67 415 103 354 67 z m 332 706 b 553 894 433 706 518 778 l 485 924 b 332 801 456 850 399 801 b 179 924 271 801 210 844 l 111 894 b 332 706 147 778 231 706 z "},"Â":{"ha":981,"x_min":0,"x_max":0,"o":"m 25 0 l 331 0 l 331 90 l 219 90 l 301 315 l 675 315 l 757 90 l 650 90 l 650 0 l 956 0 l 956 92 l 868 92 l 594 824 l 699 824 l 699 914 l 282 914 l 282 824 l 386 824 l 113 92 l 25 92 z m 332 403 l 489 829 l 644 403 z m 318 992 l 489 1121 l 660 992 l 703 1043 l 489 1247 l 275 1043 z "},"â":{"ha":683,"x_min":0,"x_max":0,"o":"m 258 -11 b 464 75 339 -11 415 28 l 464 0 l 649 0 l 649 83 l 553 83 l 553 406 b 508 533 553 456 539 500 b 318 603 469 576 406 603 b 99 465 176 603 99 533 b 160 401 99 429 124 401 b 222 463 197 401 222 428 b 214 497 222 475 218 488 b 306 522 233 510 258 522 b 435 475 365 522 408 504 b 461 392 451 454 461 425 l 461 310 b 290 338 431 321 354 338 b 63 158 158 338 63 267 b 258 -11 63 57 144 -11 z m 283 67 b 160 165 203 67 160 108 b 301 271 160 226 207 271 b 461 247 358 271 417 260 l 461 149 b 283 67 415 103 354 67 z m 163 694 l 333 824 l 504 694 l 547 746 l 333 950 l 119 746 z "},"Ä":{"ha":981,"x_min":0,"x_max":0,"o":"m 25 0 l 331 0 l 331 90 l 219 90 l 301 315 l 675 315 l 757 90 l 650 90 l 650 0 l 956 0 l 956 92 l 868 92 l 594 824 l 699 824 l 699 914 l 282 914 l 282 824 l 386 824 l 113 92 l 25 92 z m 332 403 l 489 829 l 644 403 z m 610 1018 b 688 1097 653 1018 688 1054 b 610 1178 688 1142 654 1178 b 531 1097 567 1178 531 1142 b 610 1018 531 1054 565 1018 z m 367 1018 b 446 1097 411 1018 446 1054 b 368 1178 446 1142 411 1178 b 289 1097 325 1178 289 1142 b 367 1018 289 1054 324 1018 z "},"ä":{"ha":683,"x_min":0,"x_max":0,"o":"m 258 -11 b 464 75 339 -11 415 28 l 464 0 l 649 0 l 649 83 l 553 83 l 553 406 b 508 533 553 456 539 500 b 318 603 469 576 406 603 b 99 465 176 603 99 533 b 160 401 99 429 124 401 b 222 463 197 401 222 428 b 214 497 222 475 218 488 b 306 522 233 510 258 522 b 435 475 365 522 408 504 b 461 392 451 454 461 425 l 461 310 b 290 338 431 321 354 338 b 63 158 158 338 63 267 b 258 -11 63 57 144 -11 z m 283 67 b 160 165 203 67 160 108 b 301 271 160 226 207 271 b 461 247 358 271 417 260 l 461 149 b 283 67 415 103 354 67 z m 454 721 b 532 800 497 721 532 757 b 454 881 532 844 499 881 b 375 800 411 881 375 844 b 454 721 375 757 410 721 z m 211 721 b 290 800 256 721 290 757 b 213 881 290 844 256 881 b 133 800 169 881 133 844 b 211 721 133 757 168 721 z "},"Æ":{"ha":1232,"x_min":0,"x_max":0,"o":"m -7 0 l 303 0 l 303 90 l 204 90 l 315 315 l 597 315 l 597 92 l 490 92 l 490 0 l 1146 0 l 1146 224 l 1046 224 l 1046 90 l 701 90 l 701 421 l 1000 421 l 1000 510 l 701 510 l 701 824 l 1046 824 l 1046 690 l 1144 690 l 1144 914 l 364 914 l 364 822 l 465 822 l 103 92 l -7 92 z m 357 403 l 564 824 l 597 824 l 597 403 z "},"æ":{"ha":1058,"x_min":0,"x_max":0,"o":"m 306 521 b 433 471 363 521 407 503 b 461 386 450 451 461 421 l 461 310 b 290 338 431 321 354 338 b 63 158 158 338 63 267 b 263 -11 63 57 144 -11 b 513 106 339 -11 435 25 b 763 -11 564 32 649 -11 b 971 46 833 -11 910 8 l 979 139 b 772 74 910 99 850 74 b 544 268 642 74 558 135 l 1000 268 b 1004 324 1003 283 1004 301 b 738 603 1004 471 910 603 b 518 488 640 603 565 557 b 493 532 513 503 503 518 b 318 603 457 576 399 603 b 99 465 176 603 99 533 b 160 401 99 429 124 401 b 222 463 197 401 222 428 b 214 497 222 475 218 488 b 306 521 233 510 258 521 z m 285 67 b 160 165 203 67 160 108 b 301 271 160 226 207 271 b 461 247 351 271 404 263 b 485 156 465 214 472 183 b 285 67 414 92 350 67 z m 728 521 b 908 344 840 521 901 449 l 546 344 b 728 521 560 457 639 521 z "},"Ǽ":{"ha":1232,"x_min":0,"x_max":0,"o":"m 642 996 l 851 1115 b 899 1176 881 1133 899 1157 b 843 1236 899 1214 872 1236 b 783 1204 822 1236 801 1224 l 615 1029 z m -7 0 l 303 0 l 303 90 l 204 90 l 315 315 l 597 315 l 597 92 l 490 92 l 490 0 l 1146 0 l 1146 224 l 1046 224 l 1046 90 l 701 90 l 701 421 l 1000 421 l 1000 510 l 701 510 l 701 824 l 1046 824 l 1046 690 l 1144 690 l 1144 914 l 364 914 l 364 822 l 465 822 l 103 92 l -7 92 z m 357 403 l 564 824 l 597 824 l 597 403 z "},"ǽ":{"ha":1058,"x_min":0,"x_max":0,"o":"m 306 521 b 433 471 363 521 407 503 b 461 386 450 451 461 421 l 461 310 b 290 338 431 321 354 338 b 63 158 158 338 63 267 b 263 -11 63 57 144 -11 b 513 106 339 -11 435 25 b 763 -11 564 32 649 -11 b 971 46 833 -11 910 8 l 979 139 b 772 74 910 99 850 74 b 544 268 642 74 558 135 l 1000 268 b 1004 324 1003 283 1004 301 b 738 603 1004 471 910 603 b 518 488 640 603 565 557 b 493 532 513 503 503 518 b 318 603 457 576 399 603 b 99 465 176 603 99 533 b 160 401 99 429 124 401 b 222 463 197 401 222 428 b 214 497 222 475 218 488 b 306 521 233 510 258 521 z m 285 67 b 160 165 203 67 160 108 b 301 271 160 226 207 271 b 461 247 351 271 404 263 b 485 156 465 214 472 183 b 285 67 414 92 350 67 z m 728 521 b 908 344 840 521 901 449 l 546 344 b 728 521 560 457 639 521 z m 492 699 l 701 818 b 749 879 731 836 749 860 b 693 939 749 917 722 939 b 633 907 672 939 651 926 l 465 732 z "},"À":{"ha":981,"x_min":0,"x_max":0,"o":"m 25 0 l 331 0 l 331 90 l 219 90 l 301 315 l 675 315 l 757 90 l 650 90 l 650 0 l 956 0 l 956 92 l 868 92 l 594 824 l 699 824 l 699 914 l 282 914 l 282 824 l 386 824 l 113 92 l 25 92 z m 332 403 l 489 829 l 644 403 z m 529 996 l 554 1029 l 388 1204 b 328 1236 368 1224 349 1236 b 272 1176 299 1236 272 1214 b 319 1115 272 1157 290 1133 z "},"à":{"ha":683,"x_min":0,"x_max":0,"o":"m 258 -11 b 464 75 339 -11 415 28 l 464 0 l 649 0 l 649 83 l 553 83 l 553 406 b 508 533 553 456 539 500 b 318 603 469 576 406 603 b 99 465 176 603 99 533 b 160 401 99 429 124 401 b 222 463 197 401 222 428 b 214 497 222 475 218 488 b 306 522 233 510 258 522 b 435 475 365 522 408 504 b 461 392 451 454 461 425 l 461 310 b 290 338 431 321 354 338 b 63 158 158 338 63 267 b 258 -11 63 57 144 -11 z m 283 67 b 160 165 203 67 160 108 b 301 271 160 226 207 271 b 461 247 358 271 417 260 l 461 149 b 283 67 415 103 354 67 z m 374 699 l 399 732 l 232 907 b 172 939 213 926 193 939 b 117 879 143 939 117 917 b 164 818 117 860 135 836 z "},"Ā":{"ha":981,"x_min":0,"x_max":0,"o":"m 25 0 l 331 0 l 331 90 l 219 90 l 301 315 l 675 315 l 757 90 l 650 90 l 650 0 l 956 0 l 956 92 l 868 92 l 594 824 l 699 824 l 699 914 l 282 914 l 282 824 l 386 824 l 113 92 l 25 92 z m 332 403 l 489 829 l 644 403 z m 278 1040 l 700 1040 l 700 1128 l 278 1128 z "},"ā":{"ha":683,"x_min":0,"x_max":0,"o":"m 258 -11 b 464 75 339 -11 415 28 l 464 0 l 649 0 l 649 83 l 553 83 l 553 406 b 508 533 553 456 539 500 b 318 603 469 576 406 603 b 99 465 176 603 99 533 b 160 401 99 429 124 401 b 222 463 197 401 222 428 b 214 497 222 475 218 488 b 306 522 233 510 258 522 b 435 475 365 522 408 504 b 461 392 451 454 461 425 l 461 310 b 290 338 431 321 354 338 b 63 158 158 338 63 267 b 258 -11 63 57 144 -11 z m 283 67 b 160 165 203 67 160 108 b 301 271 160 226 207 271 b 461 247 358 271 417 260 l 461 149 b 283 67 415 103 354 67 z m 122 743 l 544 743 l 544 831 l 122 831 z "},"Ą":{"ha":981,"x_min":0,"x_max":0,"o":"m 811 -279 b 931 -247 863 -279 910 -262 l 936 -174 b 828 -200 906 -189 869 -200 b 751 -128 776 -200 751 -172 b 851 0 751 -76 792 -32 l 956 0 l 956 92 l 868 92 l 594 824 l 699 824 l 699 914 l 282 914 l 282 824 l 386 824 l 113 92 l 25 92 l 25 0 l 331 0 l 331 90 l 219 90 l 301 315 l 675 315 l 757 90 l 650 90 l 650 0 l 753 0 b 664 -150 700 -37 664 -87 b 811 -279 664 -226 714 -279 z m 332 403 l 489 829 l 644 403 z "},"ą":{"ha":683,"x_min":0,"x_max":0,"o":"m 518 -279 b 638 -247 569 -279 617 -262 l 643 -174 b 535 -200 613 -189 576 -200 b 458 -128 483 -200 458 -172 b 558 0 458 -76 499 -32 l 649 0 l 649 83 l 553 83 l 553 406 b 508 533 553 456 539 500 b 318 603 469 576 406 603 b 99 465 176 603 99 533 b 160 401 99 429 124 401 b 222 463 197 401 222 428 b 214 497 222 475 218 488 b 306 522 233 510 258 522 b 435 475 365 522 408 504 b 461 392 451 454 461 425 l 461 310 b 290 338 431 321 354 338 b 63 158 158 338 63 267 b 258 -11 63 57 144 -11 b 464 75 339 -11 415 28 l 464 3 b 371 -150 410 -35 371 -86 b 518 -279 371 -226 421 -279 z m 283 67 b 160 165 203 67 160 108 b 301 271 160 226 207 271 b 461 247 358 271 417 260 l 461 149 b 283 67 415 103 354 67 z "},"Å":{"ha":981,"x_min":0,"x_max":0,"o":"m 642 1018 b 489 1164 642 1097 574 1164 b 336 1018 404 1164 336 1097 b 383 914 336 979 354 942 l 282 914 l 282 824 l 386 824 l 113 92 l 25 92 l 25 0 l 331 0 l 331 90 l 219 90 l 301 315 l 675 315 l 757 90 l 650 90 l 650 0 l 956 0 l 956 92 l 868 92 l 594 824 l 699 824 l 699 914 l 594 914 b 642 1018 625 942 642 979 z m 332 403 l 489 829 l 644 403 z m 489 926 b 413 1010 444 926 413 964 b 489 1094 413 1057 444 1094 b 567 1010 535 1094 567 1057 b 489 926 567 964 535 926 z "},"å":{"ha":683,"x_min":0,"x_max":0,"o":"m 258 -11 b 464 75 339 -11 415 28 l 464 0 l 649 0 l 649 83 l 553 83 l 553 406 b 508 533 553 456 539 500 b 318 603 469 576 406 603 b 99 465 176 603 99 533 b 160 401 99 429 124 401 b 222 463 197 401 222 428 b 214 497 222 475 218 488 b 306 522 233 510 258 522 b 435 475 365 522 408 504 b 461 392 451 454 461 425 l 461 310 b 290 338 431 321 354 338 b 63 158 158 338 63 267 b 258 -11 63 57 144 -11 z m 283 67 b 160 165 203 67 160 108 b 301 271 160 226 207 271 b 461 247 358 271 417 260 l 461 149 b 283 67 415 103 354 67 z m 332 686 b 485 840 418 686 485 754 b 332 994 485 926 418 994 b 181 840 247 994 181 926 b 332 686 181 754 247 686 z m 332 757 b 256 840 288 757 256 794 b 332 924 256 886 288 924 b 410 840 378 924 410 886 b 332 757 410 794 378 757 z "},"Ǻ":{"ha":981,"x_min":0,"x_max":0,"o":"m 451 1221 l 661 1340 b 708 1401 690 1358 708 1382 b 653 1461 708 1439 682 1461 b 593 1429 632 1461 611 1449 l 425 1254 z m 642 1018 b 489 1164 642 1097 574 1164 b 336 1018 404 1164 336 1097 b 383 914 336 979 354 942 l 282 914 l 282 824 l 386 824 l 113 92 l 25 92 l 25 0 l 331 0 l 331 90 l 219 90 l 301 315 l 675 315 l 757 90 l 650 90 l 650 0 l 956 0 l 956 92 l 868 92 l 594 824 l 699 824 l 699 914 l 594 914 b 642 1018 625 942 642 979 z m 332 403 l 489 829 l 644 403 z m 489 926 b 413 1010 444 926 413 964 b 489 1094 413 1057 444 1094 b 567 1010 535 1094 567 1057 b 489 926 567 964 535 926 z "},"ǻ":{"ha":683,"x_min":0,"x_max":0,"o":"m 258 -11 b 464 75 339 -11 415 28 l 464 0 l 649 0 l 649 83 l 553 83 l 553 406 b 508 533 553 456 539 500 b 318 603 469 576 406 603 b 99 465 176 603 99 533 b 160 401 99 429 124 401 b 222 463 197 401 222 428 b 214 497 222 475 218 488 b 306 522 233 510 258 522 b 435 475 365 522 408 504 b 461 392 451 454 461 425 l 461 310 b 290 338 431 321 354 338 b 63 158 158 338 63 267 b 258 -11 63 57 144 -11 z m 283 67 b 160 165 203 67 160 108 b 301 271 160 226 207 271 b 461 247 358 271 417 260 l 461 149 b 283 67 415 103 354 67 z m 304 1061 l 514 1181 b 561 1242 543 1199 561 1222 b 506 1301 561 1279 535 1301 b 446 1269 485 1301 464 1289 l 278 1094 z m 342 686 b 494 840 428 686 494 754 b 342 994 494 926 428 994 b 190 840 257 994 190 926 b 342 686 190 754 257 686 z m 342 757 b 265 840 297 757 265 794 b 342 924 265 886 297 924 b 419 840 388 924 419 886 b 342 757 419 794 388 757 z "},"Ã":{"ha":981,"x_min":0,"x_max":0,"o":"m 25 0 l 331 0 l 331 90 l 219 90 l 301 315 l 675 315 l 757 90 l 650 90 l 650 0 l 956 0 l 956 92 l 868 92 l 594 824 l 699 824 l 699 914 l 282 914 l 282 824 l 386 824 l 113 92 l 25 92 z m 332 403 l 489 829 l 644 403 z m 592 1004 b 725 1168 657 1004 718 1072 l 650 1185 b 586 1101 640 1132 618 1101 b 515 1139 565 1101 547 1113 b 392 1193 482 1167 446 1193 b 260 1029 328 1193 267 1125 l 335 1013 b 399 1096 343 1064 365 1096 b 469 1057 418 1096 436 1085 b 592 1004 501 1029 538 1004 z "},"ã":{"ha":683,"x_min":0,"x_max":0,"o":"m 258 -11 b 464 75 339 -11 415 28 l 464 0 l 649 0 l 649 83 l 553 83 l 553 406 b 508 533 553 456 539 500 b 318 603 469 576 406 603 b 99 465 176 603 99 533 b 160 401 99 429 124 401 b 222 463 197 401 222 428 b 214 497 222 475 218 488 b 306 522 233 510 258 522 b 435 475 365 522 408 504 b 461 392 451 454 461 425 l 461 310 b 290 338 431 321 354 338 b 63 158 158 338 63 267 b 258 -11 63 57 144 -11 z m 283 67 b 160 165 203 67 160 108 b 301 271 160 226 207 271 b 461 247 358 271 417 260 l 461 149 b 283 67 415 103 354 67 z m 436 707 b 569 871 501 707 563 775 l 494 888 b 431 804 485 835 463 804 b 360 842 410 804 392 815 b 236 896 326 869 290 896 b 104 732 172 896 111 828 l 179 715 b 243 799 188 767 210 799 b 314 760 263 799 281 788 b 436 707 346 732 382 707 z "},"Ć":{"ha":975,"x_min":0,"x_max":0,"o":"m 501 996 l 711 1115 b 758 1176 740 1133 758 1157 b 703 1236 758 1214 732 1236 b 643 1204 682 1236 661 1224 l 475 1029 z m 546 -17 b 890 122 672 -17 799 31 l 829 196 b 546 78 747 119 656 78 b 183 454 331 78 183 258 b 540 836 183 660 332 836 b 761 744 657 836 736 785 b 726 689 743 738 726 715 b 803 615 726 647 760 615 b 883 706 849 615 883 654 b 542 931 883 815 733 931 b 78 453 294 931 78 735 b 546 -17 78 201 264 -17 z "},"ć":{"ha":657,"x_min":0,"x_max":0,"o":"m 308 699 l 518 818 b 565 879 547 836 565 860 b 510 939 565 917 539 939 b 450 907 489 939 468 926 l 282 732 z m 372 -11 b 572 46 436 -11 513 6 l 581 139 b 383 74 511 94 450 74 b 157 293 249 74 157 164 b 353 521 157 444 265 521 b 486 458 413 521 471 494 b 457 410 468 447 457 429 b 521 344 457 368 489 344 b 596 425 564 344 596 381 b 354 603 596 514 489 603 b 58 294 189 603 58 458 b 372 -11 58 119 193 -11 z "},"Č":{"ha":975,"x_min":0,"x_max":0,"o":"m 713 1249 l 542 1119 l 371 1249 l 328 1197 l 542 993 l 756 1197 z m 546 -17 b 890 122 672 -17 799 31 l 829 196 b 546 78 747 119 656 78 b 183 454 331 78 183 258 b 540 836 183 660 332 836 b 761 744 657 836 736 785 b 726 689 743 738 726 715 b 803 615 726 647 760 615 b 883 706 849 615 883 654 b 542 931 883 815 733 931 b 78 453 294 931 78 735 b 546 -17 78 201 264 -17 z "},"č":{"ha":657,"x_min":0,"x_max":0,"o":"m 519 951 l 349 822 l 178 951 l 135 900 l 349 696 l 563 900 z m 372 -11 b 572 46 436 -11 513 6 l 581 139 b 383 74 511 94 450 74 b 157 293 249 74 157 164 b 353 521 157 444 265 521 b 486 458 413 521 471 494 b 457 410 468 447 457 429 b 521 344 457 368 489 344 b 596 425 564 344 596 381 b 354 603 596 514 489 603 b 58 294 189 603 58 458 b 372 -11 58 119 193 -11 z "},"Ç":{"ha":975,"x_min":0,"x_max":0,"o":"m 535 -276 b 671 -172 624 -276 671 -228 b 540 -67 671 -115 626 -71 l 542 -17 l 546 -17 b 890 122 672 -17 799 31 l 829 196 b 546 78 747 119 656 78 b 183 454 331 78 183 258 b 540 836 183 660 332 836 b 761 744 657 836 736 785 b 726 689 743 738 726 715 b 803 615 726 647 760 615 b 883 706 849 615 883 654 b 542 931 883 815 733 931 b 78 453 294 931 78 735 b 489 -14 78 218 239 13 l 456 -117 l 482 -139 b 507 -136 485 -139 500 -136 b 581 -179 558 -136 581 -154 b 522 -219 581 -204 557 -219 b 400 -193 488 -219 436 -208 l 379 -237 b 535 -276 425 -261 482 -276 z "},"ç":{"ha":694,"x_min":0,"x_max":0,"o":"m 361 -276 b 497 -172 450 -276 497 -228 b 367 -67 497 -115 453 -71 l 369 -11 l 372 -11 b 572 46 436 -11 513 6 l 581 139 b 383 74 511 94 450 74 b 157 293 249 74 157 164 b 353 521 157 444 265 521 b 486 458 413 521 471 494 b 457 410 468 447 457 429 b 521 344 457 368 489 344 b 596 425 564 344 596 381 b 354 603 596 514 489 603 b 58 294 189 603 58 458 b 317 -6 58 138 167 17 l 282 -117 l 308 -139 b 333 -136 311 -139 326 -136 b 407 -179 385 -136 407 -154 b 349 -219 407 -204 383 -219 b 226 -193 314 -219 263 -208 l 206 -237 b 361 -276 251 -261 308 -276 z "},"Ċ":{"ha":975,"x_min":0,"x_max":0,"o":"m 546 -17 b 890 122 672 -17 799 31 l 829 196 b 546 78 747 119 656 78 b 183 454 331 78 183 258 b 540 836 183 660 332 836 b 761 744 657 836 736 785 b 726 689 743 738 726 715 b 803 615 726 647 760 615 b 883 706 849 615 883 654 b 542 931 883 815 733 931 b 78 453 294 931 78 735 b 546 -17 78 201 264 -17 z m 542 1011 b 622 1093 586 1011 622 1049 b 543 1175 622 1139 588 1175 b 463 1093 499 1175 463 1139 b 542 1011 463 1049 497 1011 z "},"ċ":{"ha":657,"x_min":0,"x_max":0,"o":"m 372 -11 b 572 46 436 -11 513 6 l 581 139 b 383 74 511 94 450 74 b 157 293 249 74 157 164 b 353 521 157 444 265 521 b 486 458 413 521 471 494 b 457 410 468 447 457 429 b 521 344 457 368 489 344 b 596 425 564 344 596 381 b 354 603 596 514 489 603 b 58 294 189 603 58 458 b 372 -11 58 119 193 -11 z m 349 714 b 429 796 393 714 429 751 b 350 878 429 842 394 878 b 269 796 306 878 269 842 b 349 714 269 751 304 714 z "},"Ď":{"ha":1011,"x_min":0,"x_max":0,"o":"m 643 1249 l 472 1119 l 301 1249 l 258 1197 l 472 993 l 686 1197 z m 65 0 l 404 0 b 933 467 740 0 933 190 b 408 914 933 738 726 914 l 65 914 l 65 822 l 182 822 l 182 92 l 65 92 z m 286 92 l 286 822 l 406 822 b 828 468 664 822 828 688 b 417 92 828 244 690 92 z "},"ď":{"ha":764,"x_min":0,"x_max":0,"o":"m 713 704 b 840 961 782 776 840 872 b 781 1031 840 1004 819 1031 b 718 967 739 1031 718 1001 b 731 872 718 931 731 913 b 681 729 731 825 715 781 z m 342 -11 b 540 83 429 -11 490 28 l 540 0 l 729 0 l 729 83 l 633 83 l 633 1017 l 426 1017 l 426 933 l 538 933 l 538 532 b 354 603 492 575 428 603 b 61 292 176 603 61 460 b 342 -11 61 111 185 -11 z m 356 72 b 161 293 243 72 160 161 b 360 519 161 424 243 519 b 538 451 438 519 493 489 l 538 161 b 356 72 490 111 432 72 z "},"Đ":{"ha":1019,"x_min":0,"x_max":0,"o":"m 192 425 l 192 92 l 75 92 l 75 0 l 418 0 b 942 467 749 0 942 190 b 417 914 942 736 733 914 l 75 914 l 75 822 l 192 822 l 192 511 l 90 511 l 90 425 z m 294 92 l 294 425 l 503 425 l 503 511 l 294 511 l 294 822 l 414 822 b 836 468 672 822 836 688 b 425 92 836 244 699 92 z "},"đ":{"ha":764,"x_min":0,"x_max":0,"o":"m 324 724 l 538 724 l 538 532 b 354 603 492 575 428 603 b 61 292 176 603 61 460 b 342 -11 61 111 185 -11 b 540 83 429 -11 490 28 l 540 0 l 729 0 l 729 83 l 633 83 l 633 724 l 729 724 l 729 803 l 633 803 l 633 1017 l 426 1017 l 426 933 l 538 933 l 538 803 l 324 803 z m 356 72 b 161 293 243 72 160 161 b 360 519 161 424 243 519 b 538 451 438 519 493 489 l 538 161 b 356 72 490 111 432 72 z "},"É":{"ha":817,"x_min":0,"x_max":0,"o":"m 361 996 l 571 1115 b 618 1176 600 1133 618 1157 b 563 1236 618 1214 592 1236 b 503 1204 542 1236 521 1224 l 335 1029 z m 65 0 l 731 0 l 731 224 l 631 224 l 631 90 l 286 90 l 286 421 l 585 421 l 585 510 l 286 510 l 286 824 l 631 824 l 631 690 l 729 690 l 729 914 l 65 914 l 65 822 l 182 822 l 182 92 l 65 92 z "},"é":{"ha":674,"x_min":0,"x_max":0,"o":"m 613 268 b 618 324 617 283 618 301 b 347 603 618 471 524 603 b 57 294 167 603 57 458 b 372 -11 57 114 183 -11 b 585 46 447 -11 524 8 l 593 139 b 385 74 524 99 464 74 b 157 268 257 74 171 138 z m 342 521 b 521 344 454 521 514 449 l 158 344 b 342 521 172 457 251 521 z m 300 699 l 510 818 b 557 879 539 836 557 860 b 501 939 557 917 531 939 b 442 907 481 939 460 926 l 274 732 z "},"Ĕ":{"ha":817,"x_min":0,"x_max":0,"o":"m 65 0 l 731 0 l 731 224 l 631 224 l 631 90 l 286 90 l 286 421 l 585 421 l 585 510 l 286 510 l 286 824 l 631 824 l 631 690 l 729 690 l 729 914 l 65 914 l 65 822 l 182 822 l 182 92 l 65 92 z m 400 1003 b 621 1192 501 1003 586 1075 l 553 1221 b 400 1099 524 1147 467 1099 b 247 1221 339 1099 278 1142 l 179 1192 b 400 1003 215 1075 299 1003 z "},"ĕ":{"ha":674,"x_min":0,"x_max":0,"o":"m 613 268 b 618 324 617 283 618 301 b 347 603 618 471 524 603 b 57 294 167 603 57 458 b 372 -11 57 114 183 -11 b 585 46 447 -11 524 8 l 593 139 b 385 74 524 99 464 74 b 157 268 257 74 171 138 z m 342 521 b 521 344 454 521 514 449 l 158 344 b 342 521 172 457 251 521 z m 339 706 b 560 894 440 706 525 778 l 492 924 b 339 801 463 850 406 801 b 186 924 278 801 217 844 l 118 894 b 339 706 154 778 238 706 z "},"Ě":{"ha":817,"x_min":0,"x_max":0,"o":"m 571 1249 l 400 1119 l 229 1249 l 186 1197 l 400 993 l 614 1197 z m 65 0 l 731 0 l 731 224 l 631 224 l 631 90 l 286 90 l 286 421 l 585 421 l 585 510 l 286 510 l 286 824 l 631 824 l 631 690 l 729 690 l 729 914 l 65 914 l 65 822 l 182 822 l 182 92 l 65 92 z "},"ě":{"ha":674,"x_min":0,"x_max":0,"o":"m 613 268 b 618 324 617 283 618 301 b 347 603 618 471 524 603 b 57 294 167 603 57 458 b 372 -11 57 114 183 -11 b 585 46 447 -11 524 8 l 593 139 b 385 74 524 99 464 74 b 157 268 257 74 171 138 z m 342 521 b 521 344 454 521 514 449 l 158 344 b 342 521 172 457 251 521 z m 510 951 l 339 822 l 168 951 l 125 900 l 339 696 l 553 900 z "},"Ê":{"ha":817,"x_min":0,"x_max":0,"o":"m 231 992 l 401 1121 l 572 992 l 615 1043 l 401 1247 l 188 1043 z m 65 0 l 731 0 l 731 224 l 631 224 l 631 90 l 286 90 l 286 421 l 585 421 l 585 510 l 286 510 l 286 824 l 631 824 l 631 690 l 729 690 l 729 914 l 65 914 l 65 822 l 182 822 l 182 92 l 65 92 z "},"ê":{"ha":674,"x_min":0,"x_max":0,"o":"m 613 268 b 618 324 617 283 618 301 b 347 603 618 471 524 603 b 57 294 167 603 57 458 b 372 -11 57 114 183 -11 b 585 46 447 -11 524 8 l 593 139 b 385 74 524 99 464 74 b 157 268 257 74 171 138 z m 342 521 b 521 344 454 521 514 449 l 158 344 b 342 521 172 457 251 521 z m 169 694 l 340 824 l 511 694 l 554 746 l 340 950 l 126 746 z "},"Ë":{"ha":817,"x_min":0,"x_max":0,"o":"m 522 1018 b 600 1097 565 1018 600 1054 b 522 1178 600 1142 567 1178 b 443 1097 479 1178 443 1142 b 522 1018 443 1054 478 1018 z m 279 1018 b 358 1097 324 1018 358 1054 b 281 1178 358 1142 324 1178 b 201 1097 238 1178 201 1142 b 279 1018 201 1054 236 1018 z m 65 0 l 731 0 l 731 224 l 631 224 l 631 90 l 286 90 l 286 421 l 585 421 l 585 510 l 286 510 l 286 824 l 631 824 l 631 690 l 729 690 l 729 914 l 65 914 l 65 822 l 182 822 l 182 92 l 65 92 z "},"ë":{"ha":674,"x_min":0,"x_max":0,"o":"m 613 268 b 618 324 617 283 618 301 b 347 603 618 471 524 603 b 57 294 167 603 57 458 b 372 -11 57 114 183 -11 b 585 46 447 -11 524 8 l 593 139 b 385 74 524 99 464 74 b 157 268 257 74 171 138 z m 342 521 b 521 344 454 521 514 449 l 158 344 b 342 521 172 457 251 521 z m 461 721 b 539 800 504 721 539 757 b 461 881 539 844 506 881 b 382 800 418 881 382 844 b 461 721 382 757 417 721 z m 218 721 b 297 800 263 721 297 757 b 219 881 297 844 263 881 b 140 800 176 881 140 844 b 218 721 140 757 175 721 z "},"Ė":{"ha":817,"x_min":0,"x_max":0,"o":"m 65 0 l 731 0 l 731 224 l 631 224 l 631 90 l 286 90 l 286 421 l 585 421 l 585 510 l 286 510 l 286 824 l 631 824 l 631 690 l 729 690 l 729 914 l 65 914 l 65 822 l 182 822 l 182 92 l 65 92 z m 400 1011 b 481 1093 444 1011 481 1049 b 401 1175 481 1139 446 1175 b 321 1093 357 1175 321 1139 b 400 1011 321 1049 356 1011 z "},"ė":{"ha":674,"x_min":0,"x_max":0,"o":"m 613 268 b 618 324 617 283 618 301 b 347 603 618 471 524 603 b 57 294 167 603 57 458 b 372 -11 57 114 183 -11 b 585 46 447 -11 524 8 l 593 139 b 385 74 524 99 464 74 b 157 268 257 74 171 138 z m 342 521 b 521 344 454 521 514 449 l 158 344 b 342 521 172 457 251 521 z m 339 714 b 419 796 383 714 419 751 b 340 878 419 842 385 878 b 260 796 296 878 260 842 b 339 714 260 751 294 714 z "},"È":{"ha":817,"x_min":0,"x_max":0,"o":"m 65 0 l 731 0 l 731 224 l 631 224 l 631 90 l 286 90 l 286 421 l 585 421 l 585 510 l 286 510 l 286 824 l 631 824 l 631 690 l 729 690 l 729 914 l 65 914 l 65 822 l 182 822 l 182 92 l 65 92 z m 442 996 l 467 1029 l 300 1204 b 240 1236 281 1224 261 1236 b 185 1176 211 1236 185 1214 b 232 1115 185 1157 203 1133 z "},"è":{"ha":674,"x_min":0,"x_max":0,"o":"m 613 268 b 618 324 617 283 618 301 b 347 603 618 471 524 603 b 57 294 167 603 57 458 b 372 -11 57 114 183 -11 b 585 46 447 -11 524 8 l 593 139 b 385 74 524 99 464 74 b 157 268 257 74 171 138 z m 342 521 b 521 344 454 521 514 449 l 158 344 b 342 521 172 457 251 521 z m 381 699 l 406 732 l 239 907 b 179 939 219 926 200 939 b 124 879 150 939 124 917 b 171 818 124 860 142 836 z "},"Ē":{"ha":817,"x_min":0,"x_max":0,"o":"m 65 0 l 731 0 l 731 224 l 631 224 l 631 90 l 286 90 l 286 421 l 585 421 l 585 510 l 286 510 l 286 824 l 631 824 l 631 690 l 729 690 l 729 914 l 65 914 l 65 822 l 182 822 l 182 92 l 65 92 z m 190 1040 l 613 1040 l 613 1128 l 190 1128 z "},"ē":{"ha":674,"x_min":0,"x_max":0,"o":"m 613 268 b 618 324 617 283 618 301 b 347 603 618 471 524 603 b 57 294 167 603 57 458 b 372 -11 57 114 183 -11 b 585 46 447 -11 524 8 l 593 139 b 385 74 524 99 464 74 b 157 268 257 74 171 138 z m 342 521 b 521 344 454 521 514 449 l 158 344 b 342 521 172 457 251 521 z m 129 743 l 551 743 l 551 831 l 129 831 z "},"Ę":{"ha":817,"x_min":0,"x_max":0,"o":"m 65 0 l 546 0 b 457 -150 493 -37 457 -87 b 604 -279 457 -226 507 -279 b 724 -247 656 -279 703 -262 l 729 -174 b 621 -200 699 -189 663 -200 b 544 -128 569 -200 544 -172 b 644 0 544 -76 585 -32 l 731 0 l 731 224 l 631 224 l 631 90 l 286 90 l 286 421 l 585 421 l 585 510 l 286 510 l 286 824 l 631 824 l 631 690 l 729 690 l 729 914 l 65 914 l 65 822 l 182 822 l 182 92 l 65 92 z "},"ę":{"ha":674,"x_min":0,"x_max":0,"o":"m 613 268 b 618 324 617 283 618 301 b 347 603 618 471 524 603 b 57 294 167 603 57 458 b 372 -11 57 114 183 -11 l 375 -11 b 303 -150 331 -46 303 -92 b 450 -279 303 -226 353 -279 b 571 -247 501 -279 549 -262 l 575 -174 b 468 -200 544 -189 508 -200 b 390 -129 415 -200 390 -172 b 585 46 390 -49 494 0 l 593 139 b 385 74 524 99 464 74 b 157 268 257 74 171 138 z m 342 521 b 521 344 454 521 514 449 l 158 344 b 342 521 172 457 251 521 z "},"Ð":{"ha":1019,"x_min":0,"x_max":0,"o":"m 192 425 l 192 92 l 75 92 l 75 0 l 418 0 b 942 467 749 0 942 190 b 417 914 942 736 733 914 l 75 914 l 75 822 l 192 822 l 192 511 l 90 511 l 90 425 z m 294 92 l 294 425 l 503 425 l 503 511 l 294 511 l 294 822 l 414 822 b 836 468 672 822 836 688 b 425 92 836 244 699 92 z "},"ð":{"ha":733,"x_min":0,"x_max":0,"o":"m 265 643 l 426 788 b 578 467 500 703 563 590 b 365 574 532 531 449 574 b 61 281 185 574 61 443 b 367 -11 61 119 185 -11 b 574 65 450 -11 521 15 b 672 346 636 126 672 222 b 490 839 672 550 593 721 l 624 957 l 571 1018 l 435 899 b 288 999 386 943 335 978 b 175 1026 247 1018 208 1026 b 82 951 121 1026 82 993 b 147 881 82 908 113 881 b 213 938 185 881 208 908 b 369 846 257 928 315 896 l 213 706 z m 578 290 b 513 131 578 232 554 172 b 367 72 476 94 428 72 b 157 281 243 72 157 160 b 367 490 157 401 243 490 b 578 290 490 490 578 401 z "},"Ğ":{"ha":1024,"x_min":0,"x_max":0,"o":"m 522 -17 b 807 79 638 -17 728 19 l 807 0 l 906 0 l 906 444 l 551 444 l 551 357 l 804 357 l 804 163 b 533 75 725 107 638 75 b 183 450 344 75 183 225 b 549 836 183 667 332 836 b 765 760 651 836 731 797 b 742 707 751 749 742 731 b 817 633 742 665 774 633 b 894 719 861 633 894 668 b 551 931 894 817 757 931 b 78 450 299 931 78 739 b 522 -17 78 158 292 -17 z m 529 1003 b 750 1192 631 1003 715 1075 l 682 1221 b 529 1099 653 1147 596 1099 b 376 1221 468 1099 407 1142 l 308 1192 b 529 1003 344 1075 428 1003 z "},"ğ":{"ha":772,"x_min":0,"x_max":0,"o":"m 635 507 l 731 507 l 731 592 l 543 592 l 543 526 b 354 603 496 571 433 603 b 61 299 178 603 61 458 b 342 4 61 126 188 4 b 539 92 432 4 490 42 l 539 -24 b 504 -137 539 -74 526 -110 b 356 -196 469 -181 414 -196 b 239 -172 296 -196 257 -183 b 251 -133 247 -161 251 -147 b 193 -74 251 -100 228 -74 b 124 -146 153 -74 124 -106 b 154 -214 124 -169 133 -193 b 356 -278 190 -249 263 -278 b 581 -192 447 -278 531 -253 b 635 -19 615 -150 635 -93 z m 363 518 b 539 451 439 518 496 489 l 539 174 b 357 88 492 124 432 88 b 161 300 243 88 161 175 b 363 518 161 424 242 518 z m 393 706 b 614 894 494 706 579 778 l 546 924 b 393 801 517 850 460 801 b 240 924 332 801 271 844 l 172 894 b 393 706 208 778 292 706 z "},"Ģ":{"ha":1024,"x_min":0,"x_max":0,"o":"m 436 -386 b 606 -164 561 -318 606 -228 b 528 -74 606 -104 571 -74 b 460 -142 492 -74 460 -103 b 519 -211 460 -176 486 -204 b 414 -354 518 -242 492 -296 z m 522 -17 b 807 79 638 -17 728 19 l 807 0 l 906 0 l 906 444 l 551 444 l 551 357 l 804 357 l 804 163 b 533 75 725 107 638 75 b 183 450 344 75 183 225 b 549 836 183 667 332 836 b 765 760 651 836 731 797 b 742 707 751 749 742 731 b 817 633 742 665 774 633 b 894 719 861 633 894 668 b 551 931 894 817 757 931 b 78 450 299 931 78 739 b 522 -17 78 158 292 -17 z "},"ģ":{"ha":772,"x_min":0,"x_max":0,"o":"m 499 1033 b 329 811 374 965 329 875 b 407 721 329 751 364 721 b 475 789 443 721 475 750 b 415 858 475 824 449 851 b 521 1001 417 889 443 943 z m 635 507 l 731 507 l 731 592 l 543 592 l 543 526 b 354 603 496 571 433 603 b 61 299 178 603 61 458 b 342 4 61 126 188 4 b 539 92 432 4 490 42 l 539 -24 b 504 -137 539 -74 526 -110 b 356 -196 469 -181 414 -196 b 239 -172 296 -196 257 -183 b 251 -133 247 -161 251 -147 b 193 -74 251 -100 228 -74 b 124 -146 153 -74 124 -106 b 154 -214 124 -169 133 -193 b 356 -278 190 -249 263 -278 b 581 -192 447 -278 531 -253 b 635 -19 615 -150 635 -93 z m 363 518 b 539 451 439 518 496 489 l 539 174 b 357 88 492 124 432 88 b 161 300 243 88 161 175 b 363 518 161 424 242 518 z "},"Ġ":{"ha":1024,"x_min":0,"x_max":0,"o":"m 522 -17 b 807 79 638 -17 728 19 l 807 0 l 906 0 l 906 444 l 551 444 l 551 357 l 804 357 l 804 163 b 533 75 725 107 638 75 b 183 450 344 75 183 225 b 549 836 183 667 332 836 b 765 760 651 836 731 797 b 742 707 751 749 742 731 b 817 633 742 665 774 633 b 894 719 861 633 894 668 b 551 931 894 817 757 931 b 78 450 299 931 78 739 b 522 -17 78 158 292 -17 z m 529 1011 b 610 1093 574 1011 610 1049 b 531 1175 610 1139 575 1175 b 450 1093 486 1175 450 1139 b 529 1011 450 1049 485 1011 z "},"ġ":{"ha":772,"x_min":0,"x_max":0,"o":"m 635 507 l 731 507 l 731 592 l 543 592 l 543 526 b 354 603 496 571 433 603 b 61 299 178 603 61 458 b 342 4 61 126 188 4 b 539 92 432 4 490 42 l 539 -24 b 504 -137 539 -74 526 -110 b 356 -196 469 -181 414 -196 b 239 -172 296 -196 257 -183 b 251 -133 247 -161 251 -147 b 193 -74 251 -100 228 -74 b 124 -146 153 -74 124 -106 b 154 -214 124 -169 133 -193 b 356 -278 190 -249 263 -278 b 581 -192 447 -278 531 -253 b 635 -19 615 -150 635 -93 z m 363 518 b 539 451 439 518 496 489 l 539 174 b 357 88 492 124 432 88 b 161 300 243 88 161 175 b 363 518 161 424 242 518 z m 390 714 b 471 796 435 714 471 751 b 392 878 471 842 436 878 b 311 796 347 878 311 842 b 390 714 311 751 346 714 z "},"Ħ":{"ha":1078,"x_min":0,"x_max":0,"o":"m 93 629 l 182 629 l 182 92 l 65 92 l 65 0 l 406 0 l 406 92 l 286 92 l 286 414 l 792 414 l 792 92 l 672 92 l 672 0 l 1013 0 l 1013 92 l 896 92 l 896 629 l 985 629 l 985 711 l 896 711 l 896 826 l 1013 826 l 1013 914 l 672 914 l 672 826 l 792 826 l 792 711 l 286 711 l 286 826 l 406 826 l 406 914 l 65 914 l 65 826 l 182 826 l 182 711 l 93 711 z m 286 504 l 286 629 l 792 629 l 792 504 z "},"ħ":{"ha":772,"x_min":0,"x_max":0,"o":"m 138 933 l 138 803 l 43 803 l 43 724 l 138 724 l 138 83 l 43 83 l 43 0 l 326 0 l 326 83 l 233 83 l 233 410 b 428 514 286 468 354 514 b 519 476 468 514 500 501 b 546 383 538 456 546 426 l 546 83 l 453 83 l 453 0 l 738 0 l 738 83 l 642 83 l 642 403 b 603 539 642 457 629 504 b 453 603 572 579 522 603 b 233 485 368 603 290 550 l 233 724 l 449 724 l 449 803 l 233 803 l 233 1017 l 43 1017 l 43 933 z "},"Í":{"ha":483,"x_min":0,"x_max":0,"o":"m 67 0 l 417 0 l 417 92 l 293 92 l 293 822 l 417 822 l 417 914 l 67 914 l 67 822 l 190 822 l 190 92 l 67 92 z m 201 996 l 411 1115 b 458 1176 440 1133 458 1157 b 403 1236 458 1214 432 1236 b 343 1204 382 1236 361 1224 l 175 1029 z "},"í":{"ha":403,"x_min":0,"x_max":0,"o":"m 160 699 l 369 818 b 417 879 399 836 417 860 b 361 939 417 917 390 939 b 301 907 340 939 319 926 l 133 732 z m 60 0 l 356 0 l 356 83 l 256 83 l 256 592 l 60 592 l 60 507 l 160 507 l 160 83 l 60 83 z "},"Ĭ":{"ha":483,"x_min":0,"x_max":0,"o":"m 67 0 l 417 0 l 417 92 l 293 92 l 293 822 l 417 822 l 417 914 l 67 914 l 67 822 l 190 822 l 190 92 l 67 92 z m 240 1003 b 461 1192 342 1003 426 1075 l 393 1221 b 240 1099 364 1147 307 1099 b 88 1221 179 1099 118 1142 l 19 1192 b 240 1003 56 1075 139 1003 z "},"ĭ":{"ha":403,"x_min":0,"x_max":0,"o":"m 60 0 l 356 0 l 356 83 l 256 83 l 256 592 l 60 592 l 60 507 l 160 507 l 160 83 l 60 83 z m 199 706 b 419 894 300 706 385 778 l 351 924 b 199 801 322 850 265 801 b 46 924 138 801 76 844 l -22 894 b 199 706 14 778 97 706 z "},"Î":{"ha":483,"x_min":0,"x_max":0,"o":"m 67 0 l 417 0 l 417 92 l 293 92 l 293 822 l 417 822 l 417 914 l 67 914 l 67 822 l 190 822 l 190 92 l 67 92 z m 71 992 l 242 1121 l 413 992 l 456 1043 l 242 1247 l 28 1043 z "},"î":{"ha":403,"x_min":0,"x_max":0,"o":"m 29 694 l 200 824 l 371 694 l 414 746 l 200 950 l -14 746 z m 60 0 l 356 0 l 356 83 l 256 83 l 256 592 l 60 592 l 60 507 l 160 507 l 160 83 l 60 83 z "},"Ï":{"ha":483,"x_min":0,"x_max":0,"o":"m 67 0 l 417 0 l 417 92 l 293 92 l 293 822 l 417 822 l 417 914 l 67 914 l 67 822 l 190 822 l 190 92 l 67 92 z m 363 1018 b 440 1097 406 1018 440 1054 b 363 1178 440 1142 407 1178 b 283 1097 319 1178 283 1142 b 363 1018 283 1054 318 1018 z m 119 1018 b 199 1097 164 1018 199 1054 b 121 1178 199 1142 164 1178 b 42 1097 78 1178 42 1142 b 119 1018 42 1054 76 1018 z "},"ï":{"ha":403,"x_min":0,"x_max":0,"o":"m 321 721 b 399 800 364 721 399 757 b 321 881 399 844 365 881 b 242 800 278 881 242 844 b 321 721 242 757 276 721 z m 78 721 b 157 800 122 721 157 757 b 79 881 157 844 122 881 b 0 800 36 881 0 844 b 78 721 0 757 35 721 z m 60 0 l 356 0 l 356 83 l 256 83 l 256 592 l 60 592 l 60 507 l 160 507 l 160 83 l 60 83 z "},"İ":{"ha":483,"x_min":0,"x_max":0,"o":"m 67 0 l 417 0 l 417 92 l 293 92 l 293 822 l 417 822 l 417 914 l 67 914 l 67 822 l 190 822 l 190 92 l 67 92 z m 242 1011 b 322 1093 286 1011 322 1049 b 243 1175 322 1139 288 1175 b 163 1093 199 1175 163 1139 b 242 1011 163 1049 197 1011 z "},"ı":{"ha":403,"x_min":0,"x_max":0,"o":"m 60 0 l 356 0 l 356 83 l 256 83 l 256 592 l 60 592 l 60 507 l 160 507 l 160 83 l 60 83 z "},"Ì":{"ha":483,"x_min":0,"x_max":0,"o":"m 67 0 l 417 0 l 417 92 l 293 92 l 293 822 l 417 822 l 417 914 l 67 914 l 67 822 l 190 822 l 190 92 l 67 92 z m 283 996 l 308 1029 l 142 1204 b 82 1236 122 1224 103 1236 b 26 1176 53 1236 26 1214 b 74 1115 26 1157 44 1133 z "},"ì":{"ha":403,"x_min":0,"x_max":0,"o":"m 60 0 l 356 0 l 356 83 l 256 83 l 256 592 l 60 592 l 60 507 l 160 507 l 160 83 l 60 83 z m 240 699 l 265 732 l 99 907 b 39 939 79 926 60 939 b -17 879 10 939 -17 917 b 31 818 -17 860 1 836 z "},"Ī":{"ha":483,"x_min":0,"x_max":0,"o":"m 67 0 l 417 0 l 417 92 l 293 92 l 293 822 l 417 822 l 417 914 l 67 914 l 67 822 l 190 822 l 190 92 l 67 92 z m 31 1040 l 453 1040 l 453 1128 l 31 1128 z "},"ī":{"ha":403,"x_min":0,"x_max":0,"o":"m 60 0 l 356 0 l 356 83 l 256 83 l 256 592 l 60 592 l 60 507 l 160 507 l 160 83 l 60 83 z m -11 743 l 411 743 l 411 831 l -11 831 z "},"Į":{"ha":483,"x_min":0,"x_max":0,"o":"m 67 0 l 204 0 b 115 -150 151 -37 115 -87 b 263 -279 115 -226 165 -279 b 382 -247 314 -279 361 -262 l 388 -174 b 279 -200 357 -189 321 -200 b 203 -128 228 -200 203 -172 b 303 0 203 -76 243 -32 l 417 0 l 417 92 l 293 92 l 293 822 l 417 822 l 417 914 l 67 914 l 67 822 l 190 822 l 190 92 l 67 92 z "},"į":{"ha":403,"x_min":0,"x_max":0,"o":"m 60 0 l 151 0 b 63 -150 99 -37 63 -87 b 210 -279 63 -226 113 -279 b 329 -247 261 -279 308 -262 l 335 -174 b 226 -200 304 -189 268 -200 b 150 -128 175 -200 150 -172 b 250 0 150 -76 190 -32 l 356 0 l 356 83 l 256 83 l 256 592 l 60 592 l 60 507 l 160 507 l 160 83 l 60 83 z m 194 743 b 271 819 235 743 271 778 b 196 897 271 861 236 897 b 118 819 154 897 118 861 b 194 743 118 778 153 743 z "},"Ķ":{"ha":938,"x_min":0,"x_max":0,"o":"m 399 -386 b 568 -164 524 -318 568 -228 b 490 -74 568 -104 533 -74 b 422 -142 454 -74 422 -103 b 482 -211 422 -176 449 -204 b 376 -354 481 -242 454 -296 z m 65 0 l 406 0 l 406 92 l 286 92 l 286 308 l 436 458 l 738 0 l 919 0 l 919 92 l 804 92 l 513 526 l 810 822 l 913 822 l 913 914 l 560 914 l 560 824 l 682 824 l 286 425 l 286 824 l 406 824 l 406 914 l 65 914 l 65 822 l 182 822 l 182 92 l 65 92 z "},"ķ":{"ha":728,"x_min":0,"x_max":0,"o":"m 276 -386 b 446 -164 401 -318 446 -228 b 368 -74 446 -104 411 -74 b 300 -142 332 -74 300 -103 b 360 -211 300 -176 326 -204 b 254 -354 358 -242 332 -296 z m 43 0 l 329 0 l 329 82 l 233 82 l 233 206 l 339 294 l 536 0 l 700 0 l 700 83 l 592 83 l 408 347 l 594 507 l 700 507 l 700 592 l 365 592 l 365 511 l 481 511 l 233 297 l 233 1017 l 43 1017 l 43 933 l 138 933 l 138 83 l 43 83 z "},"Ĺ":{"ha":769,"x_min":0,"x_max":0,"o":"m 229 1011 l 439 1131 b 486 1192 468 1149 486 1172 b 431 1251 486 1229 460 1251 b 371 1219 410 1251 389 1239 l 203 1044 z m 65 0 l 701 0 l 701 231 l 603 231 l 603 90 l 286 90 l 286 822 l 413 822 l 413 914 l 65 914 l 65 822 l 182 822 l 182 92 l 65 92 z "},"ĺ":{"ha":386,"x_min":0,"x_max":0,"o":"m 176 1071 l 386 1190 b 433 1251 415 1208 433 1232 b 378 1311 433 1289 407 1311 b 318 1279 357 1311 336 1299 l 150 1104 z m 46 0 l 342 0 l 342 83 l 242 83 l 242 1017 l 46 1017 l 46 933 l 146 933 l 146 83 l 46 83 z "},"Ľ":{"ha":769,"x_min":0,"x_max":0,"o":"m 492 590 b 619 847 561 663 619 758 b 560 917 619 890 599 917 b 497 853 518 917 497 888 b 510 758 497 817 510 799 b 460 615 510 711 494 667 z m 65 0 l 701 0 l 701 231 l 603 231 l 603 90 l 286 90 l 286 822 l 413 822 l 413 914 l 65 914 l 65 822 l 182 822 l 182 92 l 65 92 z "},"ľ":{"ha":386,"x_min":0,"x_max":0,"o":"m 319 704 b 447 961 389 776 447 872 b 388 1031 447 1004 426 1031 b 325 967 346 1031 325 1001 b 338 872 325 931 338 913 b 288 729 338 825 322 781 z m 46 0 l 342 0 l 342 83 l 242 83 l 242 1017 l 46 1017 l 46 933 l 146 933 l 146 83 l 46 83 z "},"Ļ":{"ha":769,"x_min":0,"x_max":0,"o":"m 289 -386 b 458 -164 414 -318 458 -228 b 381 -74 458 -104 424 -74 b 313 -142 344 -74 313 -103 b 372 -211 313 -176 339 -204 b 267 -354 371 -242 344 -296 z m 65 0 l 701 0 l 701 231 l 603 231 l 603 90 l 286 90 l 286 822 l 413 822 l 413 914 l 65 914 l 65 822 l 182 822 l 182 92 l 65 92 z "},"ļ":{"ha":386,"x_min":0,"x_max":0,"o":"m 99 -386 b 268 -164 224 -318 268 -228 b 190 -74 268 -104 233 -74 b 122 -142 154 -74 122 -103 b 182 -211 122 -176 149 -204 b 76 -354 181 -242 154 -296 z m 46 0 l 342 0 l 342 83 l 242 83 l 242 1017 l 46 1017 l 46 933 l 146 933 l 146 83 l 46 83 z "},"Ŀ":{"ha":769,"x_min":0,"x_max":0,"o":"m 65 0 l 701 0 l 701 231 l 603 231 l 603 90 l 286 90 l 286 822 l 413 822 l 413 914 l 65 914 l 65 822 l 182 822 l 182 92 l 65 92 z m 618 413 b 699 494 663 413 699 450 b 619 576 699 540 664 576 b 539 494 575 576 539 540 b 618 413 539 450 574 413 z "},"ŀ":{"ha":439,"x_min":0,"x_max":0,"o":"m 46 0 l 342 0 l 342 83 l 242 83 l 242 1017 l 46 1017 l 46 933 l 146 933 l 146 83 l 46 83 z m 413 390 b 493 472 457 390 493 428 b 414 554 493 518 458 554 b 333 472 369 554 333 518 b 413 390 333 428 368 390 z "},"Ł":{"ha":778,"x_min":0,"x_max":0,"o":"m 74 0 l 710 0 l 710 231 l 611 231 l 611 90 l 294 90 l 294 425 l 533 565 l 490 639 l 294 524 l 294 822 l 421 822 l 421 914 l 74 914 l 74 822 l 190 822 l 190 464 l 35 374 l 78 300 l 190 365 l 190 92 l 74 92 z "},"ł":{"ha":406,"x_min":0,"x_max":0,"o":"m 56 0 l 351 0 l 351 83 l 251 83 l 251 549 l 399 636 l 358 706 l 251 643 l 251 1017 l 56 1017 l 56 933 l 156 933 l 156 590 l -3 496 l 38 426 l 156 496 l 156 83 l 56 83 z "},"Ń":{"ha":1061,"x_min":0,"x_max":0,"o":"m 488 996 l 697 1115 b 744 1176 726 1133 744 1157 b 689 1236 744 1214 718 1236 b 629 1204 668 1236 647 1224 l 461 1029 z m 842 -4 l 899 -3 l 899 822 l 1011 822 l 1011 914 l 679 914 l 679 822 l 800 822 l 800 218 l 272 914 l 65 914 l 65 822 l 182 822 l 182 92 l 65 92 l 65 0 l 401 0 l 401 92 l 282 92 l 282 733 z "},"ń":{"ha":782,"x_min":0,"x_max":0,"o":"m 360 699 l 569 818 b 617 879 599 836 617 860 b 561 939 617 917 590 939 b 501 907 540 939 519 926 l 333 732 z m 243 592 l 57 592 l 57 507 l 151 507 l 151 83 l 57 83 l 57 0 l 340 0 l 340 83 l 247 83 l 247 410 b 442 514 300 468 368 514 b 540 463 490 514 524 497 b 556 383 551 442 556 415 l 556 83 l 463 83 l 463 0 l 746 0 l 746 83 l 651 83 l 651 403 b 622 526 651 451 642 493 b 465 603 593 574 542 603 b 243 482 381 603 299 547 z "},"Ň":{"ha":1061,"x_min":0,"x_max":0,"o":"m 699 1249 l 528 1119 l 357 1249 l 314 1197 l 528 993 l 742 1197 z m 842 -4 l 899 -3 l 899 822 l 1011 822 l 1011 914 l 679 914 l 679 822 l 800 822 l 800 218 l 272 914 l 65 914 l 65 822 l 182 822 l 182 92 l 65 92 l 65 0 l 401 0 l 401 92 l 282 92 l 282 733 z "},"ň":{"ha":782,"x_min":0,"x_max":0,"o":"m 571 951 l 400 822 l 229 951 l 186 900 l 400 696 l 614 900 z m 243 592 l 57 592 l 57 507 l 151 507 l 151 83 l 57 83 l 57 0 l 340 0 l 340 83 l 247 83 l 247 410 b 442 514 300 468 368 514 b 540 463 490 514 524 497 b 556 383 551 442 556 415 l 556 83 l 463 83 l 463 0 l 746 0 l 746 83 l 651 83 l 651 403 b 622 526 651 451 642 493 b 465 603 593 574 542 603 b 243 482 381 603 299 547 z "},"Ņ":{"ha":1061,"x_min":0,"x_max":0,"o":"m 439 -383 b 608 -161 564 -315 608 -225 b 531 -71 608 -101 574 -71 b 463 -139 494 -71 463 -100 b 522 -208 463 -174 489 -201 b 417 -351 521 -239 494 -293 z m 842 -4 l 899 -3 l 899 822 l 1011 822 l 1011 914 l 679 914 l 679 822 l 800 822 l 800 218 l 272 914 l 65 914 l 65 822 l 182 822 l 182 92 l 65 92 l 65 0 l 401 0 l 401 92 l 282 92 l 282 733 z "},"ņ":{"ha":782,"x_min":0,"x_max":0,"o":"m 307 -386 b 476 -164 432 -318 476 -228 b 399 -74 476 -104 442 -74 b 331 -142 363 -74 331 -103 b 390 -211 331 -176 357 -204 b 285 -354 389 -242 363 -296 z m 243 592 l 57 592 l 57 507 l 151 507 l 151 83 l 57 83 l 57 0 l 340 0 l 340 83 l 247 83 l 247 410 b 442 514 300 468 368 514 b 540 463 490 514 524 497 b 556 383 551 442 556 415 l 556 83 l 463 83 l 463 0 l 746 0 l 746 83 l 651 83 l 651 403 b 622 526 651 451 642 493 b 465 603 593 574 542 603 b 243 482 381 603 299 547 z "},"Ñ":{"ha":1061,"x_min":0,"x_max":0,"o":"m 842 -4 l 899 -3 l 899 822 l 1011 822 l 1011 914 l 679 914 l 679 822 l 800 822 l 800 218 l 272 914 l 65 914 l 65 822 l 182 822 l 182 92 l 65 92 l 65 0 l 401 0 l 401 92 l 282 92 l 282 733 z m 631 1004 b 764 1168 696 1004 757 1072 l 689 1185 b 625 1101 679 1132 657 1101 b 554 1139 604 1101 586 1113 b 431 1193 521 1167 485 1193 b 299 1029 367 1193 306 1125 l 374 1013 b 438 1096 382 1064 404 1096 b 508 1057 457 1096 475 1085 b 631 1004 540 1029 576 1004 z "},"ñ":{"ha":782,"x_min":0,"x_max":0,"o":"m 243 592 l 57 592 l 57 507 l 151 507 l 151 83 l 57 83 l 57 0 l 340 0 l 340 83 l 247 83 l 247 410 b 442 514 300 468 368 514 b 540 463 490 514 524 497 b 556 383 551 442 556 415 l 556 83 l 463 83 l 463 0 l 746 0 l 746 83 l 651 83 l 651 403 b 622 526 651 451 642 493 b 465 603 593 574 542 603 b 243 482 381 603 299 547 z m 503 707 b 636 871 568 707 629 775 l 561 888 b 497 804 551 835 529 804 b 426 842 476 804 458 815 b 303 896 393 869 357 896 b 171 732 239 896 178 828 l 246 715 b 310 799 254 767 276 799 b 381 760 329 799 347 788 b 503 707 413 732 449 707 z "},"Ó":{"ha":1079,"x_min":0,"x_max":0,"o":"m 499 996 l 708 1115 b 756 1176 738 1133 756 1157 b 700 1236 756 1214 729 1236 b 640 1204 679 1236 658 1224 l 472 1029 z m 538 -17 b 1003 458 806 -17 1003 190 b 543 931 1003 722 808 931 b 78 456 274 931 78 724 b 538 -17 78 192 271 -17 z m 540 78 b 183 458 331 78 183 243 b 540 836 183 672 331 836 b 896 456 749 836 896 671 b 540 78 896 242 749 78 z "},"ó":{"ha":731,"x_min":0,"x_max":0,"o":"m 324 699 l 533 818 b 581 879 563 836 581 860 b 525 939 581 917 554 939 b 465 907 504 939 483 926 l 297 732 z m 365 -11 b 669 296 549 -11 669 128 b 365 603 669 464 549 603 b 61 296 182 603 61 463 b 365 -11 61 126 181 -11 z m 365 72 b 161 296 244 72 161 164 b 365 519 161 426 244 519 b 569 296 486 519 569 426 b 365 72 569 164 486 72 z "},"Ŏ":{"ha":1079,"x_min":0,"x_max":0,"o":"m 538 -17 b 1003 458 806 -17 1003 190 b 543 931 1003 722 808 931 b 78 456 274 931 78 724 b 538 -17 78 192 271 -17 z m 540 78 b 183 458 331 78 183 243 b 540 836 183 672 331 836 b 896 456 749 836 896 671 b 540 78 896 242 749 78 z m 538 1003 b 758 1192 639 1003 724 1075 l 690 1221 b 538 1099 661 1147 604 1099 b 385 1221 476 1099 415 1142 l 317 1192 b 538 1003 353 1075 436 1003 z "},"ŏ":{"ha":731,"x_min":0,"x_max":0,"o":"m 365 -11 b 669 296 549 -11 669 128 b 365 603 669 464 549 603 b 61 296 182 603 61 463 b 365 -11 61 126 181 -11 z m 365 72 b 161 296 244 72 161 164 b 365 519 161 426 244 519 b 569 296 486 519 569 426 b 365 72 569 164 486 72 z m 364 706 b 585 894 465 706 550 778 l 517 924 b 364 801 488 850 431 801 b 211 924 303 801 242 844 l 143 894 b 364 706 179 778 263 706 z "},"Ô":{"ha":1079,"x_min":0,"x_max":0,"o":"m 368 992 l 539 1121 l 710 992 l 753 1043 l 539 1247 l 325 1043 z m 538 -17 b 1003 458 806 -17 1003 190 b 543 931 1003 722 808 931 b 78 456 274 931 78 724 b 538 -17 78 192 271 -17 z m 540 78 b 183 458 331 78 183 243 b 540 836 183 672 331 836 b 896 456 749 836 896 671 b 540 78 896 242 749 78 z "},"ô":{"ha":731,"x_min":0,"x_max":0,"o":"m 193 694 l 364 824 l 535 694 l 578 746 l 364 950 l 150 746 z m 365 -11 b 669 296 549 -11 669 128 b 365 603 669 464 549 603 b 61 296 182 603 61 463 b 365 -11 61 126 181 -11 z m 365 72 b 161 296 244 72 161 164 b 365 519 161 426 244 519 b 569 296 486 519 569 426 b 365 72 569 164 486 72 z "},"Ö":{"ha":1079,"x_min":0,"x_max":0,"o":"m 660 1018 b 738 1097 703 1018 738 1054 b 660 1178 738 1142 704 1178 b 581 1097 617 1178 581 1142 b 660 1018 581 1054 615 1018 z m 417 1018 b 496 1097 461 1018 496 1054 b 418 1178 496 1142 461 1178 b 339 1097 375 1178 339 1142 b 417 1018 339 1054 374 1018 z m 538 -17 b 1003 458 806 -17 1003 190 b 543 931 1003 722 808 931 b 78 456 274 931 78 724 b 538 -17 78 192 271 -17 z m 540 78 b 183 458 331 78 183 243 b 540 836 183 672 331 836 b 896 456 749 836 896 671 b 540 78 896 242 749 78 z "},"ö":{"ha":731,"x_min":0,"x_max":0,"o":"m 486 721 b 564 800 529 721 564 757 b 486 881 564 844 531 881 b 407 800 443 881 407 844 b 486 721 407 757 442 721 z m 243 721 b 322 800 288 721 322 757 b 244 881 322 844 288 881 b 165 800 201 881 165 844 b 243 721 165 757 200 721 z m 365 -11 b 669 296 549 -11 669 128 b 365 603 669 464 549 603 b 61 296 182 603 61 463 b 365 -11 61 126 181 -11 z m 365 72 b 161 296 244 72 161 164 b 365 519 161 426 244 519 b 569 296 486 519 569 426 b 365 72 569 164 486 72 z "},"Œ":{"ha":1293,"x_min":0,"x_max":0,"o":"m 583 0 l 1206 0 l 1206 224 l 1107 224 l 1107 90 l 763 90 l 763 421 l 1061 421 l 1061 510 l 763 510 l 763 824 l 1107 824 l 1107 690 l 1206 690 l 1206 914 l 582 914 b 78 447 271 914 78 724 b 583 0 78 178 286 0 z m 586 92 b 183 446 347 92 183 226 b 575 822 183 669 321 822 l 658 822 l 658 92 z "},"œ":{"ha":1171,"x_min":0,"x_max":0,"o":"m 890 74 b 663 268 763 74 676 138 l 1118 268 b 1122 324 1121 283 1122 301 b 854 603 1122 471 1028 603 b 614 453 744 603 658 542 b 363 603 571 540 482 603 b 61 296 182 603 61 463 b 363 -11 61 126 181 -11 b 614 138 481 -11 569 50 b 879 -11 658 50 754 -11 b 1089 46 953 -11 1028 8 l 1097 139 b 890 74 1028 99 969 74 z m 365 72 b 161 296 244 72 161 164 b 365 519 161 426 244 519 b 569 296 486 519 569 426 b 365 72 569 164 486 72 z m 847 521 b 1026 344 958 521 1019 449 l 664 344 b 847 521 678 457 757 521 z "},"Ò":{"ha":1079,"x_min":0,"x_max":0,"o":"m 538 -17 b 1003 458 806 -17 1003 190 b 543 931 1003 722 808 931 b 78 456 274 931 78 724 b 538 -17 78 192 271 -17 z m 540 78 b 183 458 331 78 183 243 b 540 836 183 672 331 836 b 896 456 749 836 896 671 b 540 78 896 242 749 78 z m 579 996 l 604 1029 l 438 1204 b 378 1236 418 1224 399 1236 b 322 1176 349 1236 322 1214 b 369 1115 322 1157 340 1133 z "},"ò":{"ha":731,"x_min":0,"x_max":0,"o":"m 365 -11 b 669 296 549 -11 669 128 b 365 603 669 464 549 603 b 61 296 182 603 61 463 b 365 -11 61 126 181 -11 z m 365 72 b 161 296 244 72 161 164 b 365 519 161 426 244 519 b 569 296 486 519 569 426 b 365 72 569 164 486 72 z m 406 699 l 431 732 l 264 907 b 204 939 244 926 225 939 b 149 879 175 939 149 917 b 196 818 149 860 167 836 z "},"Ő":{"ha":1079,"x_min":0,"x_max":0,"o":"m 363 999 l 586 1115 b 639 1179 619 1133 639 1158 b 583 1236 639 1214 614 1236 b 524 1204 564 1236 544 1224 l 340 1032 z m 628 1004 l 864 1110 b 919 1174 901 1125 919 1150 b 865 1229 919 1204 899 1229 b 807 1203 849 1229 829 1221 l 610 1039 z m 538 -17 b 1003 458 806 -17 1003 190 b 543 931 1003 722 808 931 b 78 456 274 931 78 724 b 538 -17 78 192 271 -17 z m 540 78 b 183 458 331 78 183 243 b 540 836 183 672 331 836 b 896 456 749 836 896 671 b 540 78 896 242 749 78 z "},"ő":{"ha":731,"x_min":0,"x_max":0,"o":"m 189 701 l 413 818 b 465 882 446 836 465 861 b 410 939 465 917 440 939 b 350 907 390 939 371 926 l 167 735 z m 454 707 l 690 813 b 746 876 728 828 746 853 b 692 932 746 907 725 932 b 633 906 675 932 656 924 l 436 742 z m 365 -11 b 669 296 549 -11 669 128 b 365 603 669 464 549 603 b 61 296 182 603 61 463 b 365 -11 61 126 181 -11 z m 365 72 b 161 296 244 72 161 164 b 365 519 161 426 244 519 b 569 296 486 519 569 426 b 365 72 569 164 486 72 z "},"Ō":{"ha":1079,"x_min":0,"x_max":0,"o":"m 328 1040 l 750 1040 l 750 1128 l 328 1128 z m 538 -17 b 1003 458 806 -17 1003 190 b 543 931 1003 722 808 931 b 78 456 274 931 78 724 b 538 -17 78 192 271 -17 z m 540 78 b 183 458 331 78 183 243 b 540 836 183 672 331 836 b 896 456 749 836 896 671 b 540 78 896 242 749 78 z "},"ō":{"ha":731,"x_min":0,"x_max":0,"o":"m 153 743 l 575 743 l 575 831 l 153 831 z m 365 -11 b 669 296 549 -11 669 128 b 365 603 669 464 549 603 b 61 296 182 603 61 463 b 365 -11 61 126 181 -11 z m 365 72 b 161 296 244 72 161 164 b 365 519 161 426 244 519 b 569 296 486 519 569 426 b 365 72 569 164 486 72 z "},"Ø":{"ha":1079,"x_min":0,"x_max":0,"o":"m 538 -17 b 1003 458 806 -17 1003 190 b 878 786 1003 586 956 701 l 989 914 l 924 971 l 814 843 b 543 931 739 899 646 931 b 78 456 274 931 78 724 b 197 131 78 329 122 215 l 83 0 l 149 -57 l 260 74 b 538 -17 336 17 431 -17 z m 540 78 b 322 147 454 78 379 103 l 808 717 b 896 456 864 650 896 560 b 540 78 896 242 749 78 z m 183 458 b 540 836 183 672 331 836 b 754 769 624 836 697 811 l 268 199 b 183 458 214 265 183 356 z "},"ø":{"ha":731,"x_min":0,"x_max":0,"o":"m 365 -11 b 669 296 549 -11 669 128 b 596 497 669 371 643 442 l 667 581 l 604 633 l 535 551 b 365 603 488 583 429 603 b 61 296 182 603 61 463 b 138 90 61 218 89 146 l 68 8 l 131 -44 l 200 36 b 365 -11 246 7 303 -11 z m 161 296 b 365 519 161 426 244 519 b 482 483 410 519 450 507 l 201 151 b 161 296 175 189 161 238 z m 365 72 b 251 103 321 72 282 83 l 531 435 b 569 296 556 399 569 350 b 365 72 569 164 486 72 z "},"Ǿ":{"ha":1079,"x_min":0,"x_max":0,"o":"m 538 -17 b 1003 458 806 -17 1003 190 b 878 786 1003 586 956 701 l 989 914 l 924 971 l 814 843 b 543 931 739 899 646 931 b 78 456 274 931 78 724 b 197 131 78 329 122 215 l 83 0 l 149 -57 l 260 74 b 538 -17 336 17 431 -17 z m 540 78 b 322 147 454 78 379 103 l 808 717 b 896 456 864 650 896 560 b 540 78 896 242 749 78 z m 183 458 b 540 836 183 672 331 836 b 754 769 624 836 697 811 l 268 199 b 183 458 214 265 183 356 z m 500 996 l 710 1115 b 757 1176 739 1133 757 1157 b 701 1236 757 1214 731 1236 b 642 1204 681 1236 660 1224 l 474 1029 z "},"ǿ":{"ha":731,"x_min":0,"x_max":0,"o":"m 365 -11 b 669 296 549 -11 669 128 b 596 497 669 371 643 442 l 667 581 l 604 633 l 535 551 b 365 603 488 583 429 603 b 61 296 182 603 61 463 b 138 90 61 218 89 146 l 68 8 l 131 -44 l 200 36 b 365 -11 246 7 303 -11 z m 161 296 b 365 519 161 426 244 519 b 482 483 410 519 450 507 l 201 151 b 161 296 175 189 161 238 z m 365 72 b 251 103 321 72 282 83 l 531 435 b 569 296 556 399 569 350 b 365 72 569 164 486 72 z m 324 699 l 533 818 b 581 879 563 836 581 860 b 525 939 581 917 554 939 b 465 907 504 939 483 926 l 297 732 z "},"Õ":{"ha":1079,"x_min":0,"x_max":0,"o":"m 538 -17 b 1003 458 806 -17 1003 190 b 543 931 1003 722 808 931 b 78 456 274 931 78 724 b 538 -17 78 192 271 -17 z m 540 78 b 183 458 331 78 183 243 b 540 836 183 672 331 836 b 896 456 749 836 896 671 b 540 78 896 242 749 78 z m 642 1004 b 775 1168 707 1004 768 1072 l 700 1185 b 636 1101 690 1132 668 1101 b 565 1139 615 1101 597 1113 b 442 1193 532 1167 496 1193 b 310 1029 378 1193 317 1125 l 385 1013 b 449 1096 393 1064 415 1096 b 519 1057 468 1096 486 1085 b 642 1004 551 1029 588 1004 z "},"õ":{"ha":731,"x_min":0,"x_max":0,"o":"m 365 -11 b 669 296 549 -11 669 128 b 365 603 669 464 549 603 b 61 296 182 603 61 463 b 365 -11 61 126 181 -11 z m 365 72 b 161 296 244 72 161 164 b 365 519 161 426 244 519 b 569 296 486 519 569 426 b 365 72 569 164 486 72 z m 467 707 b 600 871 532 707 593 775 l 525 888 b 461 804 515 835 493 804 b 390 842 440 804 422 815 b 267 896 357 869 321 896 b 135 732 203 896 142 828 l 210 715 b 274 799 218 767 240 799 b 344 760 293 799 311 788 b 467 707 376 732 413 707 z "},"Ŕ":{"ha":858,"x_min":0,"x_max":0,"o":"m 386 996 l 596 1115 b 643 1176 625 1133 643 1157 b 588 1236 643 1214 617 1236 b 528 1204 567 1236 546 1224 l 360 1029 z m 65 0 l 406 0 l 406 92 l 286 92 l 286 374 b 392 371 313 372 356 371 b 444 374 410 371 428 372 l 669 0 l 850 0 l 850 92 l 740 92 l 549 399 b 744 649 664 436 744 524 b 413 914 744 813 614 914 l 65 914 l 65 822 l 182 822 l 182 92 l 65 92 z m 397 461 b 286 464 353 461 314 463 l 286 822 l 407 822 b 640 646 549 822 640 761 b 397 461 640 525 536 461 z "},"ŕ":{"ha":528,"x_min":0,"x_max":0,"o":"m 424 603 b 243 457 360 603 289 539 l 243 592 l 57 592 l 57 507 l 151 507 l 151 83 l 57 83 l 57 0 l 358 0 l 358 83 l 247 83 l 247 379 b 375 504 276 439 331 492 b 446 454 385 478 410 454 b 513 525 483 454 513 488 b 424 603 513 565 482 603 z m 243 699 l 453 818 b 500 879 482 836 500 860 b 444 939 500 917 474 939 b 385 907 424 939 403 926 l 217 732 z "},"Ř":{"ha":858,"x_min":0,"x_max":0,"o":"m 597 1249 l 426 1119 l 256 1249 l 213 1197 l 426 993 l 640 1197 z m 65 0 l 406 0 l 406 92 l 286 92 l 286 374 b 392 371 313 372 356 371 b 444 374 410 371 428 372 l 669 0 l 850 0 l 850 92 l 740 92 l 549 399 b 744 649 664 436 744 524 b 413 914 744 813 614 914 l 65 914 l 65 822 l 182 822 l 182 92 l 65 92 z m 397 461 b 286 464 353 461 314 463 l 286 822 l 407 822 b 640 646 549 822 640 761 b 397 461 640 525 536 461 z "},"ř":{"ha":528,"x_min":0,"x_max":0,"o":"m 424 603 b 243 457 360 603 289 539 l 243 592 l 57 592 l 57 507 l 151 507 l 151 83 l 57 83 l 57 0 l 358 0 l 358 83 l 247 83 l 247 379 b 375 504 276 439 331 492 b 446 454 385 478 410 454 b 513 525 483 454 513 488 b 424 603 513 565 482 603 z m 456 951 l 285 822 l 114 951 l 71 900 l 285 696 l 499 900 z "},"Ŗ":{"ha":858,"x_min":0,"x_max":0,"o":"m 333 -386 b 503 -164 458 -318 503 -228 b 425 -74 503 -104 468 -74 b 357 -142 389 -74 357 -103 b 417 -211 357 -176 383 -204 b 311 -354 415 -242 389 -296 z m 65 0 l 406 0 l 406 92 l 286 92 l 286 374 b 392 371 313 372 356 371 b 444 374 410 371 428 372 l 669 0 l 850 0 l 850 92 l 740 92 l 549 399 b 744 649 664 436 744 524 b 413 914 744 813 614 914 l 65 914 l 65 822 l 182 822 l 182 92 l 65 92 z m 397 461 b 286 464 353 461 314 463 l 286 822 l 407 822 b 640 646 549 822 640 761 b 397 461 640 525 536 461 z "},"ŗ":{"ha":528,"x_min":0,"x_max":0,"o":"m 424 603 b 243 457 360 603 289 539 l 243 592 l 57 592 l 57 507 l 151 507 l 151 83 l 57 83 l 57 0 l 358 0 l 358 83 l 247 83 l 247 379 b 375 504 276 439 331 492 b 446 454 385 478 410 454 b 513 525 483 454 513 488 b 424 603 513 565 482 603 z m 104 -386 b 274 -164 229 -318 274 -228 b 196 -74 274 -104 239 -74 b 128 -142 160 -74 128 -103 b 188 -211 128 -176 154 -204 b 82 -354 186 -242 160 -296 z "},"Ś":{"ha":763,"x_min":0,"x_max":0,"o":"m 350 996 l 560 1115 b 607 1176 589 1133 607 1157 b 551 1236 607 1214 581 1236 b 492 1204 531 1236 510 1224 l 324 1029 z m 381 -15 b 681 244 553 -15 681 83 b 415 514 681 399 565 456 b 214 696 300 558 214 599 b 390 839 214 779 281 839 b 539 793 447 839 514 821 b 519 740 529 781 519 763 b 593 669 519 703 549 669 b 665 750 632 669 665 699 b 393 931 665 844 543 931 b 111 688 222 931 111 828 b 388 413 111 531 231 472 b 578 236 492 372 578 331 b 382 75 578 138 504 75 b 200 132 299 75 231 101 b 222 193 213 149 222 168 b 150 261 222 229 193 261 b 76 174 108 261 76 226 b 381 -15 76 85 201 -15 z "},"ś":{"ha":607,"x_min":0,"x_max":0,"o":"m 522 474 b 492 542 522 499 513 521 b 306 603 456 578 385 603 b 81 432 164 603 81 521 b 313 253 81 322 169 289 b 453 157 397 232 453 211 b 308 65 453 100 389 65 b 176 99 244 65 196 83 b 186 135 182 111 186 122 b 122 196 186 171 160 196 b 63 131 88 196 63 165 b 94 57 63 101 74 78 b 308 -11 135 17 222 -11 b 544 167 435 -11 544 54 b 325 344 544 282 444 315 b 174 439 228 369 174 388 b 303 525 174 482 221 525 b 407 504 347 525 386 518 b 400 471 401 493 400 481 b 464 410 400 435 428 410 b 522 474 497 410 522 436 z m 263 699 l 472 818 b 519 879 501 836 519 860 b 464 939 519 917 493 939 b 404 907 443 939 422 926 l 236 732 z "},"Š":{"ha":763,"x_min":0,"x_max":0,"o":"m 561 1249 l 390 1119 l 219 1249 l 176 1197 l 390 993 l 604 1197 z m 381 -15 b 681 244 553 -15 681 83 b 415 514 681 399 565 456 b 214 696 300 558 214 599 b 390 839 214 779 281 839 b 539 793 447 839 514 821 b 519 740 529 781 519 763 b 593 669 519 703 549 669 b 665 750 632 669 665 699 b 393 931 665 844 543 931 b 111 688 222 931 111 828 b 388 413 111 531 231 472 b 578 236 492 372 578 331 b 382 75 578 138 504 75 b 200 132 299 75 231 101 b 222 193 213 149 222 168 b 150 261 222 229 193 261 b 76 174 108 261 76 226 b 381 -15 76 85 201 -15 z "},"š":{"ha":607,"x_min":0,"x_max":0,"o":"m 522 474 b 492 542 522 499 513 521 b 306 603 456 578 385 603 b 81 432 164 603 81 521 b 313 253 81 322 169 289 b 453 157 397 232 453 211 b 308 65 453 100 389 65 b 176 99 244 65 196 83 b 186 135 182 111 186 122 b 122 196 186 171 160 196 b 63 131 88 196 63 165 b 94 57 63 101 74 78 b 308 -11 135 17 222 -11 b 544 167 435 -11 544 54 b 325 344 544 282 444 315 b 174 439 228 369 174 388 b 303 525 174 482 221 525 b 407 504 347 525 386 518 b 400 471 401 493 400 481 b 464 410 400 435 428 410 b 522 474 497 410 522 436 z m 475 951 l 304 822 l 133 951 l 90 900 l 304 696 l 518 900 z "},"Ş":{"ha":763,"x_min":0,"x_max":0,"o":"m 388 -276 b 524 -172 476 -276 524 -228 b 393 -67 524 -115 479 -71 l 394 -15 b 681 244 560 -10 681 88 b 415 514 681 399 565 456 b 214 696 300 558 214 599 b 390 839 214 779 281 839 b 539 793 447 839 514 821 b 519 740 529 781 519 763 b 593 669 519 703 549 669 b 665 750 632 669 665 699 b 393 931 665 844 543 931 b 111 688 222 931 111 828 b 388 413 111 531 231 472 b 578 236 492 372 578 331 b 382 75 578 138 504 75 b 200 132 299 75 231 101 b 222 193 213 149 222 168 b 150 261 222 229 193 261 b 76 174 108 261 76 226 b 340 -14 76 92 183 0 l 308 -117 l 335 -139 b 360 -136 338 -139 353 -136 b 433 -179 411 -136 433 -154 b 375 -219 433 -204 410 -219 b 253 -193 340 -219 289 -208 l 232 -237 b 388 -276 278 -261 335 -276 z "},"ş":{"ha":607,"x_min":0,"x_max":0,"o":"m 314 -276 b 450 -172 403 -276 450 -228 b 319 -67 450 -115 406 -71 l 322 -11 b 544 167 443 -6 544 58 b 325 344 544 282 444 315 b 174 439 228 369 174 388 b 303 525 174 482 221 525 b 407 504 347 525 386 518 b 400 471 401 493 400 481 b 464 410 400 435 428 410 b 522 474 497 410 522 436 b 492 542 522 499 513 521 b 306 603 456 578 385 603 b 81 432 164 603 81 521 b 313 253 81 322 169 289 b 453 157 397 232 453 211 b 308 65 453 100 389 65 b 176 99 244 65 196 83 b 186 135 182 111 186 122 b 122 196 186 171 160 196 b 63 131 88 196 63 165 b 94 57 63 101 74 78 b 269 -8 128 22 196 -1 l 235 -117 l 261 -139 b 286 -136 264 -139 279 -136 b 360 -179 338 -136 360 -154 b 301 -219 360 -204 336 -219 b 179 -193 267 -219 215 -208 l 158 -237 b 314 -276 204 -261 261 -276 z "},"Ș":{"ha":763,"x_min":0,"x_max":0,"o":"m 297 -386 b 467 -164 422 -318 467 -228 b 389 -74 467 -104 432 -74 b 321 -142 353 -74 321 -103 b 381 -211 321 -176 347 -204 b 275 -354 379 -242 353 -296 z m 381 -15 b 681 244 553 -15 681 83 b 415 514 681 399 565 456 b 214 696 300 558 214 599 b 390 839 214 779 281 839 b 539 793 447 839 514 821 b 519 740 529 781 519 763 b 593 669 519 703 549 669 b 665 750 632 669 665 699 b 393 931 665 844 543 931 b 111 688 222 931 111 828 b 388 413 111 531 231 472 b 578 236 492 372 578 331 b 382 75 578 138 504 75 b 200 132 299 75 231 101 b 222 193 213 149 222 168 b 150 261 222 229 193 261 b 76 174 108 261 76 226 b 381 -15 76 85 201 -15 z "},"ș":{"ha":607,"x_min":0,"x_max":0,"o":"m 522 474 b 492 542 522 499 513 521 b 306 603 456 578 385 603 b 81 432 164 603 81 521 b 313 253 81 322 169 289 b 453 157 397 232 453 211 b 308 65 453 100 389 65 b 176 99 244 65 196 83 b 186 135 182 111 186 122 b 122 196 186 171 160 196 b 63 131 88 196 63 165 b 94 57 63 101 74 78 b 308 -11 135 17 222 -11 b 544 167 435 -11 544 54 b 325 344 544 282 444 315 b 174 439 228 369 174 388 b 303 525 174 482 221 525 b 407 504 347 525 386 518 b 400 471 401 493 400 481 b 464 410 400 435 428 410 b 522 474 497 410 522 436 z m 210 -386 b 379 -164 335 -318 379 -228 b 301 -74 379 -104 344 -74 b 233 -142 265 -74 233 -103 b 293 -211 233 -176 260 -204 b 188 -354 292 -242 265 -296 z "},"Ť":{"ha":876,"x_min":0,"x_max":0,"o":"m 607 1249 l 436 1119 l 265 1249 l 222 1197 l 436 993 l 650 1197 z m 263 0 l 614 0 l 614 92 l 490 92 l 490 826 l 719 826 l 719 679 l 818 679 l 818 914 l 58 914 l 58 679 l 157 679 l 157 826 l 386 826 l 386 92 l 263 92 z "},"ť":{"ha":463,"x_min":0,"x_max":0,"o":"m 315 661 b 443 918 385 733 443 829 b 383 988 443 961 422 988 b 321 924 342 988 321 958 b 333 829 321 888 333 869 b 283 686 333 782 318 738 z m 278 -11 b 404 22 332 -11 374 6 l 417 114 b 306 78 383 94 340 78 b 236 108 269 78 247 88 b 226 154 229 121 226 135 l 226 507 l 408 507 l 408 592 l 226 592 l 226 772 l 132 735 l 132 592 l 22 592 l 22 507 l 132 507 l 132 140 b 147 58 132 108 136 81 b 278 -11 171 13 215 -11 z "},"Ţ":{"ha":876,"x_min":0,"x_max":0,"o":"m 343 -386 b 513 -164 468 -318 513 -228 b 435 -74 513 -104 478 -74 b 367 -142 399 -74 367 -103 b 426 -211 367 -176 393 -204 b 321 -354 425 -242 399 -296 z m 263 0 l 614 0 l 614 92 l 490 92 l 490 826 l 719 826 l 719 679 l 818 679 l 818 914 l 58 914 l 58 679 l 157 679 l 157 826 l 386 826 l 386 92 l 263 92 z "},"ţ":{"ha":463,"x_min":0,"x_max":0,"o":"m 161 -386 b 331 -164 286 -318 331 -228 b 253 -74 331 -104 296 -74 b 185 -142 217 -74 185 -103 b 244 -211 185 -176 211 -204 b 139 -354 243 -242 217 -296 z m 278 -11 b 404 22 332 -11 374 6 l 417 114 b 306 78 383 94 340 78 b 236 108 269 78 247 88 b 226 154 229 121 226 135 l 226 507 l 408 507 l 408 592 l 226 592 l 226 772 l 132 735 l 132 592 l 22 592 l 22 507 l 132 507 l 132 140 b 147 58 132 108 136 81 b 278 -11 171 13 215 -11 z "},"Þ":{"ha":821,"x_min":0,"x_max":0,"o":"m 65 0 l 410 0 l 410 88 l 286 88 l 286 203 b 432 200 313 201 375 200 b 754 467 625 200 754 296 b 433 724 754 631 617 724 b 286 722 372 724 307 724 l 286 826 l 404 826 l 404 914 l 65 914 l 65 822 l 182 822 l 182 92 l 65 92 z m 439 288 b 286 290 374 288 314 289 l 286 633 b 439 636 308 635 374 636 b 650 464 557 636 650 579 b 439 288 650 350 565 288 z "},"þ":{"ha":731,"x_min":0,"x_max":0,"o":"m 1 -272 l 306 -272 l 306 -189 l 192 -189 l 192 54 b 375 -11 242 15 306 -11 b 667 299 551 -11 667 132 b 388 601 667 481 543 601 b 192 513 299 601 240 563 l 192 1017 l 0 1017 l 0 933 l 96 933 l 96 -189 l 1 -189 z m 369 74 b 192 140 293 74 236 103 l 192 431 b 374 517 240 481 297 517 b 567 297 485 517 568 431 b 369 74 565 168 485 74 z "},"Ú":{"ha":986,"x_min":0,"x_max":0,"o":"m 451 996 l 661 1115 b 708 1176 690 1133 708 1157 b 653 1236 708 1214 682 1236 b 593 1204 632 1236 611 1224 l 425 1029 z m 492 -17 b 825 319 697 -17 825 103 l 825 822 l 940 822 l 940 914 l 604 914 l 604 822 l 725 822 l 725 319 b 493 78 725 156 639 78 b 263 322 347 78 263 160 l 263 822 l 383 822 l 383 914 l 46 914 l 46 822 l 161 822 l 161 315 b 492 -17 161 101 283 -17 z "},"ú":{"ha":768,"x_min":0,"x_max":0,"o":"m 332 699 l 542 818 b 589 879 571 836 589 860 b 533 939 589 917 563 939 b 474 907 513 939 492 926 l 306 732 z m 317 -11 b 538 110 401 -11 482 44 l 538 0 l 725 0 l 725 83 l 631 83 l 631 592 l 438 592 l 438 507 l 535 507 l 535 182 b 340 78 479 125 414 78 b 243 128 292 78 261 93 b 226 207 232 147 226 174 l 226 592 l 36 592 l 36 507 l 131 507 l 131 189 b 158 68 131 142 140 100 b 317 -11 188 18 239 -11 z "},"Ŭ":{"ha":986,"x_min":0,"x_max":0,"o":"m 492 -17 b 825 319 697 -17 825 103 l 825 822 l 940 822 l 940 914 l 604 914 l 604 822 l 725 822 l 725 319 b 493 78 725 156 639 78 b 263 322 347 78 263 160 l 263 822 l 383 822 l 383 914 l 46 914 l 46 822 l 161 822 l 161 315 b 492 -17 161 101 283 -17 z m 492 1003 b 713 1192 593 1003 678 1075 l 644 1221 b 492 1099 615 1147 558 1099 b 339 1221 431 1099 369 1142 l 271 1192 b 492 1003 307 1075 390 1003 z "},"ŭ":{"ha":768,"x_min":0,"x_max":0,"o":"m 317 -11 b 538 110 401 -11 482 44 l 538 0 l 725 0 l 725 83 l 631 83 l 631 592 l 438 592 l 438 507 l 535 507 l 535 182 b 340 78 479 125 414 78 b 243 128 292 78 261 93 b 226 207 232 147 226 174 l 226 592 l 36 592 l 36 507 l 131 507 l 131 189 b 158 68 131 142 140 100 b 317 -11 188 18 239 -11 z m 371 706 b 592 894 472 706 557 778 l 524 924 b 371 801 494 850 438 801 b 218 924 310 801 249 844 l 150 894 b 371 706 186 778 269 706 z "},"Û":{"ha":986,"x_min":0,"x_max":0,"o":"m 321 992 l 492 1121 l 663 992 l 706 1043 l 492 1247 l 278 1043 z m 492 -17 b 825 319 697 -17 825 103 l 825 822 l 940 822 l 940 914 l 604 914 l 604 822 l 725 822 l 725 319 b 493 78 725 156 639 78 b 263 322 347 78 263 160 l 263 822 l 383 822 l 383 914 l 46 914 l 46 822 l 161 822 l 161 315 b 492 -17 161 101 283 -17 z "},"û":{"ha":768,"x_min":0,"x_max":0,"o":"m 201 694 l 372 824 l 543 694 l 586 746 l 372 950 l 158 746 z m 317 -11 b 538 110 401 -11 482 44 l 538 0 l 725 0 l 725 83 l 631 83 l 631 592 l 438 592 l 438 507 l 535 507 l 535 182 b 340 78 479 125 414 78 b 243 128 292 78 261 93 b 226 207 232 147 226 174 l 226 592 l 36 592 l 36 507 l 131 507 l 131 189 b 158 68 131 142 140 100 b 317 -11 188 18 239 -11 z "},"Ü":{"ha":986,"x_min":0,"x_max":0,"o":"m 614 1018 b 692 1097 657 1018 692 1054 b 614 1178 692 1142 658 1178 b 535 1097 571 1178 535 1142 b 614 1018 535 1054 569 1018 z m 371 1018 b 450 1097 415 1018 450 1054 b 372 1178 450 1142 415 1178 b 293 1097 329 1178 293 1142 b 371 1018 293 1054 328 1018 z m 492 -17 b 825 319 697 -17 825 103 l 825 822 l 940 822 l 940 914 l 604 914 l 604 822 l 725 822 l 725 319 b 493 78 725 156 639 78 b 263 322 347 78 263 160 l 263 822 l 383 822 l 383 914 l 46 914 l 46 822 l 161 822 l 161 315 b 492 -17 161 101 283 -17 z "},"ü":{"ha":768,"x_min":0,"x_max":0,"o":"m 493 721 b 571 800 536 721 571 757 b 493 881 571 844 538 881 b 414 800 450 881 414 844 b 493 721 414 757 449 721 z m 250 721 b 329 800 294 721 329 757 b 251 881 329 844 294 881 b 172 800 208 881 172 844 b 250 721 172 757 207 721 z m 317 -11 b 538 110 401 -11 482 44 l 538 0 l 725 0 l 725 83 l 631 83 l 631 592 l 438 592 l 438 507 l 535 507 l 535 182 b 340 78 479 125 414 78 b 243 128 292 78 261 93 b 226 207 232 147 226 174 l 226 592 l 36 592 l 36 507 l 131 507 l 131 189 b 158 68 131 142 140 100 b 317 -11 188 18 239 -11 z "},"Ù":{"ha":986,"x_min":0,"x_max":0,"o":"m 492 -17 b 825 319 697 -17 825 103 l 825 822 l 940 822 l 940 914 l 604 914 l 604 822 l 725 822 l 725 319 b 493 78 725 156 639 78 b 263 322 347 78 263 160 l 263 822 l 383 822 l 383 914 l 46 914 l 46 822 l 161 822 l 161 315 b 492 -17 161 101 283 -17 z m 533 996 l 558 1029 l 392 1204 b 332 1236 372 1224 353 1236 b 276 1176 303 1236 276 1214 b 324 1115 276 1157 294 1133 z "},"ù":{"ha":768,"x_min":0,"x_max":0,"o":"m 317 -11 b 538 110 401 -11 482 44 l 538 0 l 725 0 l 725 83 l 631 83 l 631 592 l 438 592 l 438 507 l 535 507 l 535 182 b 340 78 479 125 414 78 b 243 128 292 78 261 93 b 226 207 232 147 226 174 l 226 592 l 36 592 l 36 507 l 131 507 l 131 189 b 158 68 131 142 140 100 b 317 -11 188 18 239 -11 z m 414 699 l 439 732 l 272 907 b 213 939 253 926 233 939 b 157 879 183 939 157 917 b 204 818 157 860 175 836 z "},"Ű":{"ha":986,"x_min":0,"x_max":0,"o":"m 492 -17 b 825 319 697 -17 825 103 l 825 822 l 940 822 l 940 914 l 604 914 l 604 822 l 725 822 l 725 319 b 493 78 725 156 639 78 b 263 322 347 78 263 160 l 263 822 l 383 822 l 383 914 l 46 914 l 46 822 l 161 822 l 161 315 b 492 -17 161 101 283 -17 z m 317 999 l 540 1115 b 593 1179 574 1133 593 1158 b 538 1236 593 1214 568 1236 b 478 1204 518 1236 499 1224 l 294 1032 z m 582 1004 l 818 1110 b 874 1174 856 1125 874 1150 b 819 1229 874 1204 853 1229 b 761 1203 803 1229 783 1221 l 564 1039 z "},"ű":{"ha":768,"x_min":0,"x_max":0,"o":"m 317 -11 b 538 110 401 -11 482 44 l 538 0 l 725 0 l 725 83 l 631 83 l 631 592 l 438 592 l 438 507 l 535 507 l 535 182 b 340 78 479 125 414 78 b 243 128 292 78 261 93 b 226 207 232 147 226 174 l 226 592 l 36 592 l 36 507 l 131 507 l 131 189 b 158 68 131 142 140 100 b 317 -11 188 18 239 -11 z m 197 701 l 421 818 b 474 882 454 836 474 861 b 418 939 474 917 449 939 b 358 907 399 939 379 926 l 175 735 z m 463 707 l 699 813 b 754 876 736 828 754 853 b 700 932 754 907 733 932 b 642 906 683 932 664 924 l 444 742 z "},"Ū":{"ha":986,"x_min":0,"x_max":0,"o":"m 492 -17 b 825 319 697 -17 825 103 l 825 822 l 940 822 l 940 914 l 604 914 l 604 822 l 725 822 l 725 319 b 493 78 725 156 639 78 b 263 322 347 78 263 160 l 263 822 l 383 822 l 383 914 l 46 914 l 46 822 l 161 822 l 161 315 b 492 -17 161 101 283 -17 z m 282 1040 l 704 1040 l 704 1128 l 282 1128 z "},"ū":{"ha":768,"x_min":0,"x_max":0,"o":"m 317 -11 b 538 110 401 -11 482 44 l 538 0 l 725 0 l 725 83 l 631 83 l 631 592 l 438 592 l 438 507 l 535 507 l 535 182 b 340 78 479 125 414 78 b 243 128 292 78 261 93 b 226 207 232 147 226 174 l 226 592 l 36 592 l 36 507 l 131 507 l 131 189 b 158 68 131 142 140 100 b 317 -11 188 18 239 -11 z m 161 743 l 583 743 l 583 831 l 161 831 z "},"Ų":{"ha":986,"x_min":0,"x_max":0,"o":"m 531 -279 b 651 -247 582 -279 629 -262 l 656 -174 b 549 -200 626 -189 589 -200 b 471 -128 496 -200 471 -172 b 550 -12 471 -83 501 -43 b 825 319 721 7 825 124 l 825 822 l 940 822 l 940 914 l 604 914 l 604 822 l 725 822 l 725 319 b 493 78 725 156 639 78 b 263 322 347 78 263 160 l 263 822 l 383 822 l 383 914 l 46 914 l 46 822 l 161 822 l 161 315 b 453 -15 161 114 268 -1 b 385 -150 413 -50 385 -96 b 531 -279 385 -226 433 -279 z "},"ų":{"ha":768,"x_min":0,"x_max":0,"o":"m 317 -11 b 538 110 401 -11 482 44 l 538 3 b 444 -150 483 -35 444 -86 b 592 -279 444 -226 494 -279 b 711 -247 643 -279 690 -262 l 717 -174 b 608 -200 686 -189 650 -200 b 532 -128 557 -200 532 -172 b 632 0 532 -76 572 -32 l 725 0 l 725 83 l 631 83 l 631 592 l 438 592 l 438 507 l 535 507 l 535 182 b 340 78 479 125 414 78 b 243 128 292 78 261 93 b 226 207 232 147 226 174 l 226 592 l 36 592 l 36 507 l 131 507 l 131 189 b 158 68 131 142 140 100 b 317 -11 188 18 239 -11 z "},"Ů":{"ha":986,"x_min":0,"x_max":0,"o":"m 492 983 b 644 1138 578 983 644 1051 b 492 1292 644 1224 578 1292 b 340 1138 407 1292 340 1224 b 492 983 340 1051 407 983 z m 492 1054 b 415 1138 447 1054 415 1092 b 492 1221 415 1183 447 1221 b 569 1138 538 1221 569 1183 b 492 1054 569 1092 538 1054 z m 492 -17 b 825 319 697 -17 825 103 l 825 822 l 940 822 l 940 914 l 604 914 l 604 822 l 725 822 l 725 319 b 493 78 725 156 639 78 b 263 322 347 78 263 160 l 263 822 l 383 822 l 383 914 l 46 914 l 46 822 l 161 822 l 161 315 b 492 -17 161 101 283 -17 z "},"ů":{"ha":768,"x_min":0,"x_max":0,"o":"m 372 686 b 525 840 458 686 525 754 b 372 994 525 926 458 994 b 221 840 288 994 221 926 b 372 686 221 754 288 686 z m 372 757 b 296 840 328 757 296 794 b 372 924 296 886 328 924 b 450 840 418 924 450 886 b 372 757 450 794 418 757 z m 317 -11 b 538 110 401 -11 482 44 l 538 0 l 725 0 l 725 83 l 631 83 l 631 592 l 438 592 l 438 507 l 535 507 l 535 182 b 340 78 479 125 414 78 b 243 128 292 78 261 93 b 226 207 232 147 226 174 l 226 592 l 36 592 l 36 507 l 131 507 l 131 189 b 158 68 131 142 140 100 b 317 -11 188 18 239 -11 z "},"Ẃ":{"ha":1375,"x_min":0,"x_max":0,"o":"m 647 996 l 857 1115 b 904 1176 886 1133 904 1157 b 849 1236 904 1214 878 1236 b 789 1204 828 1236 807 1224 l 621 1029 z m 394 -14 l 454 -14 l 692 615 l 928 -14 l 988 -14 l 1243 822 l 1349 822 l 1349 914 l 1019 914 l 1019 822 l 1139 822 l 953 183 l 722 804 l 665 804 l 436 182 l 244 822 l 360 822 l 360 914 l 29 914 l 29 822 l 135 822 z "},"ẃ":{"ha":967,"x_min":0,"x_max":0,"o":"m 442 699 l 651 818 b 699 879 681 836 699 860 b 643 939 699 917 672 939 b 583 907 622 939 601 926 l 415 732 z m 260 -25 l 311 -25 l 483 378 l 654 -25 l 707 -25 l 868 507 l 957 507 l 957 592 l 683 592 l 683 510 l 783 510 l 676 136 l 513 525 l 461 525 l 296 136 l 189 510 l 283 510 l 283 592 l 10 592 l 10 507 l 97 507 z "},"Ŵ":{"ha":1375,"x_min":0,"x_max":0,"o":"m 517 992 l 688 1121 l 858 992 l 901 1043 l 688 1247 l 474 1043 z m 394 -14 l 454 -14 l 692 615 l 928 -14 l 988 -14 l 1243 822 l 1349 822 l 1349 914 l 1019 914 l 1019 822 l 1139 822 l 953 183 l 722 804 l 665 804 l 436 182 l 244 822 l 360 822 l 360 914 l 29 914 l 29 822 l 135 822 z "},"ŵ":{"ha":967,"x_min":0,"x_max":0,"o":"m 311 694 l 482 824 l 653 694 l 696 746 l 482 950 l 268 746 z m 260 -25 l 311 -25 l 483 378 l 654 -25 l 707 -25 l 868 507 l 957 507 l 957 592 l 683 592 l 683 510 l 783 510 l 676 136 l 513 525 l 461 525 l 296 136 l 189 510 l 283 510 l 283 592 l 10 592 l 10 507 l 97 507 z "},"Ẅ":{"ha":1375,"x_min":0,"x_max":0,"o":"m 810 1018 b 888 1097 853 1018 888 1054 b 810 1178 888 1142 854 1178 b 731 1097 767 1178 731 1142 b 810 1018 731 1054 765 1018 z m 567 1018 b 646 1097 611 1018 646 1054 b 568 1178 646 1142 611 1178 b 489 1097 525 1178 489 1142 b 567 1018 489 1054 524 1018 z m 394 -14 l 454 -14 l 692 615 l 928 -14 l 988 -14 l 1243 822 l 1349 822 l 1349 914 l 1019 914 l 1019 822 l 1139 822 l 953 183 l 722 804 l 665 804 l 436 182 l 244 822 l 360 822 l 360 914 l 29 914 l 29 822 l 135 822 z "},"ẅ":{"ha":967,"x_min":0,"x_max":0,"o":"m 604 721 b 682 800 647 721 682 757 b 604 881 682 844 649 881 b 525 800 561 881 525 844 b 604 721 525 757 560 721 z m 361 721 b 440 800 406 721 440 757 b 363 881 440 844 406 881 b 283 800 319 881 283 844 b 361 721 283 757 318 721 z m 260 -25 l 311 -25 l 483 378 l 654 -25 l 707 -25 l 868 507 l 957 507 l 957 592 l 683 592 l 683 510 l 783 510 l 676 136 l 513 525 l 461 525 l 296 136 l 189 510 l 283 510 l 283 592 l 10 592 l 10 507 l 97 507 z "},"Ẁ":{"ha":1375,"x_min":0,"x_max":0,"o":"m 394 -14 l 454 -14 l 692 615 l 928 -14 l 988 -14 l 1243 822 l 1349 822 l 1349 914 l 1019 914 l 1019 822 l 1139 822 l 953 183 l 722 804 l 665 804 l 436 182 l 244 822 l 360 822 l 360 914 l 29 914 l 29 822 l 135 822 z m 729 996 l 754 1029 l 588 1204 b 528 1236 568 1224 549 1236 b 472 1176 499 1236 472 1214 b 519 1115 472 1157 490 1133 z "},"ẁ":{"ha":967,"x_min":0,"x_max":0,"o":"m 260 -25 l 311 -25 l 483 378 l 654 -25 l 707 -25 l 868 507 l 957 507 l 957 592 l 683 592 l 683 510 l 783 510 l 676 136 l 513 525 l 461 525 l 296 136 l 189 510 l 283 510 l 283 592 l 10 592 l 10 507 l 97 507 z m 524 699 l 549 732 l 382 907 b 322 939 363 926 343 939 b 267 879 293 939 267 917 b 314 818 267 860 285 836 z "},"Ý":{"ha":892,"x_min":0,"x_max":0,"o":"m 265 0 l 626 0 l 626 92 l 497 92 l 497 367 l 768 822 l 867 822 l 867 914 l 558 914 l 558 822 l 657 822 l 447 454 l 239 822 l 333 822 l 333 914 l 26 914 l 26 822 l 124 822 l 393 365 l 393 92 l 265 92 z m 404 996 l 614 1115 b 661 1176 643 1133 661 1157 b 606 1236 661 1214 635 1236 b 546 1204 585 1236 564 1224 l 378 1029 z "},"ý":{"ha":713,"x_min":0,"x_max":0,"o":"m 294 -178 b 343 -93 313 -153 328 -125 l 622 507 l 703 507 l 703 592 l 431 592 l 431 510 l 528 510 l 358 129 b 192 510 360 129 192 510 l 285 510 l 285 592 l 8 592 l 8 507 l 90 507 l 313 33 l 276 -40 b 232 -124 260 -74 246 -103 b 161 -190 206 -164 183 -182 b 99 -139 153 -164 132 -139 b 39 -200 65 -139 39 -161 b 142 -278 39 -246 86 -278 b 294 -178 201 -278 250 -242 z m 315 699 l 525 818 b 572 879 554 836 572 860 b 517 939 572 917 546 939 b 457 907 496 939 475 926 l 289 732 z "},"Ŷ":{"ha":892,"x_min":0,"x_max":0,"o":"m 265 0 l 626 0 l 626 92 l 497 92 l 497 367 l 768 822 l 867 822 l 867 914 l 558 914 l 558 822 l 657 822 l 447 454 l 239 822 l 333 822 l 333 914 l 26 914 l 26 822 l 124 822 l 393 365 l 393 92 l 265 92 z m 274 992 l 444 1121 l 615 992 l 658 1043 l 444 1247 l 231 1043 z "},"ŷ":{"ha":713,"x_min":0,"x_max":0,"o":"m 294 -178 b 343 -93 313 -153 328 -125 l 622 507 l 703 507 l 703 592 l 431 592 l 431 510 l 528 510 l 358 129 b 192 510 360 129 192 510 l 285 510 l 285 592 l 8 592 l 8 507 l 90 507 l 313 33 l 276 -40 b 232 -124 260 -74 246 -103 b 161 -190 206 -164 183 -182 b 99 -139 153 -164 132 -139 b 39 -200 65 -139 39 -161 b 142 -278 39 -246 86 -278 b 294 -178 201 -278 250 -242 z m 185 694 l 356 824 l 526 694 l 569 746 l 356 950 l 142 746 z "},"Ÿ":{"ha":892,"x_min":0,"x_max":0,"o":"m 265 0 l 626 0 l 626 92 l 497 92 l 497 367 l 768 822 l 867 822 l 867 914 l 558 914 l 558 822 l 657 822 l 447 454 l 239 822 l 333 822 l 333 914 l 26 914 l 26 822 l 124 822 l 393 365 l 393 92 l 265 92 z m 565 1018 b 643 1097 608 1018 643 1054 b 565 1178 643 1142 610 1178 b 486 1097 522 1178 486 1142 b 565 1018 486 1054 521 1018 z m 322 1018 b 401 1097 367 1018 401 1054 b 324 1178 401 1142 367 1178 b 244 1097 281 1178 244 1142 b 322 1018 244 1054 279 1018 z "},"ÿ":{"ha":713,"x_min":0,"x_max":0,"o":"m 294 -178 b 343 -93 313 -153 328 -125 l 622 507 l 703 507 l 703 592 l 431 592 l 431 510 l 528 510 l 358 129 b 192 510 360 129 192 510 l 285 510 l 285 592 l 8 592 l 8 507 l 90 507 l 313 33 l 276 -40 b 232 -124 260 -74 246 -103 b 161 -190 206 -164 183 -182 b 99 -139 153 -164 132 -139 b 39 -200 65 -139 39 -161 b 142 -278 39 -246 86 -278 b 294 -178 201 -278 250 -242 z m 476 721 b 554 800 519 721 554 757 b 476 881 554 844 521 881 b 397 800 433 881 397 844 b 476 721 397 757 432 721 z m 233 721 b 313 800 278 721 313 757 b 235 881 313 844 278 881 b 156 800 192 881 156 844 b 233 721 156 757 190 721 z "},"Ỳ":{"ha":892,"x_min":0,"x_max":0,"o":"m 265 0 l 626 0 l 626 92 l 497 92 l 497 367 l 768 822 l 867 822 l 867 914 l 558 914 l 558 822 l 657 822 l 447 454 l 239 822 l 333 822 l 333 914 l 26 914 l 26 822 l 124 822 l 393 365 l 393 92 l 265 92 z m 485 996 l 510 1029 l 343 1204 b 283 1236 324 1224 304 1236 b 228 1176 254 1236 228 1214 b 275 1115 228 1157 246 1133 z "},"ỳ":{"ha":713,"x_min":0,"x_max":0,"o":"m 294 -178 b 343 -93 313 -153 328 -125 l 622 507 l 703 507 l 703 592 l 431 592 l 431 510 l 528 510 l 358 129 b 192 510 360 129 192 510 l 285 510 l 285 592 l 8 592 l 8 507 l 90 507 l 313 33 l 276 -40 b 232 -124 260 -74 246 -103 b 161 -190 206 -164 183 -182 b 99 -139 153 -164 132 -139 b 39 -200 65 -139 39 -161 b 142 -278 39 -246 86 -278 b 294 -178 201 -278 250 -242 z m 396 699 l 421 732 l 254 907 b 194 939 235 926 215 939 b 139 879 165 939 139 917 b 186 818 139 860 157 836 z "},"Ź":{"ha":842,"x_min":0,"x_max":0,"o":"m 379 996 l 589 1115 b 636 1176 618 1133 636 1157 b 581 1236 636 1214 610 1236 b 521 1204 560 1236 539 1224 l 353 1029 z m 63 0 l 779 0 l 779 231 l 686 231 l 686 86 l 210 86 l 769 864 l 769 914 l 92 914 l 92 683 l 186 683 l 186 828 l 622 828 l 63 50 z "},"ź":{"ha":625,"x_min":0,"x_max":0,"o":"m 271 699 l 481 818 b 528 879 510 836 528 860 b 472 939 528 917 501 939 b 413 907 451 939 431 926 l 244 732 z m 51 0 l 575 0 l 575 194 l 490 194 l 490 79 l 190 79 l 569 549 l 569 592 l 75 592 l 75 397 l 160 397 l 160 513 l 431 513 l 51 43 z "},"Ž":{"ha":842,"x_min":0,"x_max":0,"o":"m 589 1249 l 418 1119 l 247 1249 l 204 1197 l 418 993 l 632 1197 z m 63 0 l 779 0 l 779 231 l 686 231 l 686 86 l 210 86 l 769 864 l 769 914 l 92 914 l 92 683 l 186 683 l 186 828 l 622 828 l 63 50 z "},"ž":{"ha":625,"x_min":0,"x_max":0,"o":"m 483 951 l 313 822 l 142 951 l 99 900 l 313 696 l 526 900 z m 51 0 l 575 0 l 575 194 l 490 194 l 490 79 l 190 79 l 569 549 l 569 592 l 75 592 l 75 397 l 160 397 l 160 513 l 431 513 l 51 43 z "},"Ż":{"ha":842,"x_min":0,"x_max":0,"o":"m 63 0 l 779 0 l 779 231 l 686 231 l 686 86 l 210 86 l 769 864 l 769 914 l 92 914 l 92 683 l 186 683 l 186 828 l 622 828 l 63 50 z m 418 1011 b 499 1093 463 1011 499 1049 b 419 1175 499 1139 464 1175 b 339 1093 375 1175 339 1139 b 418 1011 339 1049 374 1011 z "},"ż":{"ha":625,"x_min":0,"x_max":0,"o":"m 51 0 l 575 0 l 575 194 l 490 194 l 490 79 l 190 79 l 569 549 l 569 592 l 75 592 l 75 397 l 160 397 l 160 513 l 431 513 l 51 43 z m 311 714 b 392 796 356 714 392 751 b 313 878 392 842 357 878 b 232 796 268 878 232 842 b 311 714 232 751 267 714 z "},"ə":{"ha":674,"x_min":0,"x_max":0,"o":"m 326 -11 b 617 297 506 -11 617 133 b 301 603 617 478 490 603 b 89 544 226 603 150 583 l 81 453 b 288 518 150 493 210 518 b 515 324 415 518 501 453 l 61 324 b 56 268 57 308 56 290 b 326 -11 56 121 150 -11 z m 332 71 b 153 247 219 71 158 143 l 515 247 b 332 71 500 133 421 71 z "},"ß":{"ha":775,"x_min":0,"x_max":0,"o":"m 511 -11 b 731 193 633 -11 731 64 b 568 414 731 301 658 363 b 465 519 496 454 465 481 b 526 626 465 556 479 581 b 617 819 583 681 617 738 b 394 1028 617 940 522 1028 b 197 928 306 1028 238 992 b 157 765 171 885 157 829 l 157 592 l 51 592 l 51 507 l 157 507 l 157 83 l 61 83 l 61 0 l 253 0 l 253 778 b 274 876 253 815 260 850 b 386 943 297 919 335 943 b 521 818 461 943 521 888 b 453 671 521 764 503 721 b 375 517 399 617 375 574 b 522 336 375 426 433 385 b 638 190 593 296 638 257 b 507 67 638 111 582 67 b 460 76 493 67 468 71 b 469 110 463 83 469 97 b 408 168 469 144 440 168 b 347 103 375 168 347 140 b 511 -11 347 50 403 -11 z "},"ﬀ":{"ha":842,"x_min":0,"x_max":0,"o":"m 253 592 l 253 763 b 286 889 253 824 264 865 b 326 914 297 903 311 911 b 399 856 338 878 361 856 b 458 921 432 856 458 882 b 350 1000 458 969 414 1000 b 219 947 293 1000 253 981 b 157 740 176 904 157 835 l 157 592 l 51 592 l 51 507 l 157 507 l 157 83 l 61 83 l 61 0 l 365 0 l 365 83 l 253 83 l 253 507 l 561 507 l 561 83 l 468 83 l 468 0 l 772 0 l 772 83 l 657 83 l 657 507 l 810 507 l 810 592 l 657 592 l 657 790 b 689 914 657 849 668 889 b 735 942 700 929 717 938 b 807 883 746 908 768 883 b 868 949 840 883 868 910 b 758 1028 868 997 822 1028 b 624 974 700 1028 658 1007 b 561 768 578 928 561 864 l 561 592 z "},"ﬁ":{"ha":792,"x_min":0,"x_max":0,"o":"m 644 592 l 253 592 l 253 772 b 292 903 253 832 268 875 b 367 942 314 931 343 942 b 388 940 372 942 381 942 l 385 939 b 451 858 381 897 410 858 b 518 928 489 858 518 889 b 381 1028 518 979 467 1028 b 232 971 321 1028 271 1007 b 157 750 183 925 157 851 l 157 592 l 51 592 l 51 507 l 157 507 l 157 83 l 61 83 l 61 0 l 364 0 l 364 83 l 253 83 l 253 507 l 549 507 l 549 83 l 453 83 l 453 0 l 744 0 l 744 83 l 644 83 z "},"ﬂ":{"ha":796,"x_min":0,"x_max":0,"o":"m 457 83 l 457 0 l 751 0 l 751 83 l 651 83 l 651 1022 l 592 1022 l 567 971 b 408 1028 526 1008 472 1028 b 226 958 333 1028 272 1004 b 157 756 181 911 157 843 l 157 592 l 51 592 l 51 507 l 157 507 l 157 83 l 61 83 l 61 0 l 365 0 l 365 83 l 253 83 l 253 507 l 556 507 l 556 83 z m 404 943 b 511 900 446 943 485 926 l 517 893 b 501 846 507 879 501 863 b 556 778 501 813 524 785 l 556 761 l 556 592 l 253 592 l 253 764 b 299 901 253 821 268 871 b 404 943 324 928 361 943 z "},"ﬃ":{"ha":1190,"x_min":0,"x_max":0,"o":"m 917 928 b 779 1028 917 979 865 1028 b 631 971 719 1028 669 1007 b 556 750 582 925 556 851 l 556 592 l 253 592 l 253 754 b 285 875 253 803 260 842 b 376 917 304 901 336 917 b 401 913 385 917 393 915 b 469 836 401 869 431 836 b 529 897 506 836 529 860 b 463 985 529 938 503 968 b 378 1000 439 994 410 1000 b 219 936 307 1000 257 976 b 157 747 174 889 157 825 l 157 592 l 51 592 l 51 507 l 157 507 l 157 83 l 61 83 l 61 0 l 365 0 l 365 83 l 253 83 l 253 507 l 556 507 l 556 83 l 463 83 l 463 0 l 763 0 l 763 83 l 651 83 l 651 507 l 947 507 l 947 83 l 851 83 l 851 0 l 1143 0 l 1143 83 l 1043 83 l 1043 592 l 651 592 l 651 772 b 694 908 651 838 671 883 b 764 942 717 932 743 942 b 783 939 769 942 776 940 b 850 858 779 899 807 858 b 917 928 888 858 917 889 z "},"ﬄ":{"ha":1194,"x_min":0,"x_max":0,"o":"m 253 754 b 285 875 253 803 260 842 b 376 917 304 901 336 917 b 401 914 385 917 393 915 b 469 836 401 869 431 836 b 529 897 506 836 529 860 b 463 985 529 938 503 968 b 378 1000 439 994 410 1000 b 219 936 307 1000 257 976 b 157 747 174 889 157 825 l 157 592 l 51 592 l 51 507 l 157 507 l 157 83 l 61 83 l 61 0 l 365 0 l 365 83 l 253 83 l 253 507 l 556 507 l 556 83 l 463 83 l 463 0 l 764 0 l 764 83 l 651 83 l 651 507 l 954 507 l 954 83 l 856 83 l 856 0 l 1150 0 l 1150 83 l 1050 83 l 1050 1022 l 990 1022 l 965 971 b 807 1028 925 1008 871 1028 b 625 958 732 1028 669 1004 b 556 756 579 911 556 843 l 556 592 l 253 592 z m 651 764 b 696 901 651 821 667 871 b 803 943 722 928 760 943 b 910 900 844 943 883 926 l 915 893 b 900 846 906 879 900 863 b 954 778 900 813 922 783 l 954 761 l 954 592 l 651 592 z "},".":{"ha":286,"x_min":0,"x_max":0,"o":"m 143 -11 b 228 76 192 -11 228 28 b 143 164 228 125 192 164 b 58 76 94 164 58 125 b 143 -11 58 28 94 -11 z "},",":{"ha":286,"x_min":0,"x_max":0,"o":"m 28 -210 b 229 54 178 -129 229 -22 b 139 163 229 125 188 163 b 56 82 94 163 56 126 b 128 -1 56 40 89 6 b 1 -172 125 -39 93 -103 z "},":":{"ha":313,"x_min":0,"x_max":0,"o":"m 157 358 b 242 444 204 358 242 397 b 157 531 242 492 204 531 b 72 444 110 531 72 492 b 157 358 72 397 110 358 z m 157 -11 b 242 75 204 -11 242 28 b 157 161 242 122 204 161 b 72 75 110 161 72 122 b 157 -11 72 28 110 -11 z "},";":{"ha":313,"x_min":0,"x_max":0,"o":"m 157 358 b 242 444 204 358 242 397 b 157 531 242 492 204 531 b 72 444 110 531 72 492 b 157 358 72 397 110 358 z m 43 -207 b 243 54 192 -128 243 -21 b 153 160 243 124 201 160 b 71 81 108 160 71 124 b 142 -1 71 40 103 6 b 17 -169 140 -39 108 -101 z "},"…":{"ha":861,"x_min":0,"x_max":0,"o":"m 715 -11 b 799 74 763 -11 799 26 b 715 158 799 121 763 158 b 633 74 668 158 633 121 b 715 -11 633 26 668 -11 z m 431 -11 b 514 74 478 -11 514 26 b 431 158 514 121 478 158 b 347 74 383 158 347 121 b 431 -11 347 26 383 -11 z m 146 -11 b 229 74 193 -11 229 26 b 146 158 229 121 193 158 b 63 74 99 158 63 121 b 146 -11 63 26 99 -11 z "},"·":{"ha":364,"x_min":0,"x_max":0,"o":"m 182 265 b 267 353 229 265 267 304 b 182 440 267 401 229 440 b 96 353 133 440 96 401 b 182 265 96 304 133 265 z "},"•":{"ha":401,"x_min":0,"x_max":0,"o":"m 200 239 b 335 376 276 239 335 300 b 200 517 335 454 276 517 b 65 376 124 517 65 454 b 200 239 65 300 124 239 z "},"&":{"ha":860,"x_min":0,"x_max":0,"o":"m 826 371 l 826 453 l 583 453 l 583 371 l 663 371 b 596 235 646 324 624 276 b 449 375 536 292 449 375 b 365 456 415 406 388 432 b 560 694 507 540 560 607 b 358 875 560 801 472 875 b 139 668 215 875 139 764 b 231 468 139 607 151 558 b 40 213 111 400 40 324 b 315 -12 40 94 132 -12 b 603 111 428 -12 526 29 b 746 -18 657 61 733 -7 l 806 47 b 658 179 793 57 714 126 b 744 371 693 232 719 296 z m 315 74 b 142 215 199 74 142 146 b 283 413 142 296 185 353 b 388 313 311 383 346 350 b 540 169 388 313 479 228 b 315 74 482 111 408 74 z m 238 665 b 358 794 238 738 286 794 b 461 694 418 794 461 751 b 311 510 461 631 431 583 b 238 665 247 585 238 625 z "},"!":{"ha":354,"x_min":0,"x_max":0,"o":"m 150 253 l 203 253 l 239 913 l 114 913 z m 176 -11 b 257 69 221 -11 257 25 b 176 151 257 114 221 151 b 97 69 132 151 97 114 b 176 -11 97 25 132 -11 z "},"¡":{"ha":354,"x_min":0,"x_max":0,"o":"m 176 761 b 257 843 221 761 257 799 b 176 924 257 888 221 924 b 97 843 132 924 97 888 b 176 761 97 799 132 761 z m 114 0 l 239 0 l 203 660 l 150 660 z "},"?":{"ha":619,"x_min":0,"x_max":0,"o":"m 29 733 b 111 643 29 679 69 643 b 176 711 150 643 176 674 b 133 769 176 736 160 763 b 140 782 135 774 138 778 b 292 842 169 821 224 842 b 476 682 407 842 476 778 b 229 476 476 585 394 508 l 251 253 l 310 253 l 324 415 b 579 685 486 453 579 561 b 293 931 579 824 469 931 b 64 831 194 931 108 889 b 29 733 42 801 29 768 z m 282 -11 b 361 69 326 -11 361 25 b 282 151 361 114 326 151 b 203 69 238 151 203 114 b 282 -11 203 25 238 -11 z "},"¿":{"ha":619,"x_min":0,"x_max":0,"o":"m 590 181 b 508 271 590 235 550 271 b 443 203 469 271 443 240 b 486 143 443 176 458 151 b 479 132 483 140 482 136 b 328 72 451 93 397 72 b 143 232 213 72 143 136 b 390 438 143 329 225 406 l 368 661 l 310 661 l 296 499 b 40 229 133 461 40 353 b 326 -17 40 90 150 -17 b 556 83 426 -17 511 25 b 590 181 578 113 590 146 z m 338 925 b 258 844 293 925 258 889 b 338 763 258 800 293 763 b 418 844 382 763 418 800 b 338 925 418 889 382 925 z "},"“":{"ha":556,"x_min":0,"x_max":0,"o":"m 403 571 b 486 653 447 571 486 607 b 414 735 486 693 453 728 b 538 917 415 774 446 850 l 513 954 b 311 681 364 876 311 757 b 403 571 311 608 354 571 z m 136 571 b 219 653 181 571 219 607 b 147 735 219 693 186 728 b 271 917 149 774 179 850 l 246 954 b 44 681 97 876 44 757 b 136 571 44 608 86 571 z "},"”":{"ha":556,"x_min":0,"x_max":0,"o":"m 310 556 b 511 831 458 635 511 753 b 419 939 511 901 468 939 b 336 857 375 939 336 903 b 408 775 336 817 369 782 b 285 593 407 736 376 660 z m 43 556 b 243 831 190 635 243 753 b 153 939 243 901 201 939 b 68 857 108 939 68 903 b 142 775 68 817 103 782 b 18 593 139 736 108 660 z "},"‘":{"ha":288,"x_min":0,"x_max":0,"o":"m 136 571 b 219 653 181 571 219 607 b 147 735 219 693 186 728 b 271 917 149 774 179 850 l 246 954 b 44 681 97 876 44 757 b 136 571 44 608 86 571 z "},"’":{"ha":288,"x_min":0,"x_max":0,"o":"m 43 556 b 243 831 190 635 243 753 b 153 939 243 901 201 939 b 68 857 108 939 68 903 b 142 775 68 817 103 782 b 18 593 139 736 108 660 z "},"„":{"ha":558,"x_min":0,"x_max":0,"o":"m 299 -206 b 496 53 447 -122 496 -24 b 408 158 496 121 456 158 b 326 79 364 158 326 122 b 397 -1 326 39 358 6 b 274 -169 394 -39 364 -101 z m 31 -206 b 228 53 179 -122 228 -24 b 140 158 228 121 188 158 b 58 79 96 158 58 122 b 129 -1 58 39 90 6 b 6 -169 126 -39 96 -101 z "},"‚":{"ha":290,"x_min":0,"x_max":0,"o":"m 29 -210 b 232 54 181 -129 232 -22 b 142 163 232 125 190 163 b 58 82 97 163 58 126 b 129 -1 58 40 90 6 b 3 -172 128 -39 96 -103 z "},"«":{"ha":674,"x_min":0,"x_max":0,"o":"m 547 149 l 607 206 l 435 382 l 607 558 l 547 615 l 308 382 z m 281 149 l 340 206 l 168 382 l 340 558 l 281 615 l 42 382 z "},"»":{"ha":674,"x_min":0,"x_max":0,"o":"m 393 149 l 632 382 l 393 615 l 333 558 l 506 382 l 333 206 z m 128 149 l 367 382 l 128 615 l 68 558 l 240 382 l 68 206 z "},"‹":{"ha":408,"x_min":0,"x_max":0,"o":"m 281 149 l 340 206 l 168 382 l 340 558 l 281 615 l 42 382 z "},"›":{"ha":408,"x_min":0,"x_max":0,"o":"m 128 149 l 367 382 l 128 615 l 68 558 l 240 382 l 68 206 z "},"-":{"ha":424,"x_min":0,"x_max":0,"o":"m 49 338 l 375 338 l 375 435 l 49 435 z "},"–":{"ha":651,"x_min":0,"x_max":0,"o":"m 31 339 l 621 339 l 621 433 l 31 433 z "},"—":{"ha":1047,"x_min":0,"x_max":0,"o":"m 31 339 l 1017 339 l 1017 433 l 31 433 z "},"_":{"ha":740,"x_min":0,"x_max":0,"o":"m -8 -206 l 749 -206 l 749 -112 l -8 -112 z "},"/":{"ha":646,"x_min":0,"x_max":0,"o":"m 54 -290 l 624 993 l 539 1031 l -31 -253 z "},"\\":{"ha":646,"x_min":0,"x_max":0,"o":"m 592 -290 l 676 -253 l 107 1031 l 22 993 z "},"|":{"ha":375,"x_min":0,"x_max":0,"o":"m 144 -278 l 231 -278 l 231 1017 l 144 1017 z "},"(":{"ha":506,"x_min":0,"x_max":0,"o":"m 486 -314 l 536 -242 b 197 361 336 -118 197 100 b 536 965 197 625 336 842 l 486 1038 b 96 361 265 910 96 658 b 486 -314 96 64 265 -187 z "},")":{"ha":506,"x_min":0,"x_max":0,"o":"m 19 -314 b 410 361 240 -187 410 64 b 19 1038 410 658 240 910 l -31 965 b 308 361 169 842 308 624 b -31 -242 308 99 169 -118 z "},"[":{"ha":490,"x_min":0,"x_max":0,"o":"m 140 -278 l 458 -278 l 458 -189 l 239 -189 l 239 928 l 458 928 l 458 1017 l 140 1017 z "},"]":{"ha":490,"x_min":0,"x_max":0,"o":"m 32 -278 l 350 -278 l 350 1017 l 32 1017 l 32 928 l 253 928 l 253 -189 l 32 -189 z "},"{":{"ha":482,"x_min":0,"x_max":0,"o":"m 410 -301 l 410 -225 b 188 -85 244 -217 188 -149 b 272 51 188 -43 224 0 b 365 214 321 103 365 154 b 203 367 365 272 322 342 b 365 519 322 392 365 461 b 272 682 365 579 321 631 b 188 818 224 733 188 776 b 410 958 188 882 244 950 l 410 1035 b 92 818 199 1029 92 940 b 200 629 92 740 133 694 b 265 521 236 593 265 561 b 99 410 265 453 193 410 l 72 410 l 72 324 l 99 324 b 265 213 193 324 265 281 b 200 104 265 172 236 140 b 92 -85 133 39 92 -7 b 410 -301 92 -207 199 -296 z "},"}":{"ha":482,"x_min":0,"x_max":0,"o":"m 72 -301 b 389 -85 283 -296 389 -207 b 282 104 389 -7 347 39 b 215 213 244 140 215 172 b 383 324 215 281 289 324 l 408 324 l 408 410 l 383 410 b 215 521 289 410 215 453 b 282 629 215 561 244 593 b 389 818 347 694 389 740 b 72 1035 389 940 283 1029 l 72 958 b 294 818 238 950 294 882 b 210 682 294 776 258 733 b 117 519 161 631 117 579 b 279 367 117 461 160 392 b 117 214 160 342 117 272 b 210 51 117 154 161 103 b 294 -85 258 0 294 -43 b 72 -225 294 -149 238 -217 z "},"@":{"ha":1118,"x_min":0,"x_max":0,"o":"m 468 -244 b 718 -181 557 -244 643 -222 l 692 -131 b 469 -186 624 -167 549 -186 b 126 178 263 -186 126 -25 b 656 786 126 515 365 786 b 996 446 867 786 996 639 b 804 117 996 274 910 117 b 754 226 753 117 735 156 l 832 538 l 743 538 l 713 429 b 563 543 696 492 646 543 b 308 243 426 543 308 404 b 479 50 308 124 382 50 b 663 167 554 50 622 96 b 790 50 660 106 701 50 b 1060 446 942 50 1060 226 b 656 844 1060 682 903 844 b 63 179 335 844 63 550 b 468 -244 63 -64 225 -244 z m 514 132 b 408 251 444 132 408 181 b 575 458 408 360 481 458 b 690 340 647 458 690 415 b 514 132 690 236 613 132 z "},"©":{"ha":840,"x_min":0,"x_max":0,"o":"m 415 -11 b 772 353 619 -11 772 151 b 415 717 772 554 621 717 b 58 353 211 717 58 554 b 415 -11 58 150 211 -11 z m 415 39 b 117 353 244 39 117 179 b 415 668 117 528 244 668 b 715 353 588 668 715 528 b 415 39 715 179 586 39 z m 426 494 b 500 471 467 494 490 483 b 494 451 497 467 494 458 b 528 417 494 432 510 417 b 564 457 549 417 564 435 b 426 543 564 496 511 543 b 243 357 331 543 243 468 b 431 174 243 251 321 174 b 569 233 483 174 536 194 l 538 269 b 432 224 507 240 472 224 b 301 360 353 224 301 286 b 426 494 301 435 356 494 z "},"℗":{"ha":840,"x_min":0,"x_max":0,"o":"m 415 -11 b 772 353 619 -11 772 151 b 415 717 772 554 621 717 b 58 353 211 717 58 554 b 415 -11 58 150 211 -11 z m 415 39 b 117 353 244 39 117 179 b 415 668 117 528 244 668 b 715 353 588 668 715 528 b 415 39 715 179 586 39 z m 436 293 b 576 415 521 293 576 335 b 440 532 576 488 518 532 l 296 532 l 296 486 l 340 486 l 340 213 l 296 213 l 296 167 l 440 167 l 440 213 l 393 213 l 393 293 z m 440 339 b 393 340 415 339 401 340 l 393 486 l 438 486 b 524 415 488 486 524 458 b 440 339 524 368 492 339 z "},"®":{"ha":544,"x_min":0,"x_max":0,"o":"m 272 467 b 521 714 410 467 521 576 b 272 963 521 853 410 963 b 24 714 133 963 24 853 b 272 467 24 576 133 467 z m 272 918 b 471 714 383 918 471 829 b 272 511 471 600 381 511 b 74 714 163 511 74 600 b 272 918 74 829 163 918 z m 178 600 l 276 600 l 276 638 l 247 638 l 247 689 l 279 689 l 326 600 l 383 600 l 383 638 l 356 638 l 322 701 b 365 765 347 713 365 735 b 271 836 365 813 325 836 l 178 836 l 178 799 l 204 799 l 204 638 l 178 638 z m 247 726 l 247 799 l 269 799 b 321 763 301 799 321 788 b 269 726 321 739 301 726 z "},"℠":{"ha":789,"x_min":0,"x_max":0,"o":"m 319 569 l 465 569 l 465 622 l 422 622 l 429 832 l 529 617 l 557 617 l 656 832 l 664 622 l 621 622 l 621 569 l 768 569 l 768 622 l 719 622 l 708 861 l 760 861 l 760 914 l 638 914 l 544 704 l 450 914 l 329 914 l 329 861 l 379 861 l 368 622 l 319 622 z m 144 563 b 269 664 217 563 269 600 b 160 771 269 726 222 750 b 89 826 122 783 89 796 b 149 869 89 854 111 869 b 201 857 171 869 190 864 b 194 840 197 853 194 849 b 231 810 194 824 207 810 b 265 847 250 810 265 824 b 149 921 265 888 217 921 b 31 824 78 921 31 878 b 142 718 31 763 78 740 b 211 661 181 706 211 690 b 143 613 211 631 185 613 b 83 631 117 613 96 621 b 89 651 86 636 89 642 b 53 682 89 665 76 682 b 18 643 32 682 18 665 b 144 563 18 601 71 563 z "},"™":{"ha":851,"x_min":0,"x_max":0,"o":"m 382 569 l 528 569 l 528 622 l 485 622 l 492 832 l 592 617 l 619 617 l 718 832 l 726 622 l 683 622 l 683 569 l 831 569 l 831 622 l 782 622 l 771 861 l 822 861 l 822 914 l 700 914 l 607 704 l 513 914 l 392 914 l 392 861 l 442 861 l 431 622 l 382 622 z m 100 569 l 260 569 l 260 622 l 210 622 l 210 864 l 289 864 l 289 810 l 343 810 l 343 914 l 18 914 l 18 810 l 71 810 l 71 864 l 151 864 l 151 622 l 100 622 z "},"*":{"ha":563,"x_min":0,"x_max":0,"o":"m 450 740 b 508 811 496 744 519 776 b 419 831 497 844 457 853 l 296 758 l 328 899 b 281 976 339 942 318 976 b 233 899 244 976 224 942 l 267 758 l 143 831 b 54 811 106 853 65 844 b 113 740 43 776 67 744 l 257 728 l 150 633 b 142 543 114 604 113 564 b 226 578 174 519 208 536 l 281 710 l 336 578 b 421 543 353 536 389 519 b 413 633 450 564 447 604 l 306 728 z "},"†":{"ha":647,"x_min":0,"x_max":0,"o":"m 299 -3 l 349 -3 l 369 538 l 485 551 b 553 472 483 504 517 472 b 621 542 594 472 621 506 b 529 621 621 586 586 621 b 486 615 515 621 499 618 l 347 586 l 383 799 b 324 889 393 853 365 889 b 264 799 282 889 254 853 l 299 586 l 161 615 b 118 621 147 618 131 621 b 26 542 61 621 26 586 b 93 472 26 506 53 472 b 163 551 129 472 163 504 l 278 538 z "},"‡":{"ha":660,"x_min":0,"x_max":0,"o":"m 329 -172 b 388 -78 372 -172 399 -135 l 356 97 l 475 72 b 515 67 489 69 503 67 b 608 143 568 67 608 99 b 542 208 608 178 581 208 b 474 132 506 208 472 181 l 378 143 l 353 358 l 378 574 l 474 585 b 542 508 472 536 506 508 b 608 575 581 508 608 540 b 515 651 608 619 568 651 b 475 646 503 651 489 649 l 356 621 l 388 794 b 329 889 399 851 372 889 b 272 794 288 889 261 853 l 304 621 l 185 646 b 144 651 171 649 157 651 b 51 575 92 651 51 619 b 118 508 51 540 78 508 b 186 585 154 508 188 536 l 282 574 l 307 358 l 282 143 l 186 132 b 118 208 188 181 154 208 b 51 143 78 208 51 178 b 144 67 51 99 92 67 b 185 72 157 67 171 69 l 304 97 l 272 -78 b 329 -172 261 -135 288 -172 z "},"^":{"ha":619,"x_min":0,"x_max":0,"o":"m 140 496 l 310 619 l 479 496 l 524 549 l 310 753 l 96 549 z "},"~":{"ha":600,"x_min":0,"x_max":0,"o":"m 399 265 b 533 426 464 265 526 331 l 458 444 b 394 363 449 393 426 363 b 324 401 374 363 356 374 b 201 456 292 429 256 456 b 67 294 136 456 75 390 l 142 276 b 207 358 151 329 174 358 b 278 319 226 358 244 347 b 399 265 308 292 344 265 z "},"$":{"ha":646,"x_min":0,"x_max":0,"o":"m 403 797 l 326 803 l 318 704 b 85 518 183 699 85 625 b 290 328 85 401 186 360 l 271 81 b 171 114 224 86 186 100 b 181 154 176 128 181 142 b 115 215 181 189 156 215 b 53 149 79 215 53 186 b 258 4 53 64 156 18 l 247 -140 l 324 -147 l 335 0 b 585 197 467 3 585 63 b 367 401 585 321 476 367 l 383 626 b 461 606 418 622 449 613 b 453 569 456 594 453 581 b 518 506 453 532 481 506 b 578 572 553 506 578 532 b 394 701 578 642 493 689 z m 490 193 b 338 76 490 115 421 79 l 357 308 b 490 193 436 283 490 253 z m 179 524 b 315 629 179 589 238 625 l 300 421 b 179 524 229 444 179 471 z "},"£":{"ha":665,"x_min":0,"x_max":0,"o":"m 504 168 l 504 247 l 264 247 b 247 299 260 264 253 281 b 217 460 229 350 217 396 b 379 635 217 549 275 635 b 492 596 442 635 475 617 b 474 549 483 588 474 569 b 535 486 474 513 499 486 b 601 567 568 486 601 513 b 381 717 601 647 503 717 b 125 460 221 717 125 596 b 160 288 125 393 142 340 l 174 247 l 44 247 l 44 168 l 188 168 b 189 144 189 160 189 153 b 121 -28 189 79 164 19 b -18 -121 29 -32 -18 -74 b 47 -172 -18 -149 8 -172 b 158 -108 81 -172 126 -153 l 179 -108 b 313 -136 232 -108 269 -119 b 479 -172 381 -162 431 -172 b 660 -44 567 -172 621 -135 l 592 -7 b 476 -85 560 -64 533 -85 b 340 -57 442 -85 408 -79 b 207 -29 306 -46 253 -33 b 276 146 247 13 276 67 l 276 168 z "},"€":{"ha":826,"x_min":0,"x_max":0,"o":"m 58 400 l 143 400 b 140 350 140 383 140 367 b 143 301 140 333 140 317 l 58 301 l 58 225 l 160 225 b 499 -12 207 86 331 -12 b 764 99 597 -12 694 26 l 707 164 b 499 72 647 104 579 72 b 258 226 386 72 300 136 l 511 226 l 511 301 l 236 301 b 232 351 233 318 232 335 b 236 400 232 368 233 383 l 511 400 l 511 475 l 257 475 b 494 632 299 567 385 632 b 649 572 578 632 632 599 b 624 522 638 567 624 546 b 688 458 624 486 651 458 b 761 536 726 458 761 490 b 496 717 761 622 650 717 b 160 476 344 717 210 622 l 58 476 z "},"¥":{"ha":694,"x_min":0,"x_max":0,"o":"m 108 326 l 300 326 l 304 319 l 304 244 l 108 244 l 108 168 l 304 168 l 304 76 l 193 76 l 193 0 l 499 0 l 499 76 l 388 76 l 388 168 l 582 168 l 582 244 l 388 244 l 388 319 l 392 326 l 582 326 l 582 403 l 436 403 l 579 626 l 665 626 l 665 706 l 413 706 l 413 628 l 492 628 l 347 390 l 201 628 l 279 628 l 279 706 l 25 706 l 25 626 l 110 626 l 253 403 l 108 403 z "},"¢":{"ha":697,"x_min":0,"x_max":0,"o":"m 632 483 b 429 654 632 558 543 636 l 442 797 l 365 804 l 353 657 b 63 354 189 644 63 507 b 297 61 63 218 156 100 l 281 -140 l 357 -147 l 374 47 l 400 47 b 608 103 469 47 550 63 l 617 193 b 407 128 547 149 482 128 l 379 128 l 419 576 b 526 518 467 568 511 547 b 497 468 506 504 497 479 b 558 406 497 426 528 406 b 632 483 600 406 632 443 z m 161 353 b 346 578 161 486 251 564 l 308 143 b 161 353 215 176 161 256 z "},"#":{"ha":721,"x_min":0,"x_max":0,"o":"m 69 453 l 199 453 l 168 260 l 26 260 l 26 178 l 156 178 l 129 0 l 215 0 l 243 178 l 419 178 l 393 0 l 481 0 l 508 178 l 650 178 l 650 260 l 521 260 l 550 453 l 693 453 l 693 535 l 563 535 l 590 706 l 503 706 l 475 535 l 299 535 l 325 706 l 238 706 l 211 535 l 69 535 z m 283 456 l 465 456 l 435 258 l 253 258 z "},"¶":{"ha":800,"x_min":0,"x_max":0,"o":"m 279 0 l 746 0 l 746 85 l 636 85 l 636 611 l 746 611 l 746 696 l 296 696 b 46 485 154 696 46 608 b 292 267 46 350 150 267 b 390 268 332 267 367 267 l 390 82 l 279 82 z m 472 82 l 472 614 l 553 614 l 553 82 z "},"§":{"ha":632,"x_min":0,"x_max":0,"o":"m 325 717 b 115 575 194 717 115 646 b 189 467 115 525 140 492 b 79 344 125 446 79 404 b 265 204 79 268 160 233 b 414 118 367 175 414 158 b 307 58 414 85 379 58 b 215 81 274 58 232 68 b 221 104 219 88 221 94 b 161 160 221 138 196 160 b 104 101 125 160 104 133 b 306 -14 104 29 201 -14 b 513 128 436 -14 513 53 b 442 235 513 179 486 211 b 550 354 503 257 550 294 b 363 497 550 433 472 467 b 215 583 268 524 215 544 b 322 643 215 617 253 643 b 414 621 357 643 399 632 b 410 599 411 615 410 607 b 469 542 410 565 433 542 b 526 601 504 542 526 568 b 325 717 526 669 433 717 z m 315 278 b 176 361 221 301 176 321 b 268 438 176 394 218 422 l 314 425 b 453 340 407 400 453 381 b 361 265 453 306 413 281 z "},"ª":{"ha":478,"x_min":0,"x_max":0,"o":"m 169 565 b 290 615 217 565 261 588 l 290 572 l 408 572 l 408 626 l 353 626 l 353 808 b 304 907 353 851 336 886 b 208 931 281 922 249 931 b 75 847 121 931 75 888 b 114 806 75 822 90 806 b 153 844 136 806 153 822 b 149 865 153 853 151 860 b 199 876 158 872 174 876 b 263 860 225 876 247 871 b 289 801 279 847 289 828 l 289 758 b 190 772 271 764 228 772 b 53 665 110 772 53 731 b 169 565 53 603 103 565 z m 65 414 l 408 414 l 408 475 l 65 475 z m 188 617 b 119 671 144 617 119 638 b 199 731 119 707 147 731 b 289 718 232 731 265 725 l 289 661 b 188 617 263 635 226 617 z "},"º":{"ha":488,"x_min":0,"x_max":0,"o":"m 79 414 l 408 414 l 408 475 l 79 475 z m 244 564 b 428 747 356 564 428 649 b 244 932 428 849 356 932 b 60 747 133 932 60 847 b 244 564 60 649 132 564 z m 244 619 b 128 747 175 619 128 674 b 244 876 128 822 175 876 b 360 747 313 876 360 822 b 244 619 360 674 313 619 z "},"°":{"ha":419,"x_min":0,"x_max":0,"o":"m 210 571 b 386 751 313 571 386 653 b 210 932 386 850 313 932 b 31 751 106 932 31 850 b 210 571 31 653 106 571 z m 210 633 b 99 751 144 633 99 685 b 210 868 99 818 144 868 b 319 751 274 868 319 818 b 210 633 319 685 274 633 z "},"%":{"ha":897,"x_min":0,"x_max":0,"o":"m 238 381 b 406 549 331 381 406 456 b 238 718 406 643 331 718 b 69 549 143 718 69 643 b 238 381 69 456 143 381 z m 660 326 b 493 158 567 326 493 251 b 660 -11 493 65 567 -11 b 828 158 754 -11 828 65 b 660 326 828 251 754 326 z m 181 -31 b 467 324 207 0 358 192 b 760 676 575 456 731 644 l 708 718 l 422 363 b 131 13 313 229 160 42 z m 238 449 b 146 549 185 449 146 493 b 238 649 146 604 185 649 b 329 549 290 649 329 604 b 238 449 329 493 290 449 z m 660 257 b 751 157 714 257 751 213 b 660 57 751 101 714 57 b 569 157 607 57 569 101 b 660 257 569 213 607 257 z "},"‰":{"ha":1283,"x_min":0,"x_max":0,"o":"m 238 381 b 406 549 331 381 406 456 b 238 718 406 643 331 718 b 69 549 143 718 69 643 b 238 381 69 456 143 381 z m 1046 -11 b 1214 158 1139 -11 1214 65 b 1046 326 1214 251 1139 326 b 878 158 951 326 878 251 b 1046 -11 878 65 951 -11 z m 660 -11 b 828 158 754 -11 828 65 b 660 326 828 251 754 326 b 493 158 567 326 493 251 b 660 -11 493 65 567 -11 z m 181 -31 b 467 324 207 0 358 192 b 760 676 575 456 731 644 l 708 718 l 422 363 b 131 13 313 229 160 42 z m 238 449 b 146 549 185 449 146 493 b 238 649 146 604 185 649 b 329 549 290 649 329 604 b 238 449 329 493 290 449 z m 1046 57 b 954 157 992 57 954 101 b 1046 257 954 213 992 257 b 1136 157 1099 257 1136 213 b 1046 57 1136 101 1099 57 z m 660 57 b 569 157 607 57 569 101 b 660 257 569 213 607 257 b 751 157 714 257 751 213 b 660 57 751 101 714 57 z "},"\"":{"ha":469,"x_min":0,"x_max":0,"o":"m 332 583 l 371 583 l 418 832 b 351 931 431 893 399 931 b 286 832 306 931 274 892 z m 96 583 l 135 583 l 182 832 b 115 931 193 893 163 931 b 50 832 69 931 38 892 z "},"'":{"ha":233,"x_min":0,"x_max":0,"o":"m 96 583 l 135 583 l 182 832 b 115 931 193 893 163 931 b 50 832 69 931 38 892 z "},"+":{"ha":578,"x_min":0,"x_max":0,"o":"m 244 144 l 332 144 l 332 333 l 519 333 l 519 418 l 332 418 l 332 607 l 244 607 l 244 418 l 58 418 l 58 333 l 244 333 z "},"−":{"ha":578,"x_min":0,"x_max":0,"o":"m 58 333 l 519 333 l 519 418 l 58 418 z "},"÷":{"ha":578,"x_min":0,"x_max":0,"o":"m 519 333 l 519 418 l 58 418 l 58 333 z m 289 497 b 357 567 325 497 357 529 b 289 636 357 604 325 636 b 221 567 253 636 221 604 b 289 497 221 529 251 497 z m 289 117 b 357 185 325 117 357 147 b 289 254 357 222 325 254 b 221 185 253 254 221 222 b 289 117 221 147 251 117 z "},"=":{"ha":578,"x_min":0,"x_max":0,"o":"m 58 436 l 519 436 l 519 521 l 58 521 z m 58 213 l 519 213 l 519 297 l 58 297 z "},"×":{"ha":578,"x_min":0,"x_max":0,"o":"m 433 164 l 494 226 l 349 376 l 494 524 l 433 586 l 289 436 l 143 586 l 81 524 l 228 375 l 82 226 l 143 165 l 288 314 z "},"<":{"ha":540,"x_min":0,"x_max":0,"o":"m 406 110 l 451 176 l 168 368 l 451 561 l 406 628 l 57 392 l 57 346 z "},">":{"ha":540,"x_min":0,"x_max":0,"o":"m 136 110 l 485 346 l 485 392 l 136 628 l 89 561 l 372 368 l 89 176 z "},"±":{"ha":578,"x_min":0,"x_max":0,"o":"m 244 219 l 332 219 l 332 407 l 519 407 l 519 493 l 332 493 l 332 681 l 244 681 l 244 493 l 58 493 l 58 407 l 244 407 z m 58 25 l 519 25 l 519 110 l 58 110 z "},"½":{"ha":1104,"x_min":0,"x_max":0,"o":"m 694 -1 l 1035 -1 l 1035 140 l 972 140 l 972 58 l 761 58 b 903 203 789 119 847 167 b 1025 367 967 246 1025 286 b 858 511 1025 453 949 511 b 688 385 754 511 688 449 b 739 324 688 350 704 324 b 785 369 764 324 785 344 b 761 410 785 388 775 404 b 853 449 767 424 803 449 b 950 367 907 449 950 414 b 858 249 950 315 911 286 b 674 32 794 204 713 142 b 694 -1 674 32 692 -1 z m 68 390 l 403 390 l 403 456 l 272 456 l 272 896 l 236 896 l 61 850 l 76 788 l 200 817 l 200 456 l 68 456 z m 315 -18 b 585 432 346 33 485 267 l 856 871 l 803 904 b 536 460 772 851 636 622 l 263 14 z "},"⅓":{"ha":1104,"x_min":0,"x_max":0,"o":"m 854 -11 b 1040 132 957 -11 1040 46 b 914 258 1040 199 976 246 b 1028 378 976 272 1028 319 b 858 507 1028 451 956 507 b 693 401 749 507 693 446 b 743 346 693 368 717 346 b 789 392 768 346 789 367 b 775 422 789 404 782 417 b 856 449 785 433 813 449 b 954 375 910 449 954 424 b 832 288 954 322 904 288 l 799 288 l 799 226 l 829 226 b 965 136 922 226 965 186 b 854 49 965 86 917 49 b 757 81 801 49 767 71 b 771 111 765 86 771 100 b 725 158 771 138 753 158 b 675 104 697 158 675 133 b 854 -11 675 39 757 -11 z m 69 390 l 404 390 l 404 456 l 274 456 l 274 896 l 238 896 l 63 850 l 78 788 l 201 817 l 201 456 l 69 456 z m 311 -18 b 581 432 342 33 481 267 l 851 871 l 799 904 b 532 460 768 851 632 622 l 258 14 z "},"⅔":{"ha":1104,"x_min":0,"x_max":0,"o":"m 79 390 l 419 390 l 419 532 l 357 532 l 357 450 l 146 450 b 288 594 174 511 232 558 b 410 758 351 638 410 678 b 243 903 410 844 333 903 b 72 776 139 903 72 840 b 124 715 72 742 89 715 b 169 761 149 715 169 736 b 146 801 169 779 160 796 b 238 840 151 815 188 840 b 335 758 292 840 335 806 b 243 640 335 707 296 678 b 58 424 179 596 97 533 b 79 390 58 424 76 390 z m 857 -11 b 1043 132 960 -11 1043 46 b 917 258 1043 199 979 246 b 1031 378 979 272 1031 319 b 861 507 1031 451 958 507 b 696 401 751 507 696 446 b 746 346 696 368 719 346 b 792 392 771 346 792 367 b 778 422 792 404 785 417 b 858 449 788 433 815 449 b 957 375 913 449 957 424 b 835 288 957 322 907 288 l 801 288 l 801 226 l 832 226 b 968 136 925 226 968 186 b 857 49 968 86 919 49 b 760 81 804 49 769 71 b 774 111 768 86 774 100 b 728 158 774 138 756 158 b 678 104 700 158 678 133 b 857 -11 678 39 760 -11 z m 333 -18 b 603 432 364 33 503 267 l 874 871 l 821 904 b 554 460 790 851 654 622 l 281 14 z "},"¼":{"ha":1104,"x_min":0,"x_max":0,"o":"m 789 -1 l 1011 -1 l 1011 58 l 947 58 l 947 144 l 1029 144 l 1029 204 l 947 204 l 947 325 l 882 297 l 882 201 l 726 201 l 950 476 l 899 518 l 632 182 l 650 146 l 882 146 l 882 57 l 789 57 z m 72 390 l 407 390 l 407 456 l 276 456 l 276 896 l 240 896 l 65 850 l 81 788 l 204 817 l 204 456 l 72 456 z m 332 -18 b 601 432 363 33 501 267 l 872 871 l 819 904 b 553 460 789 851 653 622 l 279 14 z "},"¾":{"ha":1104,"x_min":0,"x_max":0,"o":"m 257 381 b 443 524 360 381 443 438 b 317 650 443 590 379 638 b 431 769 379 664 431 711 b 261 899 431 843 358 899 b 96 793 151 899 96 838 b 146 738 96 760 119 738 b 192 783 171 738 192 758 b 178 814 192 796 185 808 b 258 840 188 825 215 840 b 357 767 313 840 357 815 b 235 679 357 714 307 679 l 201 679 l 201 618 l 232 618 b 368 528 325 618 368 578 b 257 440 368 478 319 440 b 160 472 204 440 169 463 b 174 503 168 478 174 492 b 128 550 174 529 156 550 b 78 496 100 550 78 525 b 257 381 78 431 160 381 z m 786 -1 l 1008 -1 l 1008 58 l 944 58 l 944 144 l 1026 144 l 1026 204 l 944 204 l 944 325 l 879 297 l 879 201 l 724 201 l 947 476 l 896 518 l 629 182 l 647 146 l 879 146 l 879 57 l 786 57 z m 338 -18 b 607 432 368 33 507 267 l 878 871 l 825 904 b 558 460 794 851 658 622 l 285 14 z "},"⅕":{"ha":1104,"x_min":0,"x_max":0,"o":"m 863 -11 b 1053 161 969 -11 1053 58 b 868 322 1053 261 975 322 b 790 311 835 322 808 317 l 803 433 l 1021 433 l 1021 501 l 742 501 l 718 250 l 751 233 b 864 258 781 247 822 258 b 981 161 940 258 981 215 b 858 51 981 97 936 51 b 785 68 822 51 796 61 b 792 90 789 74 792 82 b 743 136 792 114 774 136 b 694 85 714 136 694 114 b 863 -11 694 39 754 -11 z m 69 390 l 404 390 l 404 456 l 274 456 l 274 896 l 238 896 l 63 850 l 78 788 l 201 817 l 201 456 l 69 456 z m 318 -18 b 588 432 349 33 488 267 l 858 871 l 806 904 b 539 460 775 851 639 622 l 265 14 z "},"⅖":{"ha":1104,"x_min":0,"x_max":0,"o":"m 82 390 l 422 390 l 422 532 l 360 532 l 360 450 l 149 450 b 290 594 176 511 235 558 b 413 758 354 638 413 678 b 246 903 413 844 336 903 b 75 776 142 903 75 840 b 126 715 75 742 92 715 b 172 761 151 715 172 736 b 149 801 172 779 163 796 b 240 840 154 815 190 840 b 338 758 294 840 338 806 b 246 640 338 707 299 678 b 61 424 182 596 100 533 b 82 390 61 424 79 390 z m 869 -11 b 1060 161 976 -11 1060 58 b 875 322 1060 261 982 322 b 797 311 842 322 815 317 l 810 433 l 1028 433 l 1028 501 l 749 501 l 725 250 l 758 233 b 871 258 788 247 829 258 b 988 161 947 258 988 215 b 865 51 988 97 943 51 b 792 68 829 51 803 61 b 799 90 796 74 799 82 b 750 136 799 114 781 136 b 701 85 721 136 701 114 b 869 -11 701 39 761 -11 z m 343 -18 b 613 432 374 33 513 267 l 883 871 l 831 904 b 564 460 800 851 664 622 l 290 14 z "},"⅗":{"ha":1104,"x_min":0,"x_max":0,"o":"m 861 -11 b 1051 161 968 -11 1051 58 b 867 322 1051 261 974 322 b 789 311 833 322 807 317 l 801 433 l 1019 433 l 1019 501 l 740 501 l 717 250 l 750 233 b 863 258 779 247 821 258 b 979 161 939 258 979 215 b 857 51 979 97 935 51 b 783 68 821 51 794 61 b 790 90 788 74 790 82 b 742 136 790 114 772 136 b 693 85 713 136 693 114 b 861 -11 693 39 753 -11 z m 244 381 b 431 524 347 381 431 438 b 304 650 431 590 367 638 b 418 769 367 664 418 711 b 249 899 418 843 346 899 b 83 793 139 899 83 838 b 133 738 83 760 107 738 b 179 783 158 738 179 758 b 165 814 179 796 172 808 b 246 840 175 825 203 840 b 344 767 300 840 344 815 b 222 679 344 714 294 679 l 189 679 l 189 618 l 219 618 b 356 528 313 618 356 578 b 244 440 356 478 307 440 b 147 472 192 440 157 463 b 161 503 156 478 161 492 b 115 550 161 529 143 550 b 65 496 88 550 65 525 b 244 381 65 431 147 381 z m 315 -18 b 585 432 346 33 485 267 l 856 871 l 803 904 b 536 460 772 851 636 622 l 263 14 z "},"⅘":{"ha":1104,"x_min":0,"x_max":0,"o":"m 865 -11 b 1056 161 972 -11 1056 58 b 871 322 1056 261 978 322 b 793 311 838 322 811 317 l 806 433 l 1024 433 l 1024 501 l 744 501 l 721 250 l 754 233 b 867 258 783 247 825 258 b 983 161 943 258 983 215 b 861 51 983 97 939 51 b 788 68 825 51 799 61 b 794 90 792 74 794 82 b 746 136 794 114 776 136 b 697 85 717 136 697 114 b 865 -11 697 39 757 -11 z m 203 390 l 425 390 l 425 450 l 361 450 l 361 536 l 443 536 l 443 596 l 361 596 l 361 717 l 296 689 l 296 593 l 140 593 l 364 868 l 313 910 l 46 574 l 64 538 l 296 538 l 296 449 l 203 449 z m 344 -18 b 614 432 375 33 514 267 l 885 871 l 832 904 b 565 460 801 851 665 622 l 292 14 z "},"⅙":{"ha":1104,"x_min":0,"x_max":0,"o":"m 1013 418 b 988 474 1013 439 1006 456 b 879 511 965 494 931 511 b 667 224 765 511 667 413 b 724 43 667 142 682 86 b 858 -11 757 10 801 -11 b 1039 153 967 -11 1039 61 b 868 311 1039 243 969 311 b 750 264 821 311 781 294 b 738 250 746 260 740 254 b 879 449 740 365 800 449 b 925 436 897 449 915 443 b 919 414 922 431 919 422 b 967 369 919 392 935 369 b 1013 418 993 369 1013 388 z m 67 390 l 401 390 l 401 456 l 271 456 l 271 896 l 235 896 l 60 850 l 75 788 l 199 817 l 199 456 l 67 456 z m 314 -18 b 583 432 344 33 483 267 l 854 871 l 801 904 b 535 460 771 851 635 622 l 261 14 z m 860 51 b 776 82 825 51 796 64 b 747 153 757 100 747 125 b 858 249 747 207 794 249 b 967 151 926 249 967 208 b 860 51 967 96 922 51 z "},"⅚":{"ha":1104,"x_min":0,"x_max":0,"o":"m 1013 418 b 988 474 1013 439 1006 456 b 879 511 965 494 931 511 b 667 224 765 511 667 413 b 724 43 667 142 682 86 b 858 -11 757 10 801 -11 b 1039 153 967 -11 1039 61 b 868 311 1039 243 969 311 b 750 264 821 311 781 294 b 738 250 746 260 740 254 b 879 449 740 365 800 449 b 925 436 897 449 915 443 b 919 414 922 431 919 422 b 967 369 919 392 935 369 b 1013 418 993 369 1013 388 z m 236 381 b 426 553 343 381 426 450 b 242 714 426 653 349 714 b 164 703 208 714 182 708 l 176 825 l 394 825 l 394 893 l 115 893 l 92 642 l 125 625 b 238 650 154 639 196 650 b 354 553 314 650 354 607 b 232 443 354 489 310 443 b 158 460 196 443 169 453 b 165 482 163 465 165 474 b 117 528 165 506 147 528 b 68 476 88 528 68 506 b 236 381 68 431 128 381 z m 315 -18 b 585 432 346 33 485 267 l 856 871 l 803 904 b 536 460 772 851 636 622 l 263 14 z m 860 51 b 776 82 825 51 796 64 b 747 153 757 100 747 125 b 858 249 747 207 794 249 b 967 151 926 249 967 208 b 860 51 967 96 922 51 z "},"⅛":{"ha":1104,"x_min":0,"x_max":0,"o":"m 858 -10 b 1043 128 969 -10 1043 54 b 926 258 1043 185 999 239 b 1032 376 997 279 1032 325 b 858 508 1032 451 956 508 b 685 376 758 508 685 451 b 789 258 685 325 718 279 b 672 128 717 239 672 185 b 858 -10 672 54 744 -10 z m 64 390 l 399 390 l 399 456 l 268 456 l 268 896 l 232 896 l 57 850 l 72 788 l 196 817 l 196 456 l 64 456 z m 304 -18 b 574 432 335 33 474 267 l 844 871 l 792 904 b 525 460 761 851 625 622 l 251 14 z m 858 54 b 749 140 793 54 749 92 b 858 228 749 186 794 228 b 967 140 919 228 967 186 b 858 54 967 92 922 54 z m 858 285 b 760 365 804 285 760 319 b 858 446 760 413 801 446 b 956 365 914 446 956 413 b 858 285 956 319 911 285 z "},"⅜":{"ha":1104,"x_min":0,"x_max":0,"o":"m 857 -10 b 1042 128 968 -10 1042 54 b 925 258 1042 185 997 239 b 1031 376 996 279 1031 325 b 857 508 1031 451 954 508 b 683 376 757 508 683 451 b 788 258 683 325 717 279 b 671 128 715 239 671 185 b 857 -10 671 54 743 -10 z m 244 381 b 431 524 347 381 431 438 b 304 650 431 590 367 638 b 418 769 367 664 418 711 b 249 899 418 843 346 899 b 83 793 139 899 83 838 b 133 738 83 760 107 738 b 179 783 158 738 179 758 b 165 814 179 796 172 808 b 246 840 175 825 203 840 b 344 767 300 840 344 815 b 222 679 344 714 294 679 l 189 679 l 189 618 l 219 618 b 356 528 313 618 356 578 b 244 440 356 478 307 440 b 147 472 192 440 157 463 b 161 503 156 478 161 492 b 115 550 161 529 143 550 b 65 496 88 550 65 525 b 244 381 65 431 147 381 z m 307 -18 b 576 432 338 33 476 267 l 847 871 l 794 904 b 528 460 764 851 628 622 l 254 14 z m 857 54 b 747 140 792 54 747 92 b 857 228 747 186 793 228 b 965 140 918 228 965 186 b 857 54 965 92 921 54 z m 857 285 b 758 365 803 285 758 319 b 857 446 758 413 800 446 b 954 365 913 446 954 413 b 857 285 954 319 910 285 z "},"⅝":{"ha":1104,"x_min":0,"x_max":0,"o":"m 850 -10 b 1035 128 961 -10 1035 54 b 918 258 1035 185 990 239 b 1024 376 989 279 1024 325 b 850 508 1024 451 947 508 b 676 376 750 508 676 451 b 781 258 676 325 710 279 b 664 128 708 239 664 185 b 850 -10 664 54 736 -10 z m 226 381 b 417 553 333 381 417 450 b 232 714 417 653 339 714 b 154 703 199 714 172 708 l 167 825 l 385 825 l 385 893 l 106 893 l 82 642 l 115 625 b 228 650 144 639 186 650 b 344 553 304 650 344 607 b 222 443 344 489 300 443 b 149 460 186 443 160 453 b 156 482 153 465 156 474 b 107 528 156 506 138 528 b 58 476 78 528 58 506 b 226 381 58 431 118 381 z m 296 -18 b 565 432 326 33 465 267 l 836 871 l 783 904 b 517 460 753 851 617 622 l 243 14 z m 850 54 b 740 140 785 54 740 92 b 850 228 740 186 786 228 b 958 140 911 228 958 186 b 850 54 958 92 914 54 z m 850 285 b 751 365 796 285 751 319 b 850 446 751 413 793 446 b 947 365 906 446 947 413 b 850 285 947 319 903 285 z "},"⅞":{"ha":1104,"x_min":0,"x_max":0,"o":"m 826 -10 b 1011 128 938 -10 1011 54 b 894 258 1011 185 967 239 b 1000 376 965 279 1000 325 b 826 508 1000 451 924 508 b 653 376 726 508 653 451 b 757 258 653 325 686 279 b 640 128 685 239 640 185 b 826 -10 640 54 713 -10 z m 163 390 l 240 390 l 454 857 l 438 893 l 97 893 l 97 742 l 163 742 l 163 832 l 369 832 z m 254 -18 b 524 432 285 33 424 267 l 794 871 l 742 904 b 475 460 711 851 575 622 l 201 14 z m 826 54 b 717 140 761 54 717 92 b 826 228 717 186 763 228 b 935 140 888 228 935 186 b 826 54 935 92 890 54 z m 826 285 b 728 365 772 285 728 319 b 826 446 728 413 769 446 b 924 365 882 446 924 413 b 826 285 924 319 879 285 z "},"⁰":{"ha":490,"x_min":0,"x_max":0,"o":"m 244 589 b 440 849 360 589 440 692 b 246 1107 440 1004 360 1107 b 50 846 131 1107 50 1004 b 244 589 50 693 129 589 z m 244 656 b 126 849 172 656 126 735 b 244 1040 126 961 172 1040 b 364 846 318 1040 364 961 b 244 656 364 735 318 656 z "},"¹":{"ha":490,"x_min":0,"x_max":0,"o":"m 88 599 l 422 599 l 422 664 l 292 664 l 292 1104 l 256 1104 l 81 1058 l 96 996 l 219 1025 l 219 664 l 88 664 z "},"²":{"ha":490,"x_min":0,"x_max":0,"o":"m 82 599 l 422 599 l 422 740 l 360 740 l 360 658 l 149 658 b 290 803 176 719 235 767 b 413 967 354 846 413 886 b 246 1111 413 1053 336 1111 b 75 985 142 1111 75 1049 b 126 924 75 950 92 924 b 172 969 151 924 172 944 b 149 1010 172 988 163 1004 b 240 1049 154 1024 190 1049 b 338 967 294 1049 338 1014 b 246 849 338 915 299 886 b 61 632 182 804 100 742 b 82 599 61 632 79 599 z "},"³":{"ha":490,"x_min":0,"x_max":0,"o":"m 238 589 b 424 732 340 589 424 646 b 297 858 424 799 360 846 b 411 978 360 872 411 919 b 242 1107 411 1051 339 1107 b 76 1001 132 1107 76 1046 b 126 946 76 968 100 946 b 172 992 151 946 172 967 b 158 1022 172 1004 165 1017 b 239 1049 168 1033 196 1049 b 338 975 293 1049 338 1024 b 215 888 338 922 288 888 l 182 888 l 182 826 l 213 826 b 349 736 306 826 349 786 b 238 649 349 686 300 649 b 140 681 185 649 150 671 b 154 711 149 686 154 700 b 108 758 154 738 136 758 b 58 704 81 758 58 733 b 238 589 58 639 140 589 z "},"⁴":{"ha":490,"x_min":0,"x_max":0,"o":"m 199 599 l 421 599 l 421 658 l 357 658 l 357 744 l 439 744 l 439 804 l 357 804 l 357 925 l 292 897 l 292 801 l 136 801 l 360 1076 l 308 1118 l 42 782 l 60 746 l 292 746 l 292 657 l 199 657 z "},"⁵":{"ha":490,"x_min":0,"x_max":0,"o":"m 232 589 b 422 761 339 589 422 658 b 238 922 422 861 344 922 b 160 911 204 922 178 917 l 172 1033 l 390 1033 l 390 1101 l 111 1101 l 88 850 l 121 833 b 233 858 150 847 192 858 b 350 761 310 858 350 815 b 228 651 350 697 306 651 b 154 668 192 651 165 661 b 161 690 158 674 161 682 b 113 736 161 714 143 736 b 64 685 83 736 64 714 b 232 589 64 639 124 589 z "},"⁶":{"ha":490,"x_min":0,"x_max":0,"o":"m 406 1018 b 381 1074 406 1039 399 1056 b 272 1111 358 1094 324 1111 b 60 824 158 1111 60 1013 b 117 643 60 742 75 686 b 251 589 150 610 194 589 b 432 753 360 589 432 661 b 261 911 432 843 363 911 b 143 864 214 911 174 894 b 131 850 139 860 133 854 b 272 1049 133 965 193 1049 b 318 1036 290 1049 308 1043 b 313 1014 315 1031 313 1022 b 360 969 313 992 328 969 b 406 1018 386 969 406 988 z m 253 651 b 169 682 218 651 189 664 b 140 753 150 700 140 725 b 251 849 140 807 188 849 b 360 751 319 849 360 808 b 253 651 360 696 315 651 z "},"⁷":{"ha":490,"x_min":0,"x_max":0,"o":"m 143 599 l 221 599 l 435 1065 l 418 1101 l 78 1101 l 78 950 l 143 950 l 143 1040 l 350 1040 z "},"⁸":{"ha":490,"x_min":0,"x_max":0,"o":"m 246 590 b 431 728 357 590 431 654 b 314 858 431 785 386 839 b 419 976 385 879 419 925 b 246 1108 419 1051 343 1108 b 72 976 146 1108 72 1051 b 176 858 72 925 106 879 b 60 728 104 839 60 785 b 246 590 60 654 132 590 z m 246 885 b 147 965 192 885 147 919 b 246 1046 147 1013 189 1046 b 343 965 301 1046 343 1013 b 246 885 343 919 299 885 z m 246 654 b 136 740 181 654 136 692 b 246 828 136 786 182 828 b 354 740 307 828 354 786 b 246 654 354 692 310 654 z "},"⁹":{"ha":490,"x_min":0,"x_max":0,"o":"m 85 681 b 110 626 85 661 92 643 b 218 589 132 604 167 589 b 431 875 332 589 431 688 b 374 1056 431 957 415 1014 b 239 1111 340 1089 296 1111 b 58 946 131 1111 58 1038 b 229 789 58 856 128 789 b 347 835 276 789 317 804 l 360 849 b 218 651 356 732 296 651 b 171 663 200 651 182 657 b 178 685 175 668 178 676 b 131 729 178 708 163 729 b 85 681 104 729 85 711 z m 238 1047 b 321 1018 272 1047 301 1036 b 350 946 340 999 350 975 b 239 851 350 893 303 851 b 131 947 171 851 131 892 b 238 1047 131 1003 175 1047 z "},"₀":{"ha":490,"x_min":0,"x_max":0,"o":"m 244 -203 b 440 57 360 -203 440 -100 b 246 315 440 213 360 315 b 50 54 131 315 50 213 b 244 -203 50 -99 129 -203 z m 244 -136 b 126 57 172 -136 126 -57 b 244 249 126 169 172 249 b 364 54 318 249 364 169 b 244 -136 364 -57 318 -136 z "},"₁":{"ha":490,"x_min":0,"x_max":0,"o":"m 88 -193 l 422 -193 l 422 -128 l 292 -128 l 292 313 l 256 313 l 81 267 l 96 204 l 219 233 l 219 -128 l 88 -128 z "},"₂":{"ha":490,"x_min":0,"x_max":0,"o":"m 82 -193 l 422 -193 l 422 -51 l 360 -51 l 360 -133 l 149 -133 b 290 11 176 -72 235 -25 b 413 175 354 54 413 94 b 246 319 413 261 336 319 b 75 193 142 319 75 257 b 126 132 75 158 92 132 b 172 178 151 132 172 153 b 149 218 172 196 163 213 b 240 257 154 232 190 257 b 338 175 294 257 338 222 b 246 57 338 124 299 94 b 61 -160 182 13 100 -50 b 82 -193 61 -160 79 -193 z "},"₃":{"ha":490,"x_min":0,"x_max":0,"o":"m 238 -203 b 424 -60 340 -203 424 -146 b 297 67 424 7 360 54 b 411 186 360 81 411 128 b 242 315 411 260 339 315 b 76 210 132 315 76 254 b 126 154 76 176 100 154 b 172 200 151 154 172 175 b 158 231 172 213 165 225 b 239 257 168 242 196 257 b 338 183 293 257 338 232 b 215 96 338 131 288 96 l 182 96 l 182 35 l 213 35 b 349 -56 306 35 349 -6 b 238 -143 349 -106 300 -143 b 140 -111 185 -143 150 -121 b 154 -81 149 -106 154 -92 b 108 -33 154 -54 136 -33 b 58 -87 81 -33 58 -58 b 238 -203 58 -153 140 -203 z "},"₄":{"ha":490,"x_min":0,"x_max":0,"o":"m 199 -193 l 421 -193 l 421 -133 l 357 -133 l 357 -47 l 439 -47 l 439 13 l 357 13 l 357 133 l 292 106 l 292 10 l 136 10 l 360 285 l 308 326 l 42 -10 l 60 -46 l 292 -46 l 292 -135 l 199 -135 z "},"₅":{"ha":490,"x_min":0,"x_max":0,"o":"m 232 -203 b 422 -31 339 -203 422 -133 b 238 131 422 69 344 131 b 160 119 204 131 178 125 l 172 242 l 390 242 l 390 310 l 111 310 l 88 58 l 121 42 b 233 67 150 56 192 67 b 350 -31 310 67 350 24 b 228 -140 350 -94 306 -140 b 154 -124 192 -140 165 -131 b 161 -101 158 -118 161 -110 b 113 -56 161 -78 143 -56 b 64 -107 83 -56 64 -78 b 232 -203 64 -153 124 -203 z "},"₆":{"ha":490,"x_min":0,"x_max":0,"o":"m 406 226 b 381 282 406 247 399 264 b 272 319 358 303 324 319 b 60 32 158 319 60 221 b 117 -149 60 -50 75 -106 b 251 -203 150 -182 194 -203 b 432 -39 360 -203 432 -131 b 261 119 432 51 363 119 b 143 72 214 119 174 103 b 131 58 139 68 133 63 b 272 257 133 174 193 257 b 318 244 290 257 308 251 b 313 222 315 239 313 231 b 360 178 313 200 328 178 b 406 226 386 178 406 196 z m 253 -140 b 169 -110 218 -140 189 -128 b 140 -39 150 -92 140 -67 b 251 57 140 15 188 57 b 360 -40 319 57 360 17 b 253 -140 360 -96 315 -140 z "},"₇":{"ha":490,"x_min":0,"x_max":0,"o":"m 143 -193 l 221 -193 l 435 274 l 418 310 l 78 310 l 78 158 l 143 158 l 143 249 l 350 249 z "},"₈":{"ha":490,"x_min":0,"x_max":0,"o":"m 246 -201 b 431 -64 357 -201 431 -137 b 314 67 431 -7 386 47 b 419 185 385 88 419 133 b 246 317 419 260 343 317 b 72 185 146 317 72 260 b 176 67 72 133 106 88 b 60 -64 104 47 60 -7 b 246 -201 60 -137 132 -201 z m 246 93 b 147 174 192 93 147 128 b 246 254 147 221 189 254 b 343 174 301 254 343 221 b 246 93 343 128 299 93 z m 246 -137 b 136 -51 181 -137 136 -100 b 246 36 136 -6 182 36 b 354 -51 307 36 354 -6 b 246 -137 354 -100 310 -137 z "},"₉":{"ha":490,"x_min":0,"x_max":0,"o":"m 85 -111 b 110 -165 85 -131 92 -149 b 218 -203 132 -187 167 -203 b 431 83 332 -203 431 -104 b 374 264 431 165 415 222 b 239 319 340 297 296 319 b 58 154 131 319 58 246 b 229 -3 58 64 128 -3 b 347 43 276 -3 317 13 l 360 57 b 218 -140 356 -58 296 -140 b 171 -128 200 -140 182 -135 b 178 -107 175 -122 178 -115 b 131 -62 178 -83 163 -62 b 85 -111 104 -62 85 -81 z m 238 256 b 321 226 272 256 301 244 b 350 154 340 207 350 183 b 239 60 350 101 303 60 b 131 156 171 60 131 100 b 238 256 131 211 175 256 z "}," ":{"ha":315,"x_min":0,"x_max":0,"o":""}," ":{"ha":315,"x_min":0,"x_max":0,"o":""}," ":{"ha":1389,"x_min":0,"x_max":0,"o":""}," ":{"ha":694,"x_min":0,"x_max":0,"o":""}," ":{"ha":463,"x_min":0,"x_max":0,"o":""}," ":{"ha":347,"x_min":0,"x_max":0,"o":""}," ":{"ha":185,"x_min":0,"x_max":0,"o":""}," ":{"ha":104,"x_min":0,"x_max":0,"o":""}," ":{"ha":736,"x_min":0,"x_max":0,"o":""},"⁄":{"ha":694,"x_min":0,"x_max":0,"o":"m 103 -18 b 372 432 133 33 272 267 l 643 871 l 590 904 b 324 460 560 851 424 622 l 50 14 z "},"´":{"ha":581,"x_min":0,"x_max":0,"o":"m 211 699 l 421 818 b 468 879 450 836 468 860 b 413 939 468 917 442 939 b 353 907 392 939 371 926 l 185 732 z "},"˝":{"ha":697,"x_min":0,"x_max":0,"o":"m 68 701 l 292 818 b 344 882 325 836 344 861 b 289 939 344 917 319 939 b 229 907 269 939 250 926 l 46 735 z m 333 707 l 569 813 b 625 876 607 828 625 853 b 571 932 625 907 604 932 b 513 906 554 932 535 924 l 315 742 z "},"`":{"ha":581,"x_min":0,"x_max":0,"o":"m 369 699 l 394 732 l 228 907 b 168 939 208 926 189 939 b 113 879 139 939 113 917 b 160 818 113 860 131 836 z "},"ˆ":{"ha":644,"x_min":0,"x_max":0,"o":"m 151 694 l 322 824 l 493 694 l 536 746 l 322 950 l 108 746 z "},"ˇ":{"ha":644,"x_min":0,"x_max":0,"o":"m 493 951 l 322 822 l 151 951 l 108 900 l 322 696 l 536 900 z "},"˘":{"ha":650,"x_min":0,"x_max":0,"o":"m 325 706 b 546 894 426 706 511 778 l 478 924 b 325 801 449 850 392 801 b 172 924 264 801 203 844 l 104 894 b 325 706 140 778 224 706 z "},"˜":{"ha":663,"x_min":0,"x_max":0,"o":"m 431 707 b 564 871 496 707 557 775 l 489 888 b 425 804 479 835 457 804 b 354 842 404 804 386 815 b 231 896 321 869 285 896 b 99 732 167 896 106 828 l 174 715 b 238 799 182 767 204 799 b 308 760 257 799 275 788 b 431 707 340 732 376 707 z "},"¯":{"ha":636,"x_min":0,"x_max":0,"o":"m 107 743 l 529 743 l 529 831 l 107 831 z "},"¨":{"ha":644,"x_min":0,"x_max":0,"o":"m 443 721 b 521 800 486 721 521 757 b 443 881 521 844 488 881 b 364 800 400 881 364 844 b 443 721 364 757 399 721 z m 200 721 b 279 800 244 721 279 757 b 201 881 279 844 244 881 b 122 800 158 881 122 844 b 200 721 122 757 157 721 z "},"˙":{"ha":560,"x_min":0,"x_max":0,"o":"m 279 714 b 360 796 324 714 360 751 b 281 878 360 842 325 878 b 200 796 236 878 200 842 b 279 714 200 751 235 714 z "},"˚":{"ha":613,"x_min":0,"x_max":0,"o":"m 306 686 b 458 840 392 686 458 754 b 306 994 458 926 392 994 b 154 840 221 994 154 926 b 306 686 154 754 221 686 z m 306 757 b 229 840 261 757 229 794 b 306 924 229 886 261 924 b 383 840 351 924 383 886 b 306 757 383 794 351 757 z "},"̦":{"ha":293,"x_min":0,"x_max":0,"o":"m 75 -386 b 244 -164 200 -318 244 -228 b 167 -74 244 -104 210 -74 b 99 -142 131 -74 99 -103 b 158 -211 99 -176 125 -204 b 53 -354 157 -242 131 -296 z "},"¸":{"ha":583,"x_min":0,"x_max":0,"o":"m 315 -276 b 451 -172 404 -276 451 -228 b 321 -67 451 -115 407 -71 l 325 24 l 283 31 l 236 -117 l 263 -139 b 288 -136 265 -139 281 -136 b 361 -179 339 -136 361 -154 b 303 -219 361 -204 338 -219 b 181 -193 268 -219 217 -208 l 160 -237 b 315 -276 206 -261 263 -276 z "},"˛":{"ha":576,"x_min":0,"x_max":0,"o":"m 293 -279 b 413 -247 344 -279 392 -262 l 418 -174 b 310 -200 388 -189 351 -200 b 233 -128 258 -200 233 -172 b 408 29 233 -58 310 1 l 324 46 b 146 -150 231 13 146 -57 b 293 -279 146 -226 196 -279 z "}}}
